<svg id="visual" viewBox="0 0 450 900" width="450" height="900" xmlns="http://www.w3.org/2000/svg" xmlns:xlink="http://www.w3.org/1999/xlink" version="1.1"><g transform="translate(220.5692847412722 440.5511413163187)"><path d="M121.7 -129.5C147 -123.8 149.3 -75.3 135.2 -40.8C121 -6.3 90.4 14.1 70.9 34.5C51.5 54.9 43.2 75.4 21.8 101.1C0.3 126.9 -34.2 157.9 -48.1 146.6C-62.1 135.3 -55.4 81.7 -68.2 45.9C-81.1 10.2 -113.4 -7.8 -127.3 -38.6C-141.1 -69.5 -136.4 -113.3 -112.1 -119.1C-87.8 -125 -43.9 -93 2.1 -95.6C48.2 -98.1 96.4 -135.2 121.7 -129.5" fill="#f4d700"></path></g></svg>