<svg id="visual" viewBox="0 0 450 900" width="450" height="900" xmlns="http://www.w3.org/2000/svg" xmlns:xlink="http://www.w3.org/1999/xlink" version="1.1">
    <g transform="translate(255.46313661174756 422.9983452590207)">
        <path d="M42.8 -62.5C61.5 -35.3 86.9 -27.6 95.2 -12.1C103.4 3.3 94.6 26.4 87.8 62.4C81 98.5 76.2 147.4 49.1 174.4C22 201.4 -27.5 206.4 -60.5 185.9C-93.4 165.3 -109.9 119.1 -128.1 78.4C-146.3 37.7 -166.2 2.5 -157.2 -24C-148.1 -50.5 -110 -68.1 -79 -93.2C-48 -118.2 -24 -150.6 -6 -143.5C12.1 -136.4 24.1 -89.7 42.8 -62.5" fill="#f4d700"></path>
    </g>
</svg>