<svg id="visual" viewBox="0 0 450 900" width="450" height="900" xmlns="http://www.w3.org/2000/svg" xmlns:xlink="http://www.w3.org/1999/xlink" version="1.1"><g transform="translate(224.66567527087864 449.8583420624072)"><path d="M71.4 -99.3C94.4 -65.8 116.1 -45.1 125.7 -18.1C135.2 8.8 132.6 41.9 118.7 71C104.8 100.1 79.8 125.2 46.3 145.2C12.9 165.1 -29 179.8 -62.8 169C-96.6 158.2 -122.3 121.8 -128.9 86.2C-135.5 50.5 -122.9 15.5 -104.2 -5.9C-85.6 -27.3 -60.9 -35.2 -42.5 -69.5C-24.1 -103.7 -12.1 -164.4 6.1 -171.6C24.2 -178.9 48.4 -132.7 71.4 -99.3" fill="#f4d700"></path></g></svg>