<svg id="visual" viewBox="0 0 450 900" width="450" height="900" xmlns="http://www.w3.org/2000/svg" xmlns:xlink="http://www.w3.org/1999/xlink" version="1.1"><g transform="translate(209.95129641086874 425.19640967028124)"><path d="M62.2 -92.8C74.7 -63.6 74.8 -38.4 81.5 -12.5C88.3 13.4 101.7 39.9 102.1 77.4C102.4 114.8 89.7 163.1 58.5 185.1C27.2 207 -22.5 202.7 -47.7 174.6C-72.9 146.5 -73.7 94.8 -70.9 60.1C-68.1 25.4 -61.8 7.8 -56.4 -7.8C-51.1 -23.4 -46.8 -37 -37.5 -66.7C-28.3 -96.4 -14.1 -142.2 5.4 -148.6C24.9 -155 49.7 -121.9 62.2 -92.8" fill="#f4d700"></path></g></svg>