<svg id="visual" viewBox="0 0 450 900" width="450" height="900" xmlns="http://www.w3.org/2000/svg" xmlns:xlink="http://www.w3.org/1999/xlink" version="1.1">
    <g transform="translate(205.75728565428167 451.6254099379898)">
        <path d="M108.9 -120.6C145.9 -98.8 183.7 -68.9 184.3 -36.7C185 -4.5 148.3 30 121.7 64.7C95 99.4 78.3 134.3 52.2 144C26.1 153.8 -9.3 138.4 -27.7 114.9C-46.1 91.4 -47.4 59.8 -71.6 33.7C-95.8 7.6 -143 -13 -145.7 -30.5C-148.4 -48.1 -106.6 -62.8 -75 -85.5C-43.3 -108.2 -21.6 -139.1 7.2 -147.7C36 -156.2 72 -142.5 108.9 -120.6" fill="#f4d700"></path>
    </g>
</svg>