<svg id="visual" viewBox="0 0 450 900" width="450" height="900" xmlns="http://www.w3.org/2000/svg" xmlns:xlink="http://www.w3.org/1999/xlink" version="1.1">
    <g transform="translate(216.09617955610997 436.978792483486)">
        <path d="M111.1 -127.1C140.8 -107.5 159.5 -69.5 163.6 -31.1C167.6 7.2 157 45.9 137.3 78.5C117.5 111.1 88.7 137.8 51.5 158.8C14.4 179.8 -31.1 195.1 -49.2 172.4C-67.3 149.7 -58 88.9 -71.5 49.2C-85 9.5 -121.3 -9.1 -137.3 -42.6C-153.3 -76 -148.9 -124.2 -122.7 -144.4C-96.4 -164.6 -48.2 -156.8 -3.7 -152.3C40.7 -147.8 81.4 -146.7 111.1 -127.1" fill="#f4d700"></path>
    </g>
</svg>