<svg id="visual" viewBox="0 0 450 900" width="450" height="900" xmlns="http://www.w3.org/2000/svg" xmlns:xlink="http://www.w3.org/1999/xlink" version="1.1"><g fill="#A7233A"><circle r="12" cx="99" cy="388"></circle><circle r="1" cx="386" cy="787"></circle><circle r="3" cx="356" cy="246"></circle><circle r="3" cx="195" cy="361"></circle><circle r="1" cx="6" cy="280"></circle><circle r="2" cx="150" cy="821"></circle><circle r="6" cx="181" cy="458"></circle><circle r="1" cx="163" cy="259"></circle><circle r="2" cx="24" cy="594"></circle><circle r="7" cx="275" cy="881"></circle><circle r="3" cx="134" cy="529"></circle><circle r="8" cx="115" cy="185"></circle><circle r="7" cx="32" cy="331"></circle><circle r="4" cx="184" cy="725"></circle><circle r="3" cx="71" cy="621"></circle><circle r="10" cx="411" cy="815"></circle><circle r="8" cx="173" cy="2"></circle><circle r="0" cx="161" cy="160"></circle><circle r="5" cx="420" cy="724"></circle><circle r="2" cx="104" cy="621"></circle><circle r="1" cx="198" cy="800"></circle><circle r="2" cx="79" cy="867"></circle><circle r="2" cx="46" cy="295"></circle><circle r="6" cx="2" cy="662"></circle><circle r="0" cx="371" cy="495"></circle><circle r="6" cx="317" cy="473"></circle><circle r="3" cx="94" cy="271"></circle><circle r="9" cx="42" cy="225"></circle><circle r="1" cx="166" cy="80"></circle><circle r="6" cx="52" cy="835"></circle><circle r="5" cx="81" cy="331"></circle><circle r="0" cx="69" cy="395"></circle><circle r="6" cx="385" cy="565"></circle><circle r="4" cx="223" cy="268"></circle><circle r="7" cx="40" cy="544"></circle><circle r="10" cx="303" cy="809"></circle><circle r="8" cx="156" cy="599"></circle><circle r="0" cx="200" cy="423"></circle><circle r="9" cx="228" cy="494"></circle><circle r="2" cx="113" cy="343"></circle><circle r="1" cx="93" cy="765"></circle><circle r="5" cx="410" cy="192"></circle><circle r="0" cx="259" cy="708"></circle><circle r="2" cx="71" cy="8"></circle><circle r="3" cx="57" cy="800"></circle><circle r="8" cx="235" cy="600"></circle><circle r="10" cx="84" cy="448"></circle><circle r="9" cx="235" cy="405"></circle><circle r="7" cx="242" cy="736"></circle><circle r="6" cx="262" cy="432"></circle><circle r="5" cx="217" cy="168"></circle><circle r="8" cx="187" cy="96"></circle><circle r="4" cx="147" cy="47"></circle><circle r="0" cx="433" cy="170"></circle><circle r="2" cx="47" cy="880"></circle><circle r="10" cx="406" cy="393"></circle><circle r="9" cx="406" cy="269"></circle><circle r="0" cx="10" cy="57"></circle><circle r="9" cx="132" cy="587"></circle><circle r="2" cx="128" cy="392"></circle><circle r="7" cx="235" cy="5"></circle><circle r="9" cx="205" cy="744"></circle><circle r="7" cx="67" cy="547"></circle><circle r="2" cx="167" cy="187"></circle><circle r="10" cx="268" cy="780"></circle><circle r="4" cx="285" cy="647"></circle><circle r="10" cx="346" cy="790"></circle><circle r="2" cx="21" cy="760"></circle><circle r="7" cx="448" cy="552"></circle><circle r="6" cx="348" cy="119"></circle><circle r="0" cx="276" cy="333"></circle><circle r="9" cx="159" cy="433"></circle><circle r="1" cx="449" cy="322"></circle><circle r="9" cx="424" cy="456"></circle><circle r="1" cx="403" cy="492"></circle><circle r="5" cx="7" cy="393"></circle><circle r="0" cx="79" cy="483"></circle><circle r="0" cx="430" cy="604"></circle><circle r="9" cx="306" cy="734"></circle><circle r="2" cx="338" cy="440"></circle><circle r="4" cx="12" cy="471"></circle><circle r="8" cx="225" cy="532"></circle><circle r="8" cx="11" cy="186"></circle><circle r="8" cx="315" cy="771"></circle><circle r="9" cx="18" cy="494"></circle><circle r="4" cx="331" cy="831"></circle><circle r="4" cx="184" cy="851"></circle><circle r="1" cx="186" cy="264"></circle><circle r="10" cx="49" cy="646"></circle><circle r="3" cx="237" cy="323"></circle><circle r="6" cx="11" cy="570"></circle><circle r="4" cx="305" cy="297"></circle><circle r="8" cx="209" cy="342"></circle><circle r="7" cx="304" cy="41"></circle><circle r="5" cx="442" cy="218"></circle><circle r="10" cx="367" cy="645"></circle><circle r="7" cx="172" cy="562"></circle><circle r="0" cx="83" cy="217"></circle><circle r="2" cx="356" cy="585"></circle><circle r="4" cx="379" cy="598"></circle><circle r="8" cx="138" cy="494"></circle><circle r="6" cx="288" cy="7"></circle><circle r="8" cx="285" cy="522"></circle><circle r="2" cx="382" cy="444"></circle><circle r="3" cx="54" cy="721"></circle><circle r="4" cx="409" cy="688"></circle><circle r="0" cx="220" cy="212"></circle><circle r="6" cx="142" cy="284"></circle><circle r="1" cx="424" cy="544"></circle><circle r="10" cx="35" cy="851"></circle><circle r="2" cx="98" cy="840"></circle><circle r="1" cx="346" cy="376"></circle><circle r="1" cx="64" cy="279"></circle><circle r="5" cx="429" cy="117"></circle><circle r="0" cx="346" cy="292"></circle><circle r="1" cx="168" cy="227"></circle><circle r="1" cx="119" cy="864"></circle><circle r="3" cx="167" cy="773"></circle><circle r="5" cx="301" cy="697"></circle><circle r="2" cx="340" cy="210"></circle><circle r="5" cx="283" cy="192"></circle><circle r="9" cx="306" cy="107"></circle><circle r="5" cx="153" cy="305"></circle><circle r="7" cx="52" cy="161"></circle><circle r="6" cx="78" cy="47"></circle><circle r="0" cx="325" cy="185"></circle><circle r="8" cx="315" cy="62"></circle><circle r="1" cx="333" cy="25"></circle><circle r="3" cx="236" cy="660"></circle><circle r="7" cx="84" cy="704"></circle><circle r="5" cx="187" cy="126"></circle><circle r="10" cx="433" cy="370"></circle><circle r="9" cx="367" cy="300"></circle><circle r="8" cx="28" cy="154"></circle><circle r="3" cx="404" cy="867"></circle><circle r="6" cx="312" cy="894"></circle><circle r="1" cx="218" cy="695"></circle><circle r="5" cx="342" cy="862"></circle><circle r="6" cx="246" cy="372"></circle><circle r="10" cx="234" cy="65"></circle><circle r="7" cx="433" cy="76"></circle><circle r="1" cx="98" cy="666"></circle><circle r="6" cx="226" cy="559"></circle><circle r="7" cx="228" cy="786"></circle><circle r="1" cx="3" cy="230"></circle><circle r="0" cx="237" cy="709"></circle><circle r="1" cx="27" cy="654"></circle><circle r="9" cx="147" cy="866"></circle><circle r="7" cx="188" cy="649"></circle><circle r="6" cx="47" cy="31"></circle><circle r="0" cx="409" cy="240"></circle><circle r="5" cx="249" cy="118"></circle><circle r="10" cx="336" cy="149"></circle><circle r="5" cx="435" cy="241"></circle><circle r="2" cx="90" cy="730"></circle><circle r="10" cx="309" cy="525"></circle><circle r="3" cx="90" cy="185"></circle><circle r="2" cx="233" cy="150"></circle><circle r="9" cx="364" cy="69"></circle><circle r="9" cx="393" cy="309"></circle><circle r="7" cx="30" cy="446"></circle><circle r="10" cx="188" cy="497"></circle><circle r="9" cx="299" cy="345"></circle><circle r="9" cx="263" cy="528"></circle><circle r="9" cx="107" cy="152"></circle><circle r="9" cx="335" cy="730"></circle><circle r="1" cx="76" cy="163"></circle><circle r="10" cx="79" cy="579"></circle><circle r="2" cx="299" cy="132"></circle><circle r="7" cx="51" cy="602"></circle><circle r="4" cx="94" cy="427"></circle><circle r="7" cx="255" cy="759"></circle><circle r="8" cx="2" cy="341"></circle><circle r="3" cx="117" cy="291"></circle><circle r="1" cx="300" cy="384"></circle><circle r="4" cx="311" cy="501"></circle><circle r="0" cx="314" cy="211"></circle><circle r="6" cx="149" cy="894"></circle><circle r="3" cx="66" cy="195"></circle><circle r="9" cx="425" cy="421"></circle><circle r="5" cx="300" cy="425"></circle><circle r="0" cx="421" cy="570"></circle><circle r="6" cx="17" cy="787"></circle><circle r="7" cx="117" cy="735"></circle><circle r="8" cx="191" cy="200"></circle><circle r="4" cx="326" cy="629"></circle><circle r="5" cx="57" cy="128"></circle><circle r="7" cx="421" cy="635"></circle><circle r="6" cx="417" cy="898"></circle><circle r="7" cx="405" cy="664"></circle><circle r="10" cx="204" cy="601"></circle><circle r="2" cx="444" cy="17"></circle><circle r="1" cx="269" cy="679"></circle><circle r="2" cx="356" cy="526"></circle><circle r="2" cx="45" cy="417"></circle><circle r="2" cx="282" cy="366"></circle><circle r="3" cx="206" cy="384"></circle><circle r="0" cx="202" cy="833"></circle><circle r="6" cx="437" cy="513"></circle><circle r="4" cx="411" cy="73"></circle><circle r="2" cx="9" cy="634"></circle><circle r="6" cx="386" cy="228"></circle><circle r="3" cx="174" cy="629"></circle><circle r="4" cx="102" cy="80"></circle><circle r="7" cx="30" cy="10"></circle><circle r="7" cx="59" cy="677"></circle><circle r="4" cx="339" cy="336"></circle><circle r="9" cx="118" cy="782"></circle><circle r="3" cx="274" cy="597"></circle><circle r="5" cx="372" cy="19"></circle><circle r="7" cx="21" cy="830"></circle><circle r="7" cx="441" cy="884"></circle><circle r="2" cx="366" cy="672"></circle><circle r="2" cx="213" cy="720"></circle><circle r="10" cx="305" cy="837"></circle><circle r="5" cx="407" cy="48"></circle><circle r="1" cx="196" cy="316"></circle><circle r="2" cx="228" cy="865"></circle><circle r="2" cx="203" cy="44"></circle><circle r="2" cx="225" cy="761"></circle><circle r="6" cx="162" cy="121"></circle><circle r="9" cx="147" cy="240"></circle><circle r="8" cx="254" cy="460"></circle><circle r="3" cx="215" cy="448"></circle><circle r="8" cx="97" cy="894"></circle><circle r="5" cx="394" cy="140"></circle><circle r="1" cx="267" cy="857"></circle><circle r="7" cx="38" cy="742"></circle><circle r="2" cx="127" cy="818"></circle><circle r="4" cx="256" cy="92"></circle><circle r="1" cx="448" cy="742"></circle><circle r="4" cx="260" cy="619"></circle><circle r="0" cx="376" cy="120"></circle><circle r="4" cx="280" cy="278"></circle><circle r="6" cx="278" cy="557"></circle><circle r="0" cx="33" cy="354"></circle><circle r="5" cx="370" cy="876"></circle><circle r="2" cx="100" cy="566"></circle><circle r="8" cx="113" cy="114"></circle><circle r="10" cx="442" cy="707"></circle><circle r="3" cx="142" cy="713"></circle><circle r="1" cx="23" cy="882"></circle><circle r="1" cx="243" cy="188"></circle><circle r="4" cx="319" cy="271"></circle><circle r="1" cx="251" cy="298"></circle><circle r="7" cx="376" cy="182"></circle><circle r="7" cx="165" cy="328"></circle><circle r="5" cx="65" cy="312"></circle><circle r="1" cx="342" cy="467"></circle><circle r="10" cx="401" cy="542"></circle><circle r="10" cx="361" cy="838"></circle><circle r="8" cx="329" cy="574"></circle><circle r="1" cx="109" cy="29"></circle><circle r="0" cx="342" cy="757"></circle><circle r="3" cx="287" cy="472"></circle><circle r="4" cx="102" cy="502"></circle><circle r="0" cx="294" cy="236"></circle><circle r="5" cx="178" cy="56"></circle><circle r="7" cx="430" cy="784"></circle><circle r="2" cx="273" cy="739"></circle><circle r="7" cx="332" cy="601"></circle><circle r="3" cx="277" cy="450"></circle><circle r="5" cx="123" cy="634"></circle><circle r="3" cx="170" cy="282"></circle><circle r="5" cx="51" cy="464"></circle><circle r="2" cx="380" cy="414"></circle><circle r="8" cx="116" cy="446"></circle><circle r="3" cx="222" cy="29"></circle><circle r="6" cx="105" cy="231"></circle><circle r="10" cx="381" cy="753"></circle><circle r="4" cx="228" cy="296"></circle><circle r="5" cx="21" cy="688"></circle><circle r="10" cx="139" cy="208"></circle><circle r="6" cx="15" cy="517"></circle><circle r="2" cx="154" cy="352"></circle><circle r="6" cx="77" cy="811"></circle><circle r="3" cx="421" cy="757"></circle><circle r="4" cx="386" cy="624"></circle><circle r="9" cx="154" cy="650"></circle><circle r="0" cx="448" cy="42"></circle><circle r="9" cx="26" cy="129"></circle><circle r="0" cx="244" cy="637"></circle><circle r="9" cx="130" cy="86"></circle><circle r="10" cx="347" cy="490"></circle><circle r="2" cx="248" cy="220"></circle><circle r="8" cx="371" cy="471"></circle><circle r="1" cx="353" cy="562"></circle><circle r="7" cx="420" cy="335"></circle><circle r="10" cx="135" cy="322"></circle><circle r="7" cx="365" cy="363"></circle><circle r="4" cx="56" cy="515"></circle><circle r="3" cx="425" cy="841"></circle><circle r="1" cx="268" cy="237"></circle><circle r="1" cx="247" cy="569"></circle><circle r="3" cx="45" cy="775"></circle><circle r="1" cx="323" cy="385"></circle><circle r="3" cx="205" cy="544"></circle><circle r="0" cx="74" cy="81"></circle><circle r="6" cx="362" cy="396"></circle><circle r="2" cx="208" cy="68"></circle><circle r="10" cx="32" cy="84"></circle><circle r="3" cx="124" cy="671"></circle><circle r="5" cx="256" cy="816"></circle><circle r="3" cx="384" cy="712"></circle><circle r="6" cx="361" cy="98"></circle><circle r="8" cx="173" cy="816"></circle><circle r="6" cx="331" cy="85"></circle><circle r="5" cx="369" cy="802"></circle><circle r="9" cx="29" cy="266"></circle><circle r="2" cx="39" cy="184"></circle><circle r="9" cx="212" cy="653"></circle><circle r="7" cx="198" cy="290"></circle><circle r="5" cx="280" cy="49"></circle><circle r="3" cx="156" cy="751"></circle><circle r="8" cx="438" cy="682"></circle><circle r="2" cx="10" cy="253"></circle><circle r="7" cx="88" cy="125"></circle><circle r="4" cx="147" cy="794"></circle><circle r="1" cx="94" cy="361"></circle><circle r="1" cx="439" cy="813"></circle><circle r="4" cx="305" cy="667"></circle><circle r="8" cx="53" cy="253"></circle><circle r="4" cx="333" cy="414"></circle><circle r="6" cx="228" cy="817"></circle><circle r="1" cx="269" cy="150"></circle><circle r="2" cx="446" cy="345"></circle><circle r="4" cx="303" cy="568"></circle><circle r="10" cx="150" cy="397"></circle><circle r="7" cx="202" cy="237"></circle><circle r="1" cx="360" cy="323"></circle><circle r="0" cx="207" cy="11"></circle><circle r="7" cx="327" cy="312"></circle><circle r="3" cx="292" cy="614"></circle><circle r="7" cx="3" cy="140"></circle><circle r="6" cx="130" cy="467"></circle><circle r="7" cx="248" cy="26"></circle><circle r="0" cx="366" cy="212"></circle><circle r="7" cx="276" cy="104"></circle><circle r="7" cx="33" cy="572"></circle><circle r="7" cx="449" cy="106"></circle><circle r="0" cx="348" cy="47"></circle><circle r="4" cx="21" cy="420"></circle><circle r="1" cx="214" cy="888"></circle><circle r="5" cx="432" cy="142"></circle><circle r="5" cx="173" cy="679"></circle><circle r="8" cx="332" cy="248"></circle><circle r="8" cx="283" cy="83"></circle><circle r="5" cx="150" cy="19"></circle><circle r="1" cx="84" cy="248"></circle><circle r="0" cx="248" cy="272"></circle><circle r="7" cx="363" cy="769"></circle><circle r="0" cx="123" cy="895"></circle><circle r="1" cx="413" cy="20"></circle><circle r="6" cx="335" cy="896"></circle><circle r="10" cx="255" cy="507"></circle><circle r="9" cx="61" cy="105"></circle><circle r="6" cx="62" cy="750"></circle><circle r="9" cx="25" cy="209"></circle><circle r="1" cx="150" cy="571"></circle><circle r="9" cx="327" cy="659"></circle><circle r="3" cx="174" cy="524"></circle><circle r="8" cx="190" cy="577"></circle><circle r="2" cx="137" cy="148"></circle><circle r="6" cx="199" cy="517"></circle><circle r="4" cx="368" cy="267"></circle><circle r="1" cx="385" cy="845"></circle><circle r="1" cx="106" cy="694"></circle><circle r="1" cx="396" cy="368"></circle><circle r="7" cx="382" cy="529"></circle><circle r="3" cx="20" cy="105"></circle><circle r="7" cx="246" cy="892"></circle><circle r="1" cx="96" cy="793"></circle><circle r="7" cx="40" cy="387"></circle><circle r="8" cx="292" cy="861"></circle><circle r="2" cx="93" cy="543"></circle><circle r="2" cx="62" cy="369"></circle><circle r="3" cx="406" cy="441"></circle><circle r="8" cx="444" cy="435"></circle><circle r="7" cx="14" cy="307"></circle><circle r="5" cx="445" cy="490"></circle><circle r="4" cx="434" cy="296"></circle><circle r="3" cx="139" cy="177"></circle><circle r="7" cx="85" cy="646"></circle><circle r="4" cx="209" cy="107"></circle><circle r="2" cx="239" cy="246"></circle><circle r="10" cx="359" cy="716"></circle><circle r="8" cx="401" cy="99"></circle><circle r="2" cx="118" cy="370"></circle><circle r="7" cx="176" cy="415"></circle><circle r="5" cx="127" cy="554"></circle><circle r="5" cx="444" cy="408"></circle><circle r="8" cx="56" cy="490"></circle><circle r="6" cx="190" cy="766"></circle><circle r="4" cx="130" cy="612"></circle><circle r="8" cx="292" cy="765"></circle><circle r="10" cx="302" cy="165"></circle><circle r="7" cx="68" cy="420"></circle><circle r="6" cx="350" cy="173"></circle><circle r="10" cx="448" cy="268"></circle><circle r="10" cx="364" cy="616"></circle><circle r="6" cx="186" cy="173"></circle><circle r="1" cx="96" cy="597"></circle><circle r="5" cx="317" cy="867"></circle><circle r="3" cx="391" cy="895"></circle><circle r="1" cx="276" cy="395"></circle><circle r="9" cx="91" cy="304"></circle><circle r="5" cx="123" cy="246"></circle><circle r="1" cx="163" cy="493"></circle><circle r="7" cx="135" cy="842"></circle><circle r="0" cx="242" cy="682"></circle><circle r="5" cx="345" cy="2"></circle><circle r="8" cx="327" cy="808"></circle><circle r="6" cx="172" cy="888"></circle><circle r="6" cx="116" cy="417"></circle><circle r="1" cx="370" cy="148"></circle><circle r="10" cx="3" cy="807"></circle><circle r="8" cx="49" cy="60"></circle><circle r="4" cx="12" cy="726"></circle><circle r="9" cx="194" cy="696"></circle><circle r="2" cx="9" cy="864"></circle><circle r="2" cx="200" cy="148"></circle><circle r="1" cx="179" cy="384"></circle><circle r="0" cx="274" cy="834"></circle><circle r="0" cx="360" cy="897"></circle><circle r="6" cx="176" cy="304"></circle><circle r="0" cx="399" cy="584"></circle><circle r="7" cx="105" cy="468"></circle><circle r="9" cx="237" cy="839"></circle><circle r="2" cx="447" cy="188"></circle><circle r="3" cx="32" cy="808"></circle><circle r="4" cx="320" cy="711"></circle><circle r="10" cx="326" cy="544"></circle><circle r="3" cx="120" cy="6"></circle><circle r="4" cx="389" cy="34"></circle><circle r="2" cx="322" cy="4"></circle><circle r="3" cx="262" cy="654"></circle><circle r="9" cx="262" cy="67"></circle><circle r="0" cx="232" cy="354"></circle><circle r="2" cx="14" cy="547"></circle><circle r="6" cx="3" cy="23"></circle><circle r="5" cx="199" cy="474"></circle><circle r="4" cx="321" cy="355"></circle><circle r="1" cx="449" cy="839"></circle><circle r="1" cx="344" cy="686"></circle><circle r="3" cx="235" cy="438"></circle><circle r="9" cx="63" cy="345"></circle><circle r="7" cx="387" cy="67"></circle><circle r="6" cx="143" cy="372"></circle><circle r="10" cx="150" cy="101"></circle><circle r="6" cx="279" cy="803"></circle><circle r="1" cx="169" cy="36"></circle><circle r="7" cx="261" cy="482"></circle><circle r="0" cx="41" cy="623"></circle><circle r="9" cx="150" cy="691"></circle><circle r="0" cx="394" cy="164"></circle><circle r="0" cx="390" cy="204"></circle><circle r="6" cx="392" cy="335"></circle><circle r="7" cx="312" cy="446"></circle><circle r="9" cx="218" cy="129"></circle><circle r="0" cx="311" cy="405"></circle><circle r="8" cx="447" cy="640"></circle><circle r="3" cx="2" cy="607"></circle><circle r="1" cx="152" cy="459"></circle><circle r="2" cx="442" cy="579"></circle><circle r="4" cx="152" cy="546"></circle><circle r="8" cx="6" cy="449"></circle><circle r="2" cx="77" cy="506"></circle><circle r="1" cx="213" cy="578"></circle><circle r="1" cx="286" cy="716"></circle><circle r="7" cx="273" cy="215"></circle><circle r="3" cx="9" cy="81"></circle><circle r="10" cx="166" cy="709"></circle><circle r="4" cx="103" cy="57"></circle><circle r="7" cx="280" cy="497"></circle><circle r="8" cx="229" cy="92"></circle><circle r="8" cx="221" cy="621"></circle><circle r="6" cx="262" cy="8"></circle><circle r="1" cx="5" cy="898"></circle><circle r="5" cx="407" cy="608"></circle><circle r="1" cx="257" cy="351"></circle><circle r="3" cx="246" cy="543"></circle><circle r="10" cx="16" cy="371"></circle><circle r="6" cx="413" cy="518"></circle><circle r="9" cx="298" cy="591"></circle><circle r="6" cx="72" cy="893"></circle><circle r="6" cx="180" cy="600"></circle><circle r="6" cx="301" cy="322"></circle><circle r="1" cx="359" cy="424"></circle><circle r="2" cx="335" cy="517"></circle><circle r="7" cx="392" cy="4"></circle><circle r="0" cx="343" cy="268"></circle><circle r="3" cx="199" cy="869"></circle><circle r="5" cx="56" cy="441"></circle><circle r="1" cx="136" cy="121"></circle><circle r="5" cx="200" cy="674"></circle><circle r="10" cx="388" cy="253"></circle><circle r="3" cx="273" cy="307"></circle><circle r="0" cx="116" cy="209"></circle><circle r="0" cx="349" cy="814"></circle><circle r="2" cx="1" cy="703"></circle><circle r="4" cx="95" cy="4"></circle><circle r="0" cx="448" cy="466"></circle><circle r="1" cx="130" cy="759"></circle><circle r="2" cx="388" cy="816"></circle><circle r="3" cx="324" cy="123"></circle><circle r="2" cx="407" cy="776"></circle><circle r="7" cx="57" cy="573"></circle><circle r="0" cx="69" cy="775"></circle><circle r="4" cx="43" cy="700"></circle><circle r="7" cx="2" cy="842"></circle><circle r="1" cx="416" cy="215"></circle><circle r="1" cx="393" cy="464"></circle><circle r="3" cx="160" cy="842"></circle><circle r="6" cx="262" cy="175"></circle><circle r="8" cx="258" cy="409"></circle><circle r="6" cx="110" cy="526"></circle><circle r="10" cx="230" cy="470"></circle><circle r="1" cx="137" cy="433"></circle><circle r="2" cx="100" cy="817"></circle><circle r="5" cx="423" cy="482"></circle><circle r="6" cx="87" cy="100"></circle><circle r="10" cx="430" cy="657"></circle><circle r="6" cx="389" cy="286"></circle><circle r="7" cx="308" cy="84"></circle><circle r="2" cx="359" cy="742"></circle><circle r="3" cx="447" cy="766"></circle><circle r="0" cx="187" cy="22"></circle><circle r="0" cx="295" cy="259"></circle><circle r="10" cx="131" cy="63"></circle><circle r="3" cx="150" cy="624"></circle><circle r="0" cx="321" cy="684"></circle><circle r="4" cx="400" cy="735"></circle><circle r="6" cx="3" cy="163"></circle><circle r="10" cx="416" cy="309"></circle><circle r="4" cx="271" cy="127"></circle></g></svg>