<svg id="visual" viewBox="0 0 450 900" width="450" height="900" xmlns="http://www.w3.org/2000/svg" xmlns:xlink="http://www.w3.org/1999/xlink" version="1.1"><g fill="#A7233A"><circle r="12" cx="100" cy="577"></circle><circle r="1" cx="280" cy="772"></circle><circle r="5" cx="75" cy="206"></circle><circle r="10" cx="298" cy="219"></circle><circle r="8" cx="251" cy="364"></circle><circle r="6" cx="241" cy="46"></circle><circle r="0" cx="363" cy="712"></circle><circle r="8" cx="290" cy="639"></circle><circle r="7" cx="196" cy="229"></circle><circle r="1" cx="120" cy="166"></circle><circle r="6" cx="414" cy="304"></circle><circle r="5" cx="249" cy="820"></circle><circle r="9" cx="295" cy="676"></circle><circle r="2" cx="384" cy="414"></circle><circle r="10" cx="441" cy="226"></circle><circle r="4" cx="242" cy="172"></circle><circle r="6" cx="296" cy="790"></circle><circle r="9" cx="68" cy="889"></circle><circle r="2" cx="342" cy="60"></circle><circle r="9" cx="106" cy="442"></circle><circle r="9" cx="244" cy="452"></circle><circle r="0" cx="352" cy="857"></circle><circle r="7" cx="191" cy="52"></circle><circle r="1" cx="199" cy="744"></circle><circle r="5" cx="102" cy="727"></circle><circle r="6" cx="155" cy="344"></circle><circle r="3" cx="227" cy="640"></circle><circle r="1" cx="189" cy="498"></circle><circle r="0" cx="302" cy="540"></circle><circle r="7" cx="221" cy="778"></circle><circle r="6" cx="19" cy="587"></circle><circle r="0" cx="166" cy="36"></circle><circle r="4" cx="419" cy="140"></circle><circle r="4" cx="103" cy="111"></circle><circle r="1" cx="210" cy="451"></circle><circle r="4" cx="269" cy="70"></circle><circle r="7" cx="295" cy="79"></circle><circle r="3" cx="321" cy="291"></circle><circle r="5" cx="409" cy="769"></circle><circle r="6" cx="438" cy="312"></circle><circle r="0" cx="105" cy="59"></circle><circle r="9" cx="158" cy="854"></circle><circle r="5" cx="110" cy="223"></circle><circle r="10" cx="69" cy="801"></circle><circle r="9" cx="331" cy="720"></circle><circle r="10" cx="33" cy="79"></circle><circle r="10" cx="314" cy="890"></circle><circle r="9" cx="38" cy="411"></circle><circle r="6" cx="138" cy="319"></circle><circle r="6" cx="387" cy="77"></circle><circle r="1" cx="358" cy="600"></circle><circle r="3" cx="305" cy="734"></circle><circle r="9" cx="203" cy="164"></circle><circle r="0" cx="375" cy="625"></circle><circle r="9" cx="63" cy="451"></circle><circle r="5" cx="176" cy="778"></circle><circle r="7" cx="145" cy="220"></circle><circle r="10" cx="391" cy="749"></circle><circle r="7" cx="260" cy="132"></circle><circle r="6" cx="329" cy="349"></circle><circle r="6" cx="279" cy="200"></circle><circle r="3" cx="256" cy="305"></circle><circle r="1" cx="168" cy="706"></circle><circle r="9" cx="388" cy="271"></circle><circle r="5" cx="319" cy="118"></circle><circle r="1" cx="179" cy="581"></circle><circle r="6" cx="204" cy="644"></circle><circle r="10" cx="103" cy="13"></circle><circle r="1" cx="432" cy="23"></circle><circle r="1" cx="183" cy="662"></circle><circle r="9" cx="427" cy="829"></circle><circle r="6" cx="397" cy="360"></circle><circle r="0" cx="349" cy="816"></circle><circle r="9" cx="183" cy="21"></circle><circle r="2" cx="54" cy="143"></circle><circle r="9" cx="139" cy="810"></circle><circle r="8" cx="205" cy="281"></circle><circle r="5" cx="164" cy="2"></circle><circle r="0" cx="52" cy="325"></circle><circle r="6" cx="88" cy="250"></circle><circle r="8" cx="420" cy="249"></circle><circle r="7" cx="275" cy="400"></circle><circle r="7" cx="271" cy="617"></circle><circle r="3" cx="306" cy="362"></circle><circle r="2" cx="417" cy="274"></circle><circle r="2" cx="233" cy="508"></circle><circle r="7" cx="318" cy="682"></circle><circle r="2" cx="130" cy="250"></circle><circle r="8" cx="226" cy="140"></circle><circle r="3" cx="113" cy="323"></circle><circle r="6" cx="355" cy="550"></circle><circle r="1" cx="15" cy="157"></circle><circle r="1" cx="379" cy="295"></circle><circle r="4" cx="126" cy="533"></circle><circle r="6" cx="297" cy="584"></circle><circle r="9" cx="104" cy="282"></circle><circle r="7" cx="127" cy="401"></circle><circle r="9" cx="111" cy="188"></circle><circle r="1" cx="17" cy="690"></circle><circle r="0" cx="23" cy="565"></circle><circle r="7" cx="165" cy="829"></circle><circle r="8" cx="282" cy="289"></circle><circle r="3" cx="98" cy="680"></circle><circle r="10" cx="412" cy="473"></circle><circle r="6" cx="353" cy="312"></circle><circle r="7" cx="133" cy="75"></circle><circle r="8" cx="50" cy="614"></circle><circle r="8" cx="339" cy="223"></circle><circle r="4" cx="412" cy="895"></circle><circle r="0" cx="75" cy="328"></circle><circle r="4" cx="384" cy="493"></circle><circle r="2" cx="115" cy="784"></circle><circle r="3" cx="281" cy="121"></circle><circle r="9" cx="256" cy="684"></circle><circle r="2" cx="310" cy="261"></circle><circle r="4" cx="424" cy="719"></circle><circle r="5" cx="243" cy="621"></circle><circle r="5" cx="310" cy="322"></circle><circle r="6" cx="446" cy="506"></circle><circle r="3" cx="447" cy="712"></circle><circle r="9" cx="178" cy="265"></circle><circle r="3" cx="205" cy="422"></circle><circle r="8" cx="270" cy="897"></circle><circle r="3" cx="422" cy="409"></circle><circle r="2" cx="249" cy="227"></circle><circle r="10" cx="164" cy="426"></circle><circle r="2" cx="154" cy="298"></circle><circle r="4" cx="249" cy="414"></circle><circle r="6" cx="37" cy="805"></circle><circle r="4" cx="204" cy="330"></circle><circle r="9" cx="4" cy="610"></circle><circle r="10" cx="383" cy="195"></circle><circle r="10" cx="386" cy="887"></circle><circle r="7" cx="439" cy="122"></circle><circle r="8" cx="403" cy="385"></circle><circle r="1" cx="63" cy="663"></circle><circle r="1" cx="40" cy="849"></circle><circle r="2" cx="7" cy="128"></circle><circle r="4" cx="94" cy="341"></circle><circle r="7" cx="245" cy="337"></circle><circle r="9" cx="204" cy="800"></circle><circle r="6" cx="107" cy="603"></circle><circle r="7" cx="81" cy="142"></circle><circle r="3" cx="416" cy="692"></circle><circle r="6" cx="41" cy="164"></circle><circle r="3" cx="171" cy="751"></circle><circle r="2" cx="41" cy="767"></circle><circle r="10" cx="251" cy="2"></circle><circle r="5" cx="145" cy="553"></circle><circle r="8" cx="325" cy="480"></circle><circle r="10" cx="256" cy="783"></circle><circle r="6" cx="414" cy="87"></circle><circle r="10" cx="284" cy="449"></circle><circle r="5" cx="166" cy="140"></circle><circle r="8" cx="379" cy="537"></circle><circle r="10" cx="375" cy="445"></circle><circle r="1" cx="356" cy="202"></circle><circle r="6" cx="320" cy="846"></circle><circle r="10" cx="336" cy="409"></circle><circle r="6" cx="22" cy="535"></circle><circle r="0" cx="169" cy="452"></circle><circle r="9" cx="385" cy="777"></circle><circle r="10" cx="136" cy="599"></circle><circle r="8" cx="252" cy="526"></circle><circle r="8" cx="275" cy="525"></circle><circle r="0" cx="79" cy="31"></circle><circle r="10" cx="415" cy="803"></circle><circle r="1" cx="6" cy="809"></circle><circle r="0" cx="354" cy="500"></circle><circle r="7" cx="16" cy="302"></circle><circle r="4" cx="436" cy="159"></circle><circle r="3" cx="191" cy="547"></circle><circle r="9" cx="113" cy="827"></circle><circle r="9" cx="288" cy="36"></circle><circle r="7" cx="202" cy="608"></circle><circle r="10" cx="176" cy="406"></circle><circle r="0" cx="341" cy="94"></circle><circle r="7" cx="348" cy="430"></circle><circle r="9" cx="270" cy="165"></circle><circle r="1" cx="138" cy="7"></circle><circle r="1" cx="6" cy="733"></circle><circle r="5" cx="308" cy="510"></circle><circle r="10" cx="300" cy="866"></circle><circle r="9" cx="166" cy="637"></circle><circle r="10" cx="134" cy="111"></circle><circle r="2" cx="278" cy="743"></circle><circle r="0" cx="43" cy="696"></circle><circle r="0" cx="214" cy="355"></circle><circle r="1" cx="354" cy="282"></circle><circle r="4" cx="282" cy="703"></circle><circle r="3" cx="261" cy="591"></circle><circle r="1" cx="75" cy="55"></circle><circle r="0" cx="220" cy="387"></circle><circle r="8" cx="442" cy="362"></circle><circle r="9" cx="106" cy="475"></circle><circle r="8" cx="17" cy="783"></circle><circle r="6" cx="422" cy="567"></circle><circle r="3" cx="370" cy="50"></circle><circle r="1" cx="39" cy="36"></circle><circle r="10" cx="18" cy="756"></circle><circle r="1" cx="61" cy="725"></circle><circle r="3" cx="224" cy="244"></circle><circle r="1" cx="405" cy="20"></circle><circle r="8" cx="369" cy="124"></circle><circle r="9" cx="319" cy="198"></circle><circle r="4" cx="291" cy="834"></circle><circle r="1" cx="279" cy="497"></circle><circle r="2" cx="127" cy="855"></circle><circle r="6" cx="319" cy="163"></circle><circle r="1" cx="410" cy="609"></circle><circle r="0" cx="101" cy="753"></circle><circle r="7" cx="28" cy="878"></circle><circle r="3" cx="440" cy="2"></circle><circle r="4" cx="371" cy="815"></circle><circle r="6" cx="15" cy="356"></circle><circle r="3" cx="341" cy="574"></circle><circle r="4" cx="209" cy="846"></circle><circle r="2" cx="92" cy="423"></circle><circle r="0" cx="254" cy="843"></circle><circle r="6" cx="320" cy="239"></circle><circle r="5" cx="390" cy="851"></circle><circle r="0" cx="106" cy="139"></circle><circle r="6" cx="13" cy="456"></circle><circle r="5" cx="220" cy="29"></circle><circle r="10" cx="446" cy="889"></circle><circle r="8" cx="360" cy="792"></circle><circle r="10" cx="324" cy="545"></circle><circle r="1" cx="250" cy="653"></circle><circle r="7" cx="69" cy="861"></circle><circle r="3" cx="173" cy="193"></circle><circle r="6" cx="69" cy="410"></circle><circle r="10" cx="231" cy="537"></circle><circle r="7" cx="84" cy="557"></circle><circle r="0" cx="191" cy="876"></circle><circle r="9" cx="447" cy="766"></circle><circle r="2" cx="126" cy="424"></circle><circle r="6" cx="448" cy="256"></circle><circle r="10" cx="28" cy="1"></circle><circle r="2" cx="214" cy="63"></circle><circle r="2" cx="379" cy="571"></circle><circle r="1" cx="11" cy="84"></circle><circle r="3" cx="34" cy="279"></circle><circle r="5" cx="131" cy="705"></circle><circle r="4" cx="286" cy="557"></circle><circle r="2" cx="365" cy="383"></circle><circle r="10" cx="133" cy="50"></circle><circle r="1" cx="38" cy="477"></circle><circle r="8" cx="181" cy="108"></circle><circle r="2" cx="138" cy="899"></circle><circle r="8" cx="67" cy="115"></circle><circle r="3" cx="174" cy="477"></circle><circle r="10" cx="391" cy="709"></circle><circle r="1" cx="93" cy="645"></circle><circle r="7" cx="446" cy="611"></circle><circle r="8" cx="273" cy="8"></circle><circle r="9" cx="178" cy="368"></circle><circle r="7" cx="44" cy="645"></circle><circle r="1" cx="16" cy="389"></circle><circle r="4" cx="68" cy="630"></circle><circle r="5" cx="157" cy="113"></circle><circle r="10" cx="362" cy="153"></circle><circle r="7" cx="74" cy="533"></circle><circle r="8" cx="250" cy="275"></circle><circle r="2" cx="71" cy="79"></circle><circle r="6" cx="147" cy="874"></circle><circle r="4" cx="132" cy="769"></circle><circle r="9" cx="8" cy="53"></circle><circle r="8" cx="362" cy="7"></circle><circle r="8" cx="226" cy="580"></circle><circle r="3" cx="44" cy="202"></circle><circle r="8" cx="208" cy="679"></circle><circle r="2" cx="301" cy="477"></circle><circle r="6" cx="70" cy="169"></circle><circle r="0" cx="12" cy="206"></circle><circle r="10" cx="376" cy="319"></circle><circle r="3" cx="435" cy="661"></circle><circle r="9" cx="191" cy="828"></circle><circle r="3" cx="79" cy="382"></circle><circle r="2" cx="52" cy="559"></circle><circle r="2" cx="20" cy="329"></circle><circle r="3" cx="93" cy="844"></circle><circle r="7" cx="385" cy="664"></circle><circle r="6" cx="430" cy="50"></circle><circle r="2" cx="81" cy="304"></circle><circle r="2" cx="233" cy="715"></circle><circle r="0" cx="439" cy="189"></circle><circle r="9" cx="2" cy="846"></circle><circle r="8" cx="417" cy="223"></circle><circle r="10" cx="260" cy="102"></circle><circle r="0" cx="408" cy="169"></circle><circle r="0" cx="387" cy="469"></circle><circle r="10" cx="9" cy="273"></circle><circle r="0" cx="296" cy="12"></circle><circle r="6" cx="208" cy="101"></circle><circle r="0" cx="147" cy="272"></circle><circle r="1" cx="252" cy="741"></circle><circle r="6" cx="251" cy="200"></circle><circle r="6" cx="294" cy="102"></circle><circle r="3" cx="84" cy="489"></circle><circle r="3" cx="161" cy="801"></circle><circle r="5" cx="318" cy="796"></circle><circle r="0" cx="36" cy="512"></circle><circle r="2" cx="54" cy="366"></circle><circle r="1" cx="331" cy="617"></circle><circle r="1" cx="422" cy="746"></circle><circle r="4" cx="374" cy="235"></circle><circle r="2" cx="134" cy="735"></circle><circle r="4" cx="370" cy="345"></circle><circle r="3" cx="280" cy="810"></circle><circle r="6" cx="420" cy="540"></circle><circle r="0" cx="208" cy="186"></circle><circle r="8" cx="163" cy="502"></circle><circle r="0" cx="296" cy="418"></circle><circle r="6" cx="248" cy="572"></circle><circle r="8" cx="353" cy="256"></circle><circle r="3" cx="8" cy="664"></circle><circle r="8" cx="316" cy="68"></circle><circle r="2" cx="188" cy="132"></circle><circle r="2" cx="4" cy="423"></circle><circle r="1" cx="240" cy="866"></circle><circle r="4" cx="150" cy="183"></circle><circle r="2" cx="60" cy="486"></circle><circle r="8" cx="169" cy="231"></circle><circle r="10" cx="412" cy="857"></circle><circle r="1" cx="316" cy="44"></circle><circle r="3" cx="64" cy="833"></circle><circle r="1" cx="448" cy="404"></circle><circle r="2" cx="166" cy="610"></circle><circle r="5" cx="276" cy="361"></circle><circle r="10" cx="256" cy="474"></circle><circle r="5" cx="444" cy="427"></circle><circle r="0" cx="36" cy="674"></circle><circle r="2" cx="59" cy="582"></circle><circle r="1" cx="66" cy="691"></circle><circle r="7" cx="32" cy="229"></circle><circle r="2" cx="82" cy="778"></circle><circle r="10" cx="107" cy="877"></circle><circle r="10" cx="230" cy="806"></circle><circle r="4" cx="139" cy="477"></circle><circle r="1" cx="291" cy="241"></circle><circle r="2" cx="415" cy="497"></circle><circle r="7" cx="403" cy="451"></circle><circle r="3" cx="128" cy="344"></circle><circle r="10" cx="186" cy="301"></circle><circle r="5" cx="57" cy="295"></circle><circle r="2" cx="382" cy="26"></circle><circle r="5" cx="230" cy="317"></circle><circle r="10" cx="341" cy="15"></circle><circle r="0" cx="68" cy="2"></circle><circle r="8" cx="219" cy="5"></circle><circle r="5" cx="228" cy="746"></circle><circle r="3" cx="39" cy="720"></circle><circle r="0" cx="277" cy="660"></circle><circle r="6" cx="6" cy="510"></circle><circle r="2" cx="94" cy="161"></circle><circle r="2" cx="321" cy="640"></circle><circle r="6" cx="53" cy="256"></circle><circle r="1" cx="311" cy="771"></circle><circle r="2" cx="354" cy="745"></circle><circle r="8" cx="259" cy="248"></circle><circle r="6" cx="407" cy="639"></circle><circle r="6" cx="305" cy="392"></circle><circle r="2" cx="10" cy="641"></circle><circle r="1" cx="441" cy="857"></circle><circle r="4" cx="152" cy="374"></circle><circle r="10" cx="234" cy="690"></circle><circle r="1" cx="162" cy="672"></circle><circle r="7" cx="339" cy="381"></circle><circle r="6" cx="342" cy="657"></circle><circle r="7" cx="128" cy="372"></circle><circle r="3" cx="364" cy="87"></circle><circle r="10" cx="397" cy="53"></circle><circle r="10" cx="289" cy="312"></circle><circle r="2" cx="360" cy="686"></circle><circle r="8" cx="327" cy="447"></circle><circle r="10" cx="8" cy="242"></circle><circle r="9" cx="182" cy="343"></circle><circle r="3" cx="170" cy="532"></circle><circle r="1" cx="159" cy="71"></circle><circle r="7" cx="418" cy="344"></circle><circle r="9" cx="122" cy="562"></circle><circle r="5" cx="131" cy="510"></circle><circle r="5" cx="446" cy="340"></circle><circle r="0" cx="409" cy="118"></circle><circle r="9" cx="337" cy="696"></circle><circle r="10" cx="27" cy="827"></circle><circle r="2" cx="10" cy="183"></circle><circle r="2" cx="10" cy="484"></circle><circle r="6" cx="9" cy="896"></circle><circle r="0" cx="430" cy="591"></circle><circle r="0" cx="330" cy="750"></circle><circle r="10" cx="120" cy="653"></circle><circle r="0" cx="449" cy="85"></circle><circle r="3" cx="212" cy="482"></circle><circle r="3" cx="398" cy="584"></circle><circle r="6" cx="65" cy="753"></circle><circle r="5" cx="127" cy="455"></circle><circle r="7" cx="105" cy="36"></circle><circle r="8" cx="247" cy="897"></circle><circle r="7" cx="30" cy="114"></circle><circle r="4" cx="163" cy="894"></circle><circle r="9" cx="117" cy="625"></circle><circle r="5" cx="228" cy="90"></circle><circle r="7" cx="143" cy="640"></circle><circle r="5" cx="364" cy="878"></circle><circle r="6" cx="143" cy="144"></circle><circle r="1" cx="86" cy="614"></circle><circle r="3" cx="351" cy="476"></circle><circle r="2" cx="207" cy="518"></circle><circle r="8" cx="106" cy="384"></circle><circle r="2" cx="418" cy="199"></circle><circle r="5" cx="90" cy="899"></circle><circle r="0" cx="343" cy="125"></circle><circle r="4" cx="447" cy="285"></circle><circle r="3" cx="302" cy="616"></circle><circle r="1" cx="310" cy="818"></circle><circle r="7" cx="15" cy="25"></circle><circle r="6" cx="40" cy="742"></circle><circle r="6" cx="394" cy="335"></circle><circle r="2" cx="440" cy="469"></circle><circle r="6" cx="80" cy="272"></circle><circle r="9" cx="316" cy="570"></circle><circle r="2" cx="273" cy="334"></circle><circle r="2" cx="448" cy="812"></circle><circle r="3" cx="152" cy="406"></circle><circle r="4" cx="399" cy="824"></circle><circle r="10" cx="38" cy="444"></circle><circle r="3" cx="264" cy="868"></circle><circle r="1" cx="365" cy="176"></circle><circle r="9" cx="337" cy="527"></circle><circle r="9" cx="229" cy="294"></circle><circle r="0" cx="446" cy="681"></circle><circle r="5" cx="337" cy="178"></circle><circle r="1" cx="182" cy="727"></circle><circle r="7" cx="209" cy="709"></circle><circle r="3" cx="387" cy="153"></circle><circle r="6" cx="198" cy="80"></circle><circle r="9" cx="305" cy="137"></circle><circle r="1" cx="383" cy="603"></circle><circle r="4" cx="425" cy="380"></circle><circle r="0" cx="135" cy="671"></circle><circle r="4" cx="46" cy="389"></circle><circle r="2" cx="256" cy="715"></circle><circle r="8" cx="45" cy="59"></circle><circle r="1" cx="399" cy="557"></circle><circle r="9" cx="94" cy="703"></circle><circle r="1" cx="227" cy="831"></circle><circle r="3" cx="223" cy="207"></circle><circle r="10" cx="350" cy="770"></circle><circle r="4" cx="103" cy="88"></circle><circle r="5" cx="100" cy="506"></circle><circle r="10" cx="64" cy="226"></circle><circle r="7" cx="256" cy="387"></circle><circle r="6" cx="293" cy="175"></circle><circle r="6" cx="29" cy="624"></circle><circle r="3" cx="4" cy="1"></circle><circle r="3" cx="247" cy="72"></circle><circle r="5" cx="403" cy="518"></circle><circle r="3" cx="328" cy="141"></circle><circle r="8" cx="390" cy="801"></circle><circle r="10" cx="233" cy="472"></circle><circle r="8" cx="197" cy="899"></circle><circle r="7" cx="446" cy="561"></circle><circle r="7" cx="2" cy="105"></circle><circle r="6" cx="432" cy="787"></circle><circle r="2" cx="89" cy="811"></circle><circle r="8" cx="27" cy="255"></circle><circle r="6" cx="367" cy="839"></circle><circle r="1" cx="439" cy="636"></circle><circle r="8" cx="157" cy="586"></circle><circle r="6" cx="269" cy="431"></circle><circle r="6" cx="206" cy="565"></circle><circle r="8" cx="42" cy="898"></circle><circle r="4" cx="201" cy="253"></circle><circle r="8" cx="449" cy="534"></circle><circle r="7" cx="384" cy="101"></circle><circle r="7" cx="169" cy="320"></circle><circle r="3" cx="220" cy="878"></circle><circle r="10" cx="393" cy="219"></circle><circle r="4" cx="63" cy="511"></circle><circle r="9" cx="333" cy="267"></circle><circle r="7" cx="226" cy="116"></circle><circle r="1" cx="396" cy="249"></circle><circle r="1" cx="347" cy="898"></circle><circle r="0" cx="321" cy="595"></circle><circle r="6" cx="374" cy="514"></circle><circle r="4" cx="280" cy="263"></circle><circle r="0" cx="2" cy="548"></circle><circle r="8" cx="338" cy="877"></circle><circle r="2" cx="104" cy="542"></circle><circle r="4" cx="186" cy="688"></circle><circle r="4" cx="273" cy="226"></circle><circle r="6" cx="319" cy="5"></circle><circle r="6" cx="352" cy="629"></circle><circle r="9" cx="312" cy="705"></circle><circle r="4" cx="265" cy="31"></circle><circle r="0" cx="125" cy="294"></circle><circle r="6" cx="199" cy="772"></circle><circle r="8" cx="153" cy="778"></circle><circle r="9" cx="88" cy="228"></circle><circle r="10" cx="193" cy="391"></circle><circle r="6" cx="410" cy="668"></circle><circle r="3" cx="419" cy="432"></circle><circle r="0" cx="87" cy="459"></circle><circle r="3" cx="445" cy="736"></circle><circle r="8" cx="153" cy="248"></circle><circle r="9" cx="31" cy="139"></circle><circle r="2" cx="173" cy="166"></circle><circle r="7" cx="157" cy="729"></circle><circle r="4" cx="231" cy="432"></circle><circle r="3" cx="226" cy="664"></circle><circle r="4" cx="364" cy="650"></circle><circle r="0" cx="52" cy="93"></circle><circle r="4" cx="347" cy="37"></circle><circle r="6" cx="73" cy="352"></circle><circle r="3" cx="140" cy="833"></circle><circle r="6" cx="264" cy="547"></circle><circle r="1" cx="1" cy="869"></circle><circle r="4" cx="183" cy="850"></circle><circle r="5" cx="330" cy="504"></circle><circle r="0" cx="426" cy="518"></circle><circle r="3" cx="316" cy="93"></circle><circle r="8" cx="196" cy="2"></circle><circle r="9" cx="387" cy="2"></circle><circle r="8" cx="359" cy="409"></circle><circle r="5" cx="39" cy="346"></circle><circle r="8" cx="45" cy="534"></circle><circle r="0" cx="208" cy="307"></circle><circle r="0" cx="226" cy="603"></circle><circle r="10" cx="129" cy="204"></circle><circle r="4" cx="194" cy="206"></circle><circle r="0" cx="255" cy="497"></circle><circle r="7" cx="226" cy="270"></circle><circle r="10" cx="4" cy="710"></circle><circle r="5" cx="394" cy="686"></circle><circle r="9" cx="353" cy="362"></circle></g></svg>