<svg id="visual" viewBox="0 0 450 900" width="450" height="900" xmlns="http://www.w3.org/2000/svg" xmlns:xlink="http://www.w3.org/1999/xlink" version="1.1"><g fill="#A7233A"><circle r="12" cx="378" cy="366"></circle><circle r="1" cx="392" cy="688"></circle><circle r="8" cx="12" cy="206"></circle><circle r="8" cx="405" cy="654"></circle><circle r="2" cx="102" cy="495"></circle><circle r="2" cx="184" cy="47"></circle><circle r="2" cx="289" cy="555"></circle><circle r="2" cx="333" cy="432"></circle><circle r="6" cx="439" cy="653"></circle><circle r="6" cx="304" cy="382"></circle><circle r="4" cx="266" cy="646"></circle><circle r="7" cx="107" cy="447"></circle><circle r="7" cx="410" cy="884"></circle><circle r="9" cx="62" cy="497"></circle><circle r="6" cx="241" cy="769"></circle><circle r="9" cx="228" cy="143"></circle><circle r="5" cx="434" cy="735"></circle><circle r="3" cx="349" cy="483"></circle><circle r="10" cx="388" cy="782"></circle><circle r="8" cx="3" cy="884"></circle><circle r="9" cx="404" cy="246"></circle><circle r="5" cx="58" cy="392"></circle><circle r="3" cx="103" cy="850"></circle><circle r="2" cx="444" cy="229"></circle><circle r="4" cx="265" cy="861"></circle><circle r="1" cx="98" cy="718"></circle><circle r="9" cx="293" cy="61"></circle><circle r="3" cx="337" cy="210"></circle><circle r="3" cx="112" cy="78"></circle><circle r="9" cx="117" cy="131"></circle><circle r="5" cx="371" cy="227"></circle><circle r="5" cx="225" cy="42"></circle><circle r="10" cx="447" cy="382"></circle><circle r="3" cx="180" cy="727"></circle><circle r="8" cx="50" cy="251"></circle><circle r="5" cx="427" cy="255"></circle><circle r="3" cx="371" cy="22"></circle><circle r="2" cx="7" cy="841"></circle><circle r="9" cx="43" cy="375"></circle><circle r="6" cx="98" cy="883"></circle><circle r="7" cx="336" cy="594"></circle><circle r="3" cx="443" cy="849"></circle><circle r="9" cx="363" cy="744"></circle><circle r="9" cx="145" cy="724"></circle><circle r="8" cx="430" cy="496"></circle><circle r="3" cx="183" cy="485"></circle><circle r="3" cx="397" cy="68"></circle><circle r="5" cx="409" cy="411"></circle><circle r="5" cx="80" cy="758"></circle><circle r="1" cx="29" cy="467"></circle><circle r="6" cx="30" cy="57"></circle><circle r="10" cx="273" cy="887"></circle><circle r="7" cx="375" cy="49"></circle><circle r="8" cx="333" cy="757"></circle><circle r="7" cx="382" cy="185"></circle><circle r="3" cx="62" cy="105"></circle><circle r="3" cx="88" cy="10"></circle><circle r="2" cx="7" cy="122"></circle><circle r="2" cx="149" cy="504"></circle><circle r="7" cx="255" cy="671"></circle><circle r="2" cx="173" cy="515"></circle><circle r="3" cx="364" cy="702"></circle><circle r="5" cx="87" cy="73"></circle><circle r="3" cx="352" cy="335"></circle><circle r="9" cx="262" cy="396"></circle><circle r="2" cx="178" cy="378"></circle><circle r="8" cx="122" cy="276"></circle><circle r="1" cx="28" cy="151"></circle><circle r="2" cx="248" cy="171"></circle><circle r="2" cx="342" cy="361"></circle><circle r="1" cx="288" cy="294"></circle><circle r="1" cx="135" cy="606"></circle><circle r="9" cx="375" cy="255"></circle><circle r="5" cx="304" cy="533"></circle><circle r="5" cx="234" cy="867"></circle><circle r="1" cx="180" cy="180"></circle><circle r="7" cx="146" cy="272"></circle><circle r="9" cx="161" cy="48"></circle><circle r="9" cx="335" cy="12"></circle><circle r="3" cx="300" cy="132"></circle><circle r="8" cx="154" cy="832"></circle><circle r="4" cx="307" cy="834"></circle><circle r="0" cx="177" cy="660"></circle><circle r="10" cx="349" cy="398"></circle><circle r="5" cx="251" cy="894"></circle><circle r="2" cx="442" cy="469"></circle><circle r="2" cx="97" cy="107"></circle><circle r="6" cx="342" cy="895"></circle><circle r="0" cx="390" cy="581"></circle><circle r="0" cx="202" cy="420"></circle><circle r="4" cx="211" cy="308"></circle><circle r="8" cx="100" cy="379"></circle><circle r="1" cx="269" cy="506"></circle><circle r="5" cx="17" cy="754"></circle><circle r="4" cx="243" cy="221"></circle><circle r="7" cx="173" cy="609"></circle><circle r="2" cx="199" cy="275"></circle><circle r="0" cx="361" cy="807"></circle><circle r="6" cx="36" cy="806"></circle><circle r="10" cx="240" cy="414"></circle><circle r="3" cx="202" cy="853"></circle><circle r="0" cx="174" cy="73"></circle><circle r="0" cx="45" cy="697"></circle><circle r="9" cx="343" cy="65"></circle><circle r="4" cx="271" cy="139"></circle><circle r="3" cx="282" cy="838"></circle><circle r="2" cx="230" cy="345"></circle><circle r="10" cx="128" cy="861"></circle><circle r="0" cx="421" cy="377"></circle><circle r="5" cx="369" cy="886"></circle><circle r="10" cx="95" cy="178"></circle><circle r="3" cx="194" cy="784"></circle><circle r="0" cx="53" cy="154"></circle><circle r="9" cx="240" cy="549"></circle><circle r="0" cx="42" cy="287"></circle><circle r="0" cx="50" cy="764"></circle><circle r="6" cx="297" cy="319"></circle><circle r="7" cx="213" cy="70"></circle><circle r="0" cx="60" cy="201"></circle><circle r="2" cx="174" cy="103"></circle><circle r="10" cx="159" cy="223"></circle><circle r="6" cx="429" cy="354"></circle><circle r="4" cx="277" cy="754"></circle><circle r="6" cx="186" cy="234"></circle><circle r="6" cx="11" cy="541"></circle><circle r="8" cx="336" cy="710"></circle><circle r="2" cx="392" cy="341"></circle><circle r="0" cx="77" cy="846"></circle><circle r="3" cx="135" cy="666"></circle><circle r="5" cx="189" cy="134"></circle><circle r="9" cx="324" cy="273"></circle><circle r="3" cx="171" cy="421"></circle><circle r="2" cx="149" cy="773"></circle><circle r="1" cx="227" cy="182"></circle><circle r="8" cx="79" cy="463"></circle><circle r="3" cx="350" cy="457"></circle><circle r="10" cx="338" cy="180"></circle><circle r="1" cx="348" cy="521"></circle><circle r="1" cx="286" cy="114"></circle><circle r="10" cx="142" cy="526"></circle><circle r="8" cx="6" cy="158"></circle><circle r="2" cx="139" cy="418"></circle><circle r="8" cx="320" cy="639"></circle><circle r="6" cx="10" cy="726"></circle><circle r="5" cx="299" cy="248"></circle><circle r="7" cx="235" cy="590"></circle><circle r="3" cx="368" cy="314"></circle><circle r="5" cx="218" cy="673"></circle><circle r="5" cx="12" cy="604"></circle><circle r="9" cx="140" cy="482"></circle><circle r="9" cx="245" cy="736"></circle><circle r="10" cx="350" cy="277"></circle><circle r="0" cx="283" cy="591"></circle><circle r="3" cx="410" cy="601"></circle><circle r="2" cx="149" cy="693"></circle><circle r="5" cx="295" cy="412"></circle><circle r="4" cx="123" cy="338"></circle><circle r="4" cx="383" cy="434"></circle><circle r="9" cx="423" cy="823"></circle><circle r="6" cx="365" cy="860"></circle><circle r="1" cx="80" cy="787"></circle><circle r="1" cx="256" cy="444"></circle><circle r="0" cx="159" cy="248"></circle><circle r="9" cx="427" cy="209"></circle><circle r="1" cx="244" cy="26"></circle><circle r="6" cx="201" cy="525"></circle><circle r="4" cx="99" cy="408"></circle><circle r="7" cx="45" cy="428"></circle><circle r="0" cx="203" cy="891"></circle><circle r="3" cx="281" cy="454"></circle><circle r="6" cx="410" cy="555"></circle><circle r="3" cx="13" cy="807"></circle><circle r="9" cx="42" cy="660"></circle><circle r="6" cx="41" cy="175"></circle><circle r="3" cx="52" cy="637"></circle><circle r="10" cx="72" cy="30"></circle><circle r="2" cx="405" cy="447"></circle><circle r="6" cx="426" cy="866"></circle><circle r="3" cx="138" cy="643"></circle><circle r="5" cx="120" cy="155"></circle><circle r="3" cx="381" cy="661"></circle><circle r="0" cx="139" cy="127"></circle><circle r="2" cx="12" cy="402"></circle><circle r="0" cx="321" cy="512"></circle><circle r="8" cx="139" cy="371"></circle><circle r="1" cx="391" cy="852"></circle><circle r="10" cx="87" cy="663"></circle><circle r="4" cx="248" cy="837"></circle><circle r="8" cx="64" cy="670"></circle><circle r="9" cx="127" cy="744"></circle><circle r="2" cx="207" cy="397"></circle><circle r="9" cx="289" cy="16"></circle><circle r="7" cx="425" cy="81"></circle><circle r="2" cx="304" cy="476"></circle><circle r="3" cx="213" cy="626"></circle><circle r="3" cx="211" cy="732"></circle><circle r="5" cx="307" cy="202"></circle><circle r="2" cx="120" cy="51"></circle><circle r="10" cx="278" cy="361"></circle><circle r="8" cx="321" cy="163"></circle><circle r="1" cx="83" cy="821"></circle><circle r="7" cx="85" cy="601"></circle><circle r="5" cx="398" cy="9"></circle><circle r="1" cx="328" cy="474"></circle><circle r="1" cx="224" cy="457"></circle><circle r="9" cx="415" cy="676"></circle><circle r="10" cx="327" cy="390"></circle><circle r="7" cx="317" cy="571"></circle><circle r="8" cx="200" cy="699"></circle><circle r="6" cx="431" cy="587"></circle><circle r="1" cx="147" cy="879"></circle><circle r="8" cx="333" cy="551"></circle><circle r="3" cx="300" cy="738"></circle><circle r="7" cx="119" cy="546"></circle><circle r="3" cx="188" cy="457"></circle><circle r="4" cx="191" cy="556"></circle><circle r="9" cx="11" cy="503"></circle><circle r="1" cx="349" cy="624"></circle><circle r="6" cx="265" cy="86"></circle><circle r="8" cx="431" cy="621"></circle><circle r="6" cx="45" cy="851"></circle><circle r="2" cx="127" cy="5"></circle><circle r="7" cx="245" cy="519"></circle><circle r="5" cx="338" cy="301"></circle><circle r="5" cx="189" cy="4"></circle><circle r="1" cx="366" cy="417"></circle><circle r="10" cx="6" cy="301"></circle><circle r="10" cx="36" cy="212"></circle><circle r="10" cx="175" cy="871"></circle><circle r="1" cx="376" cy="615"></circle><circle r="9" cx="169" cy="157"></circle><circle r="0" cx="98" cy="304"></circle><circle r="1" cx="273" cy="806"></circle><circle r="2" cx="129" cy="788"></circle><circle r="4" cx="6" cy="21"></circle><circle r="7" cx="425" cy="142"></circle><circle r="9" cx="344" cy="664"></circle><circle r="10" cx="298" cy="684"></circle><circle r="2" cx="201" cy="761"></circle><circle r="2" cx="18" cy="264"></circle><circle r="10" cx="417" cy="761"></circle><circle r="8" cx="2" cy="467"></circle><circle r="4" cx="87" cy="261"></circle><circle r="4" cx="416" cy="298"></circle><circle r="1" cx="402" cy="110"></circle><circle r="5" cx="14" cy="667"></circle><circle r="1" cx="227" cy="822"></circle><circle r="9" cx="102" cy="746"></circle><circle r="7" cx="47" cy="517"></circle><circle r="10" cx="414" cy="189"></circle><circle r="6" cx="107" cy="612"></circle><circle r="8" cx="56" cy="333"></circle><circle r="10" cx="376" cy="110"></circle><circle r="7" cx="131" cy="899"></circle><circle r="9" cx="257" cy="53"></circle><circle r="4" cx="137" cy="175"></circle><circle r="4" cx="432" cy="548"></circle><circle r="8" cx="289" cy="494"></circle><circle r="8" cx="75" cy="440"></circle><circle r="9" cx="372" cy="154"></circle><circle r="10" cx="437" cy="56"></circle><circle r="4" cx="246" cy="795"></circle><circle r="9" cx="121" cy="301"></circle><circle r="10" cx="306" cy="607"></circle><circle r="9" cx="305" cy="863"></circle><circle r="3" cx="256" cy="328"></circle><circle r="7" cx="256" cy="270"></circle><circle r="8" cx="81" cy="516"></circle><circle r="5" cx="10" cy="233"></circle><circle r="2" cx="255" cy="473"></circle><circle r="2" cx="258" cy="588"></circle><circle r="7" cx="323" cy="81"></circle><circle r="8" cx="170" cy="755"></circle><circle r="4" cx="404" cy="221"></circle><circle r="10" cx="120" cy="202"></circle><circle r="7" cx="379" cy="292"></circle><circle r="8" cx="54" cy="550"></circle><circle r="9" cx="216" cy="560"></circle><circle r="1" cx="176" cy="817"></circle><circle r="7" cx="82" cy="561"></circle><circle r="6" cx="206" cy="118"></circle><circle r="5" cx="446" cy="888"></circle><circle r="6" cx="89" cy="222"></circle><circle r="7" cx="49" cy="16"></circle><circle r="9" cx="374" cy="480"></circle><circle r="1" cx="62" cy="225"></circle><circle r="6" cx="302" cy="887"></circle><circle r="5" cx="350" cy="128"></circle><circle r="5" cx="245" cy="108"></circle><circle r="0" cx="158" cy="20"></circle><circle r="4" cx="129" cy="461"></circle><circle r="4" cx="223" cy="100"></circle><circle r="10" cx="437" cy="691"></circle><circle r="1" cx="446" cy="183"></circle><circle r="6" cx="244" cy="634"></circle><circle r="5" cx="43" cy="120"></circle><circle r="0" cx="18" cy="567"></circle><circle r="0" cx="366" cy="502"></circle><circle r="5" cx="405" cy="167"></circle><circle r="7" cx="389" cy="533"></circle><circle r="2" cx="320" cy="120"></circle><circle r="1" cx="114" cy="248"></circle><circle r="9" cx="411" cy="787"></circle><circle r="9" cx="255" cy="715"></circle><circle r="2" cx="164" cy="446"></circle><circle r="7" cx="172" cy="343"></circle><circle r="6" cx="41" cy="728"></circle><circle r="3" cx="121" cy="697"></circle><circle r="1" cx="203" cy="344"></circle><circle r="2" cx="162" cy="293"></circle><circle r="7" cx="388" cy="748"></circle><circle r="7" cx="5" cy="86"></circle><circle r="5" cx="149" cy="555"></circle><circle r="3" cx="167" cy="787"></circle><circle r="0" cx="107" cy="652"></circle><circle r="1" cx="220" cy="711"></circle><circle r="3" cx="220" cy="482"></circle><circle r="10" cx="178" cy="209"></circle><circle r="9" cx="326" cy="818"></circle><circle r="4" cx="289" cy="631"></circle><circle r="6" cx="220" cy="375"></circle><circle r="9" cx="346" cy="786"></circle><circle r="8" cx="136" cy="32"></circle><circle r="2" cx="432" cy="524"></circle><circle r="5" cx="298" cy="804"></circle><circle r="0" cx="240" cy="299"></circle><circle r="2" cx="116" cy="768"></circle><circle r="2" cx="34" cy="90"></circle><circle r="3" cx="73" cy="724"></circle><circle r="7" cx="217" cy="236"></circle><circle r="9" cx="109" cy="678"></circle><circle r="1" cx="360" cy="82"></circle><circle r="8" cx="92" cy="540"></circle><circle r="1" cx="173" cy="581"></circle><circle r="1" cx="67" cy="177"></circle><circle r="2" cx="172" cy="691"></circle><circle r="9" cx="76" cy="129"></circle><circle r="8" cx="342" cy="241"></circle><circle r="1" cx="174" cy="538"></circle><circle r="2" cx="12" cy="341"></circle><circle r="6" cx="24" cy="362"></circle><circle r="6" cx="429" cy="24"></circle><circle r="7" cx="296" cy="435"></circle><circle r="7" cx="139" cy="67"></circle><circle r="3" cx="46" cy="895"></circle><circle r="8" cx="127" cy="106"></circle><circle r="10" cx="182" cy="304"></circle><circle r="6" cx="67" cy="371"></circle><circle r="0" cx="116" cy="424"></circle><circle r="0" cx="305" cy="782"></circle><circle r="9" cx="417" cy="330"></circle><circle r="1" cx="446" cy="331"></circle><circle r="5" cx="149" cy="313"></circle><circle r="9" cx="147" cy="92"></circle><circle r="10" cx="302" cy="654"></circle><circle r="6" cx="98" cy="331"></circle><circle r="6" cx="199" cy="199"></circle><circle r="6" cx="6" cy="643"></circle><circle r="5" cx="404" cy="506"></circle><circle r="2" cx="431" cy="403"></circle><circle r="2" cx="227" cy="5"></circle><circle r="9" cx="261" cy="613"></circle><circle r="5" cx="436" cy="781"></circle><circle r="0" cx="239" cy="688"></circle><circle r="8" cx="199" cy="820"></circle><circle r="1" cx="122" cy="823"></circle><circle r="2" cx="319" cy="351"></circle><circle r="2" cx="407" cy="726"></circle><circle r="6" cx="81" cy="632"></circle><circle r="0" cx="60" cy="804"></circle><circle r="4" cx="392" cy="391"></circle><circle r="6" cx="439" cy="100"></circle><circle r="0" cx="217" cy="259"></circle><circle r="3" cx="41" cy="596"></circle><circle r="7" cx="65" cy="295"></circle><circle r="6" cx="99" cy="32"></circle><circle r="7" cx="351" cy="571"></circle><circle r="0" cx="399" cy="140"></circle><circle r="8" cx="146" cy="808"></circle><circle r="7" cx="163" cy="899"></circle><circle r="8" cx="140" cy="442"></circle><circle r="5" cx="141" cy="581"></circle><circle r="9" cx="102" cy="797"></circle><circle r="2" cx="76" cy="898"></circle><circle r="3" cx="435" cy="276"></circle><circle r="9" cx="39" cy="315"></circle><circle r="7" cx="267" cy="249"></circle><circle r="8" cx="324" cy="731"></circle><circle r="10" cx="24" cy="786"></circle><circle r="7" cx="281" cy="338"></circle><circle r="7" cx="293" cy="86"></circle><circle r="7" cx="90" cy="691"></circle><circle r="0" cx="400" cy="36"></circle><circle r="6" cx="201" cy="156"></circle><circle r="7" cx="107" cy="587"></circle><circle r="2" cx="54" cy="457"></circle><circle r="2" cx="81" cy="154"></circle><circle r="4" cx="237" cy="67"></circle><circle r="1" cx="208" cy="592"></circle><circle r="2" cx="277" cy="164"></circle><circle r="10" cx="21" cy="864"></circle><circle r="10" cx="224" cy="431"></circle><circle r="1" cx="291" cy="220"></circle><circle r="10" cx="314" cy="35"></circle><circle r="1" cx="67" cy="57"></circle><circle r="9" cx="104" cy="472"></circle><circle r="10" cx="176" cy="846"></circle><circle r="6" cx="331" cy="861"></circle><circle r="5" cx="441" cy="2"></circle><circle r="10" cx="281" cy="777"></circle><circle r="0" cx="359" cy="204"></circle><circle r="2" cx="282" cy="186"></circle><circle r="8" cx="216" cy="506"></circle><circle r="10" cx="250" cy="357"></circle><circle r="6" cx="375" cy="639"></circle><circle r="6" cx="322" cy="682"></circle><circle r="5" cx="55" cy="78"></circle><circle r="5" cx="21" cy="625"></circle><circle r="5" cx="190" cy="628"></circle><circle r="9" cx="63" cy="414"></circle><circle r="10" cx="61" cy="612"></circle><circle r="0" cx="398" cy="807"></circle><circle r="5" cx="446" cy="428"></circle><circle r="1" cx="413" cy="845"></circle><circle r="10" cx="137" cy="236"></circle><circle r="1" cx="148" cy="202"></circle><circle r="7" cx="275" cy="689"></circle><circle r="9" cx="344" cy="836"></circle><circle r="4" cx="351" cy="35"></circle><circle r="5" cx="442" cy="304"></circle><circle r="8" cx="10" cy="442"></circle><circle r="10" cx="405" cy="628"></circle><circle r="3" cx="216" cy="797"></circle><circle r="3" cx="158" cy="390"></circle><circle r="1" cx="318" cy="414"></circle><circle r="0" cx="270" cy="309"></circle><circle r="10" cx="61" cy="873"></circle><circle r="1" cx="373" cy="834"></circle><circle r="9" cx="4" cy="691"></circle><circle r="5" cx="355" cy="545"></circle><circle r="5" cx="307" cy="1"></circle><circle r="0" cx="375" cy="558"></circle><circle r="4" cx="276" cy="39"></circle><circle r="8" cx="146" cy="338"></circle><circle r="6" cx="258" cy="197"></circle><circle r="9" cx="152" cy="624"></circle><circle r="10" cx="312" cy="299"></circle><circle r="9" cx="283" cy="718"></circle><circle r="4" cx="166" cy="127"></circle><circle r="9" cx="215" cy="650"></circle><circle r="0" cx="117" cy="395"></circle><circle r="3" cx="88" cy="354"></circle><circle r="6" cx="406" cy="474"></circle><circle r="1" cx="36" cy="399"></circle><circle r="7" cx="266" cy="223"></circle><circle r="10" cx="118" cy="519"></circle><circle r="7" cx="266" cy="529"></circle><circle r="1" cx="270" cy="421"></circle><circle r="7" cx="321" cy="323"></circle><circle r="4" cx="262" cy="558"></circle><circle r="8" cx="403" cy="270"></circle><circle r="5" cx="68" cy="585"></circle><circle r="6" cx="384" cy="715"></circle><circle r="4" cx="342" cy="97"></circle><circle r="4" cx="10" cy="46"></circle><circle r="6" cx="447" cy="817"></circle><circle r="3" cx="29" cy="5"></circle><circle r="3" cx="238" cy="249"></circle><circle r="7" cx="5" cy="181"></circle><circle r="5" cx="448" cy="155"></circle><circle r="1" cx="260" cy="3"></circle><circle r="9" cx="203" cy="31"></circle><circle r="5" cx="283" cy="268"></circle><circle r="4" cx="393" cy="315"></circle><circle r="5" cx="447" cy="570"></circle><circle r="9" cx="318" cy="59"></circle><circle r="1" cx="320" cy="451"></circle><circle r="4" cx="443" cy="128"></circle><circle r="8" cx="448" cy="79"></circle><circle r="4" cx="43" cy="572"></circle><circle r="9" cx="238" cy="390"></circle><circle r="7" cx="112" cy="225"></circle><circle r="2" cx="197" cy="97"></circle><circle r="6" cx="348" cy="156"></circle><circle r="8" cx="75" cy="316"></circle><circle r="3" cx="366" cy="591"></circle><circle r="8" cx="160" cy="470"></circle><circle r="3" cx="449" cy="605"></circle><circle r="4" cx="46" cy="827"></circle><circle r="3" cx="422" cy="430"></circle><circle r="3" cx="183" cy="257"></circle><circle r="4" cx="1" cy="377"></circle><circle r="10" cx="448" cy="754"></circle><circle r="7" cx="31" cy="30"></circle><circle r="1" cx="228" cy="897"></circle><circle r="5" cx="359" cy="2"></circle><circle r="2" cx="230" cy="322"></circle><circle r="7" cx="314" cy="230"></circle><circle r="9" cx="238" cy="497"></circle><circle r="1" cx="446" cy="712"></circle><circle r="6" cx="366" cy="766"></circle><circle r="9" cx="59" cy="743"></circle><circle r="1" cx="248" cy="131"></circle><circle r="6" cx="224" cy="206"></circle><circle r="7" cx="222" cy="535"></circle><circle r="4" cx="86" cy="284"></circle><circle r="2" cx="305" cy="709"></circle><circle r="9" cx="36" cy="494"></circle><circle r="8" cx="233" cy="613"></circle><circle r="2" cx="413" cy="702"></circle><circle r="6" cx="153" cy="856"></circle><circle r="2" cx="143" cy="151"></circle><circle r="6" cx="66" cy="271"></circle><circle r="5" cx="232" cy="277"></circle><circle r="9" cx="449" cy="37"></circle><circle r="3" cx="20" cy="899"></circle><circle r="8" cx="21" cy="706"></circle><circle r="3" cx="281" cy="664"></circle><circle r="0" cx="385" cy="208"></circle><circle r="10" cx="2" cy="775"></circle><circle r="6" cx="85" cy="199"></circle><circle r="3" cx="183" cy="401"></circle><circle r="7" cx="401" cy="364"></circle></g></svg>