<svg id="visual" viewBox="0 0 450 900" width="450" height="900" xmlns="http://www.w3.org/2000/svg" xmlns:xlink="http://www.w3.org/1999/xlink" version="1.1"><g fill="#f9dc0a"><circle r="12" cx="237" cy="153"></circle><circle r="1" cx="58" cy="346"></circle><circle r="7" cx="92" cy="411"></circle><circle r="6" cx="332" cy="589"></circle><circle r="0" cx="37" cy="400"></circle><circle r="10" cx="324" cy="198"></circle><circle r="3" cx="422" cy="412"></circle><circle r="6" cx="13" cy="385"></circle><circle r="3" cx="444" cy="785"></circle><circle r="2" cx="63" cy="604"></circle><circle r="1" cx="304" cy="865"></circle><circle r="0" cx="117" cy="157"></circle><circle r="0" cx="142" cy="169"></circle><circle r="1" cx="30" cy="97"></circle><circle r="1" cx="421" cy="168"></circle><circle r="4" cx="139" cy="96"></circle><circle r="2" cx="418" cy="760"></circle><circle r="0" cx="137" cy="838"></circle><circle r="3" cx="74" cy="386"></circle><circle r="1" cx="80" cy="543"></circle><circle r="4" cx="251" cy="85"></circle><circle r="7" cx="143" cy="342"></circle><circle r="8" cx="239" cy="62"></circle><circle r="8" cx="328" cy="79"></circle><circle r="1" cx="113" cy="567"></circle><circle r="8" cx="193" cy="698"></circle><circle r="9" cx="242" cy="108"></circle><circle r="8" cx="271" cy="328"></circle><circle r="6" cx="361" cy="207"></circle><circle r="3" cx="79" cy="4"></circle><circle r="5" cx="253" cy="171"></circle><circle r="8" cx="77" cy="628"></circle><circle r="4" cx="31" cy="70"></circle><circle r="8" cx="205" cy="881"></circle><circle r="1" cx="65" cy="234"></circle><circle r="7" cx="340" cy="447"></circle><circle r="6" cx="153" cy="739"></circle><circle r="5" cx="149" cy="786"></circle><circle r="10" cx="146" cy="134"></circle><circle r="10" cx="174" cy="872"></circle><circle r="2" cx="147" cy="404"></circle><circle r="7" cx="256" cy="518"></circle><circle r="0" cx="17" cy="744"></circle><circle r="3" cx="313" cy="478"></circle><circle r="9" cx="54" cy="29"></circle><circle r="5" cx="78" cy="757"></circle><circle r="3" cx="315" cy="414"></circle><circle r="8" cx="136" cy="624"></circle><circle r="6" cx="76" cy="263"></circle><circle r="6" cx="257" cy="559"></circle><circle r="8" cx="281" cy="845"></circle><circle r="2" cx="100" cy="811"></circle><circle r="9" cx="368" cy="26"></circle><circle r="5" cx="107" cy="218"></circle><circle r="2" cx="374" cy="428"></circle><circle r="9" cx="271" cy="201"></circle><circle r="4" cx="180" cy="242"></circle><circle r="8" cx="321" cy="385"></circle><circle r="2" cx="299" cy="304"></circle><circle r="10" cx="76" cy="438"></circle><circle r="9" cx="159" cy="211"></circle><circle r="6" cx="223" cy="231"></circle><circle r="8" cx="152" cy="586"></circle><circle r="8" cx="204" cy="634"></circle><circle r="6" cx="1" cy="511"></circle><circle r="8" cx="38" cy="423"></circle></g></svg>