<svg id="visual" viewBox="0 0 450 900" width="450" height="900" xmlns="http://www.w3.org/2000/svg" xmlns:xlink="http://www.w3.org/1999/xlink" version="1.1"><g fill="#f9dc0a"><circle r="12" cx="334" cy="55"></circle><circle r="1" cx="35" cy="794"></circle><circle r="6" cx="97" cy="162"></circle><circle r="0" cx="327" cy="288"></circle><circle r="7" cx="443" cy="245"></circle><circle r="10" cx="236" cy="85"></circle><circle r="6" cx="68" cy="516"></circle><circle r="3" cx="364" cy="82"></circle><circle r="1" cx="382" cy="289"></circle><circle r="5" cx="179" cy="524"></circle><circle r="8" cx="25" cy="82"></circle><circle r="8" cx="326" cy="464"></circle><circle r="6" cx="235" cy="263"></circle><circle r="8" cx="334" cy="329"></circle><circle r="0" cx="263" cy="686"></circle><circle r="5" cx="241" cy="108"></circle><circle r="2" cx="382" cy="848"></circle><circle r="0" cx="334" cy="620"></circle><circle r="5" cx="324" cy="569"></circle><circle r="4" cx="170" cy="153"></circle><circle r="10" cx="105" cy="489"></circle><circle r="0" cx="161" cy="550"></circle><circle r="7" cx="176" cy="655"></circle><circle r="8" cx="217" cy="394"></circle><circle r="2" cx="271" cy="494"></circle><circle r="0" cx="153" cy="680"></circle><circle r="5" cx="171" cy="346"></circle><circle r="4" cx="207" cy="544"></circle><circle r="0" cx="139" cy="605"></circle><circle r="10" cx="114" cy="409"></circle><circle r="2" cx="210" cy="310"></circle><circle r="9" cx="7" cy="702"></circle><circle r="0" cx="72" cy="883"></circle><circle r="7" cx="144" cy="44"></circle><circle r="8" cx="134" cy="868"></circle><circle r="2" cx="35" cy="640"></circle><circle r="10" cx="54" cy="499"></circle><circle r="3" cx="268" cy="339"></circle><circle r="7" cx="432" cy="78"></circle><circle r="1" cx="437" cy="206"></circle><circle r="8" cx="74" cy="59"></circle><circle r="10" cx="10" cy="581"></circle><circle r="6" cx="402" cy="764"></circle><circle r="4" cx="370" cy="313"></circle><circle r="2" cx="399" cy="331"></circle><circle r="4" cx="101" cy="360"></circle><circle r="5" cx="412" cy="254"></circle><circle r="7" cx="21" cy="607"></circle><circle r="1" cx="424" cy="747"></circle><circle r="3" cx="54" cy="287"></circle><circle r="6" cx="434" cy="772"></circle><circle r="6" cx="186" cy="806"></circle><circle r="9" cx="329" cy="197"></circle><circle r="4" cx="242" cy="17"></circle><circle r="0" cx="254" cy="599"></circle><circle r="2" cx="269" cy="386"></circle><circle r="6" cx="10" cy="423"></circle><circle r="2" cx="159" cy="315"></circle><circle r="2" cx="245" cy="848"></circle><circle r="7" cx="98" cy="579"></circle><circle r="2" cx="321" cy="108"></circle><circle r="8" cx="6" cy="248"></circle><circle r="4" cx="321" cy="143"></circle><circle r="6" cx="51" cy="364"></circle><circle r="3" cx="115" cy="759"></circle><circle r="3" cx="118" cy="784"></circle></g></svg>