<svg id="visual" viewBox="0 0 450 900" width="450" height="900" xmlns="http://www.w3.org/2000/svg" xmlns:xlink="http://www.w3.org/1999/xlink" version="1.1"><g fill="#A7233A"><circle r="12" cx="170" cy="845"></circle><circle r="1" cx="357" cy="627"></circle><circle r="2" cx="159" cy="691"></circle><circle r="9" cx="302" cy="485"></circle><circle r="5" cx="394" cy="57"></circle><circle r="0" cx="277" cy="724"></circle><circle r="8" cx="43" cy="612"></circle><circle r="8" cx="251" cy="241"></circle><circle r="2" cx="254" cy="727"></circle><circle r="6" cx="385" cy="149"></circle><circle r="3" cx="322" cy="868"></circle><circle r="1" cx="200" cy="624"></circle><circle r="6" cx="153" cy="242"></circle><circle r="4" cx="343" cy="85"></circle><circle r="4" cx="438" cy="469"></circle><circle r="6" cx="250" cy="855"></circle><circle r="5" cx="152" cy="474"></circle><circle r="7" cx="202" cy="704"></circle><circle r="5" cx="160" cy="17"></circle><circle r="5" cx="390" cy="177"></circle><circle r="0" cx="421" cy="810"></circle><circle r="1" cx="177" cy="369"></circle><circle r="6" cx="246" cy="344"></circle><circle r="5" cx="62" cy="369"></circle><circle r="9" cx="410" cy="232"></circle><circle r="8" cx="327" cy="61"></circle><circle r="6" cx="269" cy="884"></circle><circle r="2" cx="211" cy="95"></circle><circle r="7" cx="123" cy="69"></circle><circle r="0" cx="230" cy="548"></circle><circle r="0" cx="434" cy="735"></circle><circle r="9" cx="226" cy="617"></circle><circle r="9" cx="328" cy="625"></circle><circle r="3" cx="231" cy="773"></circle><circle r="7" cx="245" cy="467"></circle><circle r="6" cx="303" cy="561"></circle><circle r="6" cx="23" cy="76"></circle><circle r="0" cx="400" cy="107"></circle><circle r="5" cx="78" cy="572"></circle><circle r="10" cx="261" cy="438"></circle><circle r="5" cx="8" cy="434"></circle><circle r="2" cx="126" cy="172"></circle><circle r="7" cx="306" cy="93"></circle><circle r="2" cx="251" cy="109"></circle><circle r="5" cx="127" cy="783"></circle><circle r="7" cx="209" cy="573"></circle><circle r="10" cx="324" cy="401"></circle><circle r="4" cx="194" cy="793"></circle><circle r="6" cx="223" cy="667"></circle><circle r="0" cx="122" cy="827"></circle><circle r="2" cx="227" cy="189"></circle><circle r="9" cx="436" cy="596"></circle><circle r="8" cx="153" cy="102"></circle><circle r="4" cx="117" cy="118"></circle><circle r="9" cx="54" cy="775"></circle><circle r="0" cx="221" cy="515"></circle><circle r="3" cx="108" cy="757"></circle><circle r="5" cx="355" cy="391"></circle><circle r="5" cx="304" cy="120"></circle><circle r="5" cx="341" cy="331"></circle><circle r="6" cx="217" cy="124"></circle><circle r="8" cx="190" cy="59"></circle><circle r="2" cx="10" cy="22"></circle><circle r="1" cx="447" cy="163"></circle><circle r="0" cx="396" cy="21"></circle><circle r="3" cx="239" cy="404"></circle></g></svg>