<svg id="visual" viewBox="0 0 450 900" width="450" height="900" xmlns="http://www.w3.org/2000/svg" xmlns:xlink="http://www.w3.org/1999/xlink" version="1.1"><g fill="#A7233A"><circle r="12" cx="272" cy="433"></circle><circle r="1" cx="217" cy="280"></circle><circle r="5" cx="225" cy="167"></circle><circle r="1" cx="63" cy="618"></circle><circle r="1" cx="109" cy="37"></circle><circle r="9" cx="416" cy="365"></circle><circle r="0" cx="318" cy="480"></circle><circle r="2" cx="428" cy="277"></circle><circle r="7" cx="230" cy="447"></circle><circle r="5" cx="118" cy="847"></circle><circle r="1" cx="248" cy="750"></circle><circle r="7" cx="312" cy="17"></circle><circle r="0" cx="157" cy="216"></circle><circle r="1" cx="336" cy="48"></circle><circle r="2" cx="426" cy="865"></circle><circle r="4" cx="387" cy="764"></circle><circle r="0" cx="162" cy="23"></circle><circle r="7" cx="149" cy="415"></circle><circle r="1" cx="55" cy="13"></circle><circle r="2" cx="99" cy="662"></circle><circle r="8" cx="311" cy="93"></circle><circle r="6" cx="235" cy="630"></circle><circle r="3" cx="164" cy="807"></circle><circle r="10" cx="258" cy="788"></circle><circle r="1" cx="336" cy="807"></circle><circle r="5" cx="205" cy="661"></circle><circle r="1" cx="333" cy="868"></circle><circle r="9" cx="227" cy="896"></circle><circle r="1" cx="331" cy="131"></circle><circle r="5" cx="373" cy="512"></circle><circle r="9" cx="203" cy="449"></circle><circle r="7" cx="162" cy="358"></circle><circle r="7" cx="129" cy="618"></circle><circle r="1" cx="334" cy="773"></circle><circle r="5" cx="23" cy="850"></circle><circle r="5" cx="36" cy="244"></circle><circle r="8" cx="111" cy="588"></circle><circle r="5" cx="65" cy="570"></circle><circle r="3" cx="445" cy="883"></circle><circle r="6" cx="55" cy="823"></circle><circle r="6" cx="303" cy="658"></circle><circle r="9" cx="81" cy="28"></circle><circle r="6" cx="184" cy="76"></circle><circle r="6" cx="145" cy="244"></circle><circle r="2" cx="270" cy="316"></circle><circle r="5" cx="44" cy="643"></circle><circle r="8" cx="103" cy="60"></circle><circle r="7" cx="84" cy="106"></circle><circle r="4" cx="310" cy="240"></circle><circle r="3" cx="111" cy="263"></circle><circle r="3" cx="119" cy="292"></circle><circle r="5" cx="283" cy="177"></circle><circle r="4" cx="416" cy="415"></circle><circle r="9" cx="3" cy="246"></circle><circle r="5" cx="260" cy="638"></circle><circle r="3" cx="133" cy="742"></circle><circle r="2" cx="313" cy="736"></circle><circle r="4" cx="197" cy="101"></circle><circle r="0" cx="164" cy="716"></circle><circle r="4" cx="140" cy="793"></circle><circle r="10" cx="220" cy="552"></circle><circle r="9" cx="434" cy="728"></circle><circle r="9" cx="403" cy="142"></circle><circle r="5" cx="351" cy="431"></circle><circle r="2" cx="119" cy="382"></circle><circle r="3" cx="324" cy="440"></circle><circle r="7" cx="272" cy="383"></circle><circle r="4" cx="30" cy="545"></circle><circle r="5" cx="126" cy="712"></circle><circle r="7" cx="189" cy="129"></circle><circle r="5" cx="19" cy="898"></circle><circle r="10" cx="57" cy="767"></circle><circle r="9" cx="343" cy="204"></circle><circle r="8" cx="10" cy="215"></circle><circle r="8" cx="375" cy="32"></circle><circle r="10" cx="55" cy="186"></circle><circle r="7" cx="338" cy="355"></circle><circle r="6" cx="23" cy="695"></circle><circle r="8" cx="156" cy="301"></circle><circle r="3" cx="43" cy="431"></circle><circle r="1" cx="302" cy="783"></circle><circle r="5" cx="244" cy="862"></circle><circle r="3" cx="208" cy="334"></circle><circle r="10" cx="285" cy="524"></circle><circle r="8" cx="76" cy="708"></circle><circle r="1" cx="362" cy="318"></circle><circle r="7" cx="266" cy="250"></circle><circle r="2" cx="150" cy="153"></circle><circle r="5" cx="402" cy="524"></circle><circle r="6" cx="263" cy="613"></circle><circle r="6" cx="178" cy="476"></circle><circle r="0" cx="351" cy="172"></circle><circle r="4" cx="152" cy="487"></circle><circle r="7" cx="414" cy="65"></circle><circle r="7" cx="123" cy="877"></circle><circle r="6" cx="412" cy="769"></circle><circle r="6" cx="131" cy="223"></circle><circle r="4" cx="219" cy="830"></circle><circle r="2" cx="187" cy="348"></circle><circle r="10" cx="268" cy="276"></circle><circle r="4" cx="5" cy="492"></circle><circle r="10" cx="382" cy="660"></circle><circle r="9" cx="399" cy="680"></circle><circle r="7" cx="287" cy="622"></circle><circle r="9" cx="280" cy="796"></circle><circle r="9" cx="196" cy="850"></circle><circle r="9" cx="335" cy="539"></circle><circle r="10" cx="374" cy="278"></circle><circle r="5" cx="86" cy="142"></circle><circle r="4" cx="224" cy="88"></circle><circle r="0" cx="185" cy="576"></circle><circle r="4" cx="151" cy="337"></circle><circle r="6" cx="132" cy="546"></circle><circle r="6" cx="240" cy="539"></circle><circle r="1" cx="448" cy="82"></circle><circle r="4" cx="72" cy="885"></circle><circle r="6" cx="176" cy="898"></circle><circle r="2" cx="363" cy="345"></circle><circle r="2" cx="378" cy="75"></circle><circle r="7" cx="314" cy="569"></circle><circle r="3" cx="346" cy="3"></circle><circle r="7" cx="158" cy="610"></circle><circle r="1" cx="343" cy="81"></circle><circle r="5" cx="397" cy="329"></circle><circle r="10" cx="279" cy="550"></circle><circle r="3" cx="35" cy="384"></circle><circle r="5" cx="236" cy="296"></circle><circle r="8" cx="62" cy="400"></circle><circle r="9" cx="2" cy="191"></circle><circle r="1" cx="222" cy="780"></circle><circle r="3" cx="409" cy="731"></circle><circle r="2" cx="446" cy="768"></circle><circle r="1" cx="266" cy="695"></circle><circle r="9" cx="179" cy="386"></circle><circle r="0" cx="432" cy="635"></circle><circle r="5" cx="160" cy="850"></circle><circle r="3" cx="94" cy="546"></circle><circle r="0" cx="168" cy="177"></circle><circle r="2" cx="364" cy="892"></circle><circle r="6" cx="438" cy="479"></circle><circle r="10" cx="176" cy="667"></circle><circle r="4" cx="337" cy="638"></circle><circle r="0" cx="141" cy="572"></circle><circle r="9" cx="9" cy="87"></circle><circle r="9" cx="291" cy="461"></circle><circle r="7" cx="283" cy="680"></circle><circle r="10" cx="355" cy="665"></circle><circle r="2" cx="307" cy="144"></circle><circle r="6" cx="47" cy="283"></circle><circle r="1" cx="257" cy="578"></circle><circle r="0" cx="441" cy="150"></circle><circle r="1" cx="260" cy="894"></circle><circle r="2" cx="98" cy="784"></circle><circle r="4" cx="306" cy="325"></circle><circle r="10" cx="27" cy="117"></circle><circle r="0" cx="434" cy="245"></circle><circle r="10" cx="19" cy="149"></circle><circle r="6" cx="6" cy="315"></circle><circle r="3" cx="48" cy="529"></circle><circle r="6" cx="242" cy="366"></circle><circle r="5" cx="84" cy="422"></circle><circle r="1" cx="434" cy="187"></circle><circle r="7" cx="276" cy="354"></circle><circle r="10" cx="113" cy="407"></circle><circle r="2" cx="252" cy="34"></circle><circle r="2" cx="444" cy="826"></circle><circle r="3" cx="59" cy="133"></circle><circle r="9" cx="373" cy="381"></circle><circle r="1" cx="371" cy="98"></circle><circle r="4" cx="358" cy="126"></circle><circle r="2" cx="370" cy="588"></circle><circle r="1" cx="346" cy="561"></circle><circle r="6" cx="279" cy="75"></circle><circle r="9" cx="76" cy="343"></circle><circle r="6" cx="101" cy="740"></circle><circle r="1" cx="411" cy="245"></circle><circle r="7" cx="85" cy="184"></circle><circle r="3" cx="251" cy="132"></circle><circle r="6" cx="275" cy="748"></circle><circle r="3" cx="35" cy="493"></circle><circle r="8" cx="416" cy="547"></circle><circle r="2" cx="430" cy="577"></circle><circle r="8" cx="109" cy="184"></circle><circle r="6" cx="247" cy="471"></circle><circle r="0" cx="439" cy="313"></circle><circle r="6" cx="86" cy="834"></circle><circle r="0" cx="316" cy="279"></circle><circle r="4" cx="373" cy="851"></circle><circle r="5" cx="228" cy="804"></circle><circle r="0" cx="222" cy="386"></circle><circle r="5" cx="314" cy="350"></circle><circle r="4" cx="400" cy="16"></circle><circle r="5" cx="244" cy="64"></circle><circle r="1" cx="407" cy="212"></circle><circle r="1" cx="417" cy="839"></circle><circle r="7" cx="5" cy="577"></circle><circle r="3" cx="80" cy="282"></circle><circle r="4" cx="430" cy="456"></circle><circle r="5" cx="314" cy="826"></circle><circle r="3" cx="444" cy="215"></circle><circle r="3" cx="284" cy="211"></circle><circle r="6" cx="436" cy="509"></circle><circle r="9" cx="6" cy="646"></circle><circle r="9" cx="118" cy="492"></circle><circle r="4" cx="283" cy="820"></circle><circle r="3" cx="77" cy="501"></circle><circle r="1" cx="124" cy="670"></circle><circle r="0" cx="19" cy="3"></circle><circle r="3" cx="8" cy="32"></circle><circle r="10" cx="246" cy="2"></circle><circle r="6" cx="389" cy="828"></circle><circle r="0" cx="368" cy="242"></circle><circle r="1" cx="7" cy="525"></circle><circle r="7" cx="357" cy="777"></circle><circle r="8" cx="171" cy="635"></circle><circle r="3" cx="19" cy="739"></circle><circle r="0" cx="257" cy="819"></circle><circle r="2" cx="34" cy="51"></circle><circle r="8" cx="206" cy="727"></circle><circle r="10" cx="37" cy="340"></circle><circle r="3" cx="334" cy="712"></circle><circle r="1" cx="1" cy="811"></circle><circle r="5" cx="45" cy="721"></circle><circle r="0" cx="99" cy="4"></circle><circle r="2" cx="32" cy="800"></circle><circle r="1" cx="338" cy="831"></circle><circle r="3" cx="383" cy="537"></circle><circle r="2" cx="126" cy="59"></circle><circle r="10" cx="45" cy="583"></circle><circle r="2" cx="312" cy="50"></circle><circle r="9" cx="183" cy="528"></circle><circle r="0" cx="393" cy="437"></circle><circle r="8" cx="199" cy="609"></circle><circle r="1" cx="212" cy="510"></circle><circle r="10" cx="177" cy="775"></circle><circle r="5" cx="397" cy="493"></circle><circle r="3" cx="71" cy="161"></circle><circle r="0" cx="211" cy="636"></circle><circle r="0" cx="72" cy="643"></circle><circle r="6" cx="229" cy="257"></circle><circle r="3" cx="124" cy="338"></circle><circle r="10" cx="379" cy="565"></circle><circle r="5" cx="273" cy="857"></circle><circle r="9" cx="433" cy="796"></circle><circle r="3" cx="370" cy="156"></circle><circle r="10" cx="233" cy="676"></circle><circle r="8" cx="14" cy="612"></circle><circle r="9" cx="357" cy="401"></circle><circle r="8" cx="168" cy="742"></circle><circle r="0" cx="289" cy="255"></circle><circle r="1" cx="274" cy="140"></circle><circle r="3" cx="133" cy="17"></circle><circle r="0" cx="237" cy="711"></circle><circle r="8" cx="109" cy="155"></circle><circle r="0" cx="214" cy="481"></circle><circle r="8" cx="219" cy="137"></circle><circle r="7" cx="297" cy="708"></circle><circle r="10" cx="219" cy="416"></circle><circle r="3" cx="375" cy="742"></circle><circle r="0" cx="15" cy="363"></circle><circle r="4" cx="85" cy="391"></circle><circle r="7" cx="52" cy="77"></circle><circle r="1" cx="78" cy="55"></circle><circle r="8" cx="29" cy="169"></circle><circle r="10" cx="307" cy="596"></circle><circle r="4" cx="5" cy="867"></circle><circle r="8" cx="212" cy="687"></circle><circle r="8" cx="152" cy="65"></circle><circle r="8" cx="395" cy="616"></circle><circle r="8" cx="50" cy="209"></circle><circle r="3" cx="48" cy="849"></circle><circle r="7" cx="202" cy="173"></circle><circle r="3" cx="140" cy="642"></circle><circle r="0" cx="239" cy="191"></circle><circle r="0" cx="379" cy="458"></circle><circle r="4" cx="9" cy="56"></circle><circle r="6" cx="443" cy="368"></circle><circle r="10" cx="66" cy="447"></circle><circle r="1" cx="315" cy="690"></circle><circle r="6" cx="160" cy="119"></circle><circle r="8" cx="439" cy="50"></circle><circle r="4" cx="302" cy="861"></circle><circle r="4" cx="210" cy="47"></circle><circle r="10" cx="211" cy="583"></circle><circle r="1" cx="267" cy="495"></circle><circle r="6" cx="67" cy="794"></circle><circle r="1" cx="270" cy="13"></circle><circle r="2" cx="446" cy="419"></circle><circle r="3" cx="75" cy="319"></circle><circle r="0" cx="341" cy="293"></circle><circle r="10" cx="96" cy="303"></circle><circle r="10" cx="119" cy="468"></circle><circle r="6" cx="437" cy="608"></circle><circle r="4" cx="281" cy="772"></circle><circle r="1" cx="129" cy="120"></circle><circle r="0" cx="33" cy="830"></circle><circle r="0" cx="79" cy="467"></circle><circle r="7" cx="179" cy="290"></circle><circle r="0" cx="194" cy="252"></circle><circle r="0" cx="100" cy="508"></circle><circle r="8" cx="56" cy="361"></circle><circle r="10" cx="151" cy="389"></circle><circle r="9" cx="389" cy="877"></circle><circle r="0" cx="426" cy="29"></circle><circle r="8" cx="105" cy="218"></circle><circle r="0" cx="157" cy="556"></circle><circle r="3" cx="363" cy="482"></circle><circle r="1" cx="386" cy="413"></circle><circle r="7" cx="209" cy="16"></circle><circle r="8" cx="387" cy="803"></circle><circle r="2" cx="16" cy="779"></circle><circle r="0" cx="360" cy="611"></circle><circle r="2" cx="173" cy="692"></circle><circle r="8" cx="396" cy="386"></circle><circle r="5" cx="7" cy="434"></circle><circle r="7" cx="293" cy="286"></circle><circle r="3" cx="71" cy="529"></circle><circle r="2" cx="359" cy="53"></circle><circle r="1" cx="232" cy="326"></circle><circle r="6" cx="324" cy="508"></circle><circle r="5" cx="107" cy="102"></circle><circle r="10" cx="187" cy="500"></circle><circle r="1" cx="112" cy="432"></circle><circle r="1" cx="115" cy="759"></circle><circle r="8" cx="133" cy="515"></circle><circle r="7" cx="28" cy="406"></circle><circle r="9" cx="94" cy="878"></circle><circle r="4" cx="28" cy="461"></circle><circle r="7" cx="413" cy="89"></circle><circle r="0" cx="36" cy="310"></circle><circle r="5" cx="442" cy="698"></circle><circle r="9" cx="400" cy="118"></circle><circle r="6" cx="411" cy="594"></circle><circle r="7" cx="193" cy="795"></circle><circle r="5" cx="326" cy="410"></circle><circle r="6" cx="318" cy="386"></circle><circle r="1" cx="393" cy="360"></circle><circle r="6" cx="393" cy="190"></circle><circle r="0" cx="344" cy="585"></circle><circle r="3" cx="337" cy="464"></circle><circle r="9" cx="39" cy="29"></circle><circle r="9" cx="247" cy="389"></circle><circle r="0" cx="303" cy="412"></circle><circle r="3" cx="233" cy="600"></circle><circle r="3" cx="290" cy="895"></circle><circle r="6" cx="79" cy="597"></circle><circle r="8" cx="334" cy="251"></circle><circle r="9" cx="249" cy="227"></circle><circle r="7" cx="96" cy="634"></circle><circle r="0" cx="72" cy="745"></circle><circle r="7" cx="192" cy="423"></circle><circle r="2" cx="134" cy="818"></circle><circle r="5" cx="412" cy="296"></circle><circle r="9" cx="137" cy="441"></circle><circle r="10" cx="148" cy="769"></circle><circle r="1" cx="165" cy="444"></circle><circle r="9" cx="196" cy="310"></circle><circle r="2" cx="286" cy="44"></circle><circle r="2" cx="358" cy="725"></circle><circle r="1" cx="82" cy="681"></circle><circle r="9" cx="175" cy="233"></circle><circle r="5" cx="270" cy="99"></circle><circle r="9" cx="107" cy="129"></circle><circle r="2" cx="216" cy="197"></circle><circle r="0" cx="309" cy="201"></circle><circle r="1" cx="356" cy="688"></circle><circle r="3" cx="212" cy="754"></circle><circle r="6" cx="427" cy="337"></circle><circle r="5" cx="383" cy="718"></circle><circle r="2" cx="436" cy="395"></circle><circle r="4" cx="316" cy="629"></circle><circle r="9" cx="449" cy="851"></circle><circle r="1" cx="419" cy="660"></circle><circle r="8" cx="140" cy="282"></circle><circle r="2" cx="179" cy="52"></circle><circle r="10" cx="140" cy="198"></circle><circle r="5" cx="406" cy="465"></circle><circle r="0" cx="284" cy="588"></circle><circle r="5" cx="185" cy="195"></circle><circle r="5" cx="327" cy="222"></circle><circle r="0" cx="4" cy="553"></circle><circle r="3" cx="172" cy="874"></circle><circle r="2" cx="235" cy="570"></circle><circle r="2" cx="191" cy="819"></circle><circle r="10" cx="105" cy="360"></circle><circle r="1" cx="175" cy="265"></circle><circle r="10" cx="76" cy="243"></circle><circle r="5" cx="262" cy="198"></circle><circle r="10" cx="353" cy="750"></circle><circle r="3" cx="349" cy="379"></circle><circle r="5" cx="40" cy="612"></circle><circle r="8" cx="415" cy="887"></circle><circle r="5" cx="100" cy="455"></circle><circle r="5" cx="238" cy="109"></circle><circle r="10" cx="138" cy="358"></circle><circle r="6" cx="44" cy="686"></circle><circle r="3" cx="249" cy="424"></circle><circle r="8" cx="23" cy="663"></circle><circle r="3" cx="271" cy="658"></circle><circle r="9" cx="434" cy="103"></circle><circle r="5" cx="24" cy="281"></circle><circle r="7" cx="139" cy="899"></circle><circle r="8" cx="291" cy="109"></circle><circle r="2" cx="128" cy="88"></circle><circle r="5" cx="227" cy="221"></circle><circle r="1" cx="111" cy="812"></circle><circle r="8" cx="103" cy="694"></circle><circle r="2" cx="392" cy="164"></circle><circle r="1" cx="191" cy="152"></circle><circle r="1" cx="45" cy="101"></circle><circle r="8" cx="160" cy="532"></circle><circle r="1" cx="437" cy="5"></circle><circle r="2" cx="346" cy="500"></circle><circle r="9" cx="242" cy="498"></circle><circle r="1" cx="200" cy="224"></circle><circle r="0" cx="409" cy="811"></circle><circle r="9" cx="449" cy="672"></circle><circle r="2" cx="245" cy="156"></circle><circle r="0" cx="43" cy="879"></circle><circle r="6" cx="327" cy="172"></circle><circle r="8" cx="380" cy="4"></circle><circle r="0" cx="95" cy="82"></circle><circle r="5" cx="368" cy="193"></circle><circle r="2" cx="54" cy="480"></circle><circle r="8" cx="129" cy="144"></circle><circle r="6" cx="445" cy="539"></circle><circle r="2" cx="149" cy="96"></circle><circle r="7" cx="331" cy="606"></circle><circle r="1" cx="142" cy="40"></circle><circle r="8" cx="3" cy="676"></circle><circle r="1" cx="418" cy="164"></circle><circle r="10" cx="362" cy="219"></circle><circle r="8" cx="322" cy="897"></circle><circle r="0" cx="386" cy="301"></circle><circle r="5" cx="63" cy="266"></circle><circle r="10" cx="149" cy="870"></circle><circle r="6" cx="101" cy="329"></circle><circle r="8" cx="73" cy="206"></circle><circle r="2" cx="200" cy="396"></circle><circle r="10" cx="260" cy="724"></circle><circle r="10" cx="212" cy="872"></circle><circle r="10" cx="173" cy="320"></circle><circle r="9" cx="400" cy="276"></circle><circle r="7" cx="161" cy="588"></circle><circle r="5" cx="335" cy="327"></circle><circle r="2" cx="394" cy="639"></circle><circle r="4" cx="87" cy="810"></circle><circle r="8" cx="422" cy="709"></circle><circle r="5" cx="330" cy="108"></circle><circle r="7" cx="347" cy="27"></circle><circle r="8" cx="295" cy="485"></circle><circle r="3" cx="389" cy="51"></circle><circle r="4" cx="81" cy="368"></circle><circle r="3" cx="143" cy="688"></circle><circle r="4" cx="382" cy="133"></circle><circle r="4" cx="254" cy="334"></circle><circle r="4" cx="188" cy="710"></circle><circle r="3" cx="1" cy="719"></circle><circle r="1" cx="361" cy="812"></circle><circle r="7" cx="56" cy="665"></circle><circle r="9" cx="279" cy="405"></circle><circle r="9" cx="307" cy="533"></circle><circle r="6" cx="265" cy="455"></circle><circle r="10" cx="36" cy="754"></circle><circle r="5" cx="229" cy="34"></circle><circle r="7" cx="219" cy="358"></circle><circle r="6" cx="4" cy="113"></circle><circle r="7" cx="366" cy="634"></circle><circle r="10" cx="259" cy="523"></circle><circle r="2" cx="2" cy="292"></circle><circle r="8" cx="322" cy="848"></circle><circle r="7" cx="80" cy="769"></circle><circle r="0" cx="184" cy="16"></circle><circle r="1" cx="111" cy="564"></circle><circle r="8" cx="6" cy="410"></circle><circle r="9" cx="229" cy="736"></circle><circle r="7" cx="189" cy="553"></circle><circle r="10" cx="427" cy="125"></circle><circle r="10" cx="191" cy="746"></circle><circle r="9" cx="79" cy="858"></circle><circle r="8" cx="9" cy="388"></circle><circle r="7" cx="2" cy="470"></circle><circle r="7" cx="3" cy="167"></circle><circle r="4" cx="327" cy="660"></circle><circle r="8" cx="404" cy="570"></circle><circle r="4" cx="131" cy="167"></circle><circle r="8" cx="448" cy="291"></circle><circle r="3" cx="135" cy="315"></circle><circle r="5" cx="25" cy="194"></circle><circle r="5" cx="312" cy="760"></circle><circle r="4" cx="449" cy="25"></circle><circle r="7" cx="392" cy="231"></circle><circle r="1" cx="239" cy="653"></circle><circle r="4" cx="298" cy="437"></circle><circle r="2" cx="8" cy="341"></circle><circle r="5" cx="27" cy="74"></circle><circle r="10" cx="353" cy="265"></circle><circle r="0" cx="109" cy="898"></circle><circle r="10" cx="428" cy="753"></circle><circle r="2" cx="151" cy="665"></circle><circle r="10" cx="55" cy="507"></circle><circle r="6" cx="99" cy="717"></circle><circle r="9" cx="386" cy="256"></circle><circle r="8" cx="359" cy="534"></circle><circle r="1" cx="319" cy="303"></circle><circle r="1" cx="138" cy="597"></circle><circle r="4" cx="2" cy="834"></circle><circle r="3" cx="117" cy="645"></circle><circle r="9" cx="449" cy="563"></circle><circle r="2" cx="423" cy="684"></circle><circle r="10" cx="45" cy="151"></circle><circle r="6" cx="113" cy="528"></circle><circle r="6" cx="172" cy="411"></circle><circle r="9" cx="89" cy="576"></circle><circle r="10" cx="298" cy="368"></circle><circle r="1" cx="266" cy="55"></circle><circle r="7" cx="144" cy="464"></circle><circle r="4" cx="347" cy="150"></circle><circle r="7" cx="198" cy="371"></circle><circle r="0" cx="256" cy="842"></circle><circle r="4" cx="172" cy="99"></circle><circle r="0" cx="98" cy="480"></circle><circle r="7" cx="398" cy="855"></circle><circle r="10" cx="166" cy="509"></circle><circle r="8" cx="203" cy="893"></circle><circle r="10" cx="208" cy="72"></circle><circle r="4" cx="104" cy="241"></circle><circle r="10" cx="321" cy="71"></circle><circle r="10" cx="449" cy="345"></circle><circle r="7" cx="106" cy="611"></circle><circle r="1" cx="28" cy="516"></circle><circle r="1" cx="56" cy="45"></circle><circle r="1" cx="283" cy="726"></circle><circle r="7" cx="1" cy="758"></circle></g></svg>