<svg id="visual" viewBox="0 0 450 900" width="450" height="900" xmlns="http://www.w3.org/2000/svg" xmlns:xlink="http://www.w3.org/1999/xlink" version="1.1"><g fill="#A7233A"><circle r="12" cx="323" cy="738"></circle><circle r="1" cx="49" cy="833"></circle><circle r="9" cx="303" cy="200"></circle><circle r="8" cx="371" cy="494"></circle><circle r="2" cx="361" cy="773"></circle><circle r="7" cx="336" cy="543"></circle><circle r="7" cx="32" cy="886"></circle><circle r="7" cx="128" cy="293"></circle><circle r="3" cx="296" cy="715"></circle><circle r="6" cx="325" cy="365"></circle><circle r="1" cx="420" cy="616"></circle><circle r="2" cx="443" cy="685"></circle><circle r="8" cx="169" cy="290"></circle><circle r="2" cx="182" cy="434"></circle><circle r="0" cx="177" cy="694"></circle><circle r="1" cx="26" cy="315"></circle><circle r="9" cx="173" cy="148"></circle><circle r="5" cx="265" cy="507"></circle><circle r="9" cx="148" cy="818"></circle><circle r="5" cx="347" cy="843"></circle><circle r="1" cx="426" cy="354"></circle><circle r="10" cx="152" cy="427"></circle><circle r="1" cx="107" cy="740"></circle><circle r="8" cx="9" cy="478"></circle><circle r="7" cx="174" cy="493"></circle><circle r="10" cx="375" cy="523"></circle><circle r="1" cx="70" cy="68"></circle><circle r="5" cx="266" cy="634"></circle><circle r="0" cx="96" cy="87"></circle><circle r="4" cx="104" cy="252"></circle><circle r="10" cx="307" cy="686"></circle><circle r="3" cx="418" cy="161"></circle><circle r="4" cx="139" cy="585"></circle><circle r="5" cx="33" cy="95"></circle><circle r="0" cx="71" cy="113"></circle><circle r="8" cx="10" cy="298"></circle><circle r="2" cx="179" cy="596"></circle><circle r="4" cx="291" cy="891"></circle><circle r="4" cx="361" cy="581"></circle><circle r="1" cx="387" cy="238"></circle><circle r="7" cx="108" cy="516"></circle><circle r="0" cx="368" cy="870"></circle><circle r="6" cx="248" cy="852"></circle><circle r="5" cx="295" cy="523"></circle><circle r="2" cx="271" cy="871"></circle><circle r="7" cx="84" cy="831"></circle><circle r="3" cx="195" cy="853"></circle><circle r="7" cx="2" cy="596"></circle><circle r="0" cx="17" cy="830"></circle><circle r="8" cx="149" cy="347"></circle><circle r="3" cx="303" cy="457"></circle><circle r="5" cx="354" cy="391"></circle><circle r="6" cx="18" cy="339"></circle><circle r="1" cx="86" cy="268"></circle><circle r="8" cx="225" cy="473"></circle><circle r="7" cx="376" cy="700"></circle><circle r="1" cx="179" cy="551"></circle><circle r="1" cx="7" cy="58"></circle><circle r="0" cx="151" cy="631"></circle><circle r="9" cx="411" cy="640"></circle><circle r="6" cx="178" cy="60"></circle><circle r="6" cx="339" cy="37"></circle><circle r="2" cx="265" cy="816"></circle><circle r="1" cx="449" cy="810"></circle><circle r="8" cx="195" cy="475"></circle><circle r="6" cx="110" cy="485"></circle></g></svg>