<svg id="visual" viewBox="0 0 450 900" width="450" height="900" xmlns="http://www.w3.org/2000/svg" xmlns:xlink="http://www.w3.org/1999/xlink" version="1.1"><g fill="#f9dc0a"><circle r="12" cx="251" cy="311"></circle><circle r="1" cx="278" cy="887"></circle><circle r="4" cx="54" cy="270"></circle><circle r="9" cx="25" cy="757"></circle><circle r="7" cx="365" cy="461"></circle><circle r="3" cx="165" cy="790"></circle><circle r="8" cx="214" cy="32"></circle><circle r="2" cx="330" cy="445"></circle><circle r="7" cx="136" cy="237"></circle><circle r="6" cx="90" cy="318"></circle><circle r="1" cx="58" cy="568"></circle><circle r="4" cx="355" cy="795"></circle><circle r="5" cx="199" cy="567"></circle><circle r="6" cx="165" cy="103"></circle><circle r="2" cx="441" cy="708"></circle><circle r="10" cx="307" cy="766"></circle><circle r="6" cx="306" cy="826"></circle><circle r="6" cx="309" cy="717"></circle><circle r="2" cx="240" cy="876"></circle><circle r="2" cx="47" cy="511"></circle><circle r="1" cx="329" cy="563"></circle><circle r="6" cx="390" cy="701"></circle><circle r="9" cx="248" cy="191"></circle><circle r="2" cx="75" cy="870"></circle><circle r="9" cx="384" cy="756"></circle><circle r="10" cx="68" cy="450"></circle><circle r="7" cx="14" cy="537"></circle><circle r="3" cx="88" cy="11"></circle><circle r="9" cx="136" cy="766"></circle><circle r="7" cx="319" cy="134"></circle><circle r="0" cx="196" cy="670"></circle><circle r="1" cx="186" cy="639"></circle><circle r="0" cx="317" cy="597"></circle><circle r="8" cx="301" cy="884"></circle><circle r="8" cx="244" cy="728"></circle><circle r="7" cx="92" cy="390"></circle><circle r="7" cx="52" cy="50"></circle><circle r="8" cx="94" cy="704"></circle><circle r="7" cx="358" cy="31"></circle><circle r="0" cx="93" cy="356"></circle><circle r="5" cx="445" cy="341"></circle><circle r="8" cx="330" cy="261"></circle><circle r="10" cx="371" cy="232"></circle><circle r="9" cx="284" cy="2"></circle><circle r="7" cx="183" cy="434"></circle><circle r="9" cx="87" cy="827"></circle><circle r="0" cx="53" cy="726"></circle><circle r="9" cx="378" cy="805"></circle><circle r="0" cx="208" cy="777"></circle><circle r="4" cx="130" cy="733"></circle><circle r="0" cx="58" cy="95"></circle><circle r="6" cx="151" cy="595"></circle><circle r="1" cx="365" cy="371"></circle><circle r="3" cx="202" cy="320"></circle><circle r="5" cx="397" cy="862"></circle><circle r="3" cx="277" cy="835"></circle><circle r="10" cx="279" cy="683"></circle><circle r="8" cx="330" cy="36"></circle><circle r="4" cx="296" cy="327"></circle><circle r="0" cx="346" cy="716"></circle><circle r="2" cx="84" cy="519"></circle><circle r="4" cx="302" cy="455"></circle><circle r="10" cx="291" cy="636"></circle><circle r="0" cx="229" cy="275"></circle><circle r="4" cx="313" cy="404"></circle><circle r="4" cx="332" cy="167"></circle></g></svg>