<svg version="1.1" id="lavalamp" xmlns="http://www.w3.org/2000/svg" xmlns:xlink="http://www.w3.org/1999/xlink" x="0px" y="0px" viewBox="0 0 100 100" style="enable-background:new 0 0 100 100;" xml:space="preserve">
    <defs>
        <linearGradient id="bodyfill" gradientUnits="objectBoundingBox" x1="0" y1="0" x2="100%" y2="0">
            <stop offset="0%" style="stop-color:#A7A3A0" />
            <stop offset="25%" style="stop-color:#CCC7C2" />
            <stop offset="50%" style="stop-color:#E0E1E2" />
            <stop offset="75%" style="stop-color:#CCC7C2" />
            <stop offset="100%" style="stop-color:#A7A3A0" />
        </linearGradient>
        <radialGradient id="liquidfill" cx="50" cy="41.1552" r="24.2406" fx="49.988" fy="51.2048" gradientTransform="matrix(1 0 0 1.5 0 -20.5776)" gradientUnits="userSpaceOnUse">
            <stop offset="0.18" style="stop-color:#3b3d3d" />
            <stop offset="0.66" style="stop-color:#292a2b" />
            <stop offset="1" style="stop-color:#0b0c0c" />
        </radialGradient>
        <radialGradient id="blobfill" cx="50" cy="41.1552" r="29.695" fx="49.2236" fy="68.4283" gradientTransform="matrix(1 0 0 1.5 0 -20.5776)" gradientUnits="objectBoundingBox">
            <stop offset="0.2" style="stop-color:#f1f7a1" />
            <stop offset="0.4" style="stop-color:#fff8b5" />
            <stop offset="0.6" style="stop-color:#f0ed68" />
            <stop offset="0.8" style="stop-color:#fff178" />
            <stop offset="0.8978" style="stop-color:#f88048" />
        </radialGradient>
        <clipPath id="blobclippath">
            <polygon points="32.4,70.5 39.8,11.8 60.2,11.8 67.6,70.5 " />
        </clipPath>
    </defs>


    <polygon class="lamp body" points="32.4,70.5 39.8,11.8 60.2,11.8 67.6,70.5 " />
    <path class=" lamp top" d="M39.8,11.8l1.4-9.2C41.4,1.1,42.7,0,44.1,0h11.8c1.5,0,2.7,1.1,2.9,2.5l1.4,9.2L39.8,11.8z" />
    <polygon class="lamp bottom" points="
	67.6,70.5 58.8,85.3 41.2,85.3 32.4,70.5 " />
    <path class="lamp base" d="M35.3,100c-2.3,0-3.7-2.5-2.5-4.5l8.4-10.3h17.6l8.4,10.3c1.2,2-0.2,4.5-2.5,4.5H35.3z" />
    
    <g clip-path="url(#blobclippath)" class="blobs">

        <circle id="blob1" class="blob" cx="37.6" cy="71.5" r="4.4" />
        <circle class="blob" id="blob2" cx="63.1" cy="70.6" r="2.9" />

        <g id="blobgroup">
            <circle id="groupblob1" class="blob" cx="51" cy="74.5" r="6.8" />
            <circle id="groupblob2" class="blob" cx="44.5" cy="68.5" r="4" />
        </g>
        <path class="blobbase" d="
	M32.4,70.5h35.3l-0.5-3.9c0,0-7.8,1-10.5,1c-3.1,0-9.1-1-12.2-1c-2.4,0-7.1,0.5-9.5,0.6c-0.5,0-2.2,0-2.2,0L32.4,70.5z" />
        <path class="blobpath" id="blobpath1" d="M37.098,70.45 C44.171,64.194 53.514,46.395 58,38.9 60.718,34.358 65.343,19.866 56.013,16.74 47.723,13.952 41.208,20.227 39.611,27.889 38.632,32.564 38.692,37.799 43.296,43.799 49.192,51.599 63.741,65.643 64.049,70.164 64.345,74.441 40.506,72.795 37.098,70.451" style="stroke: transparent; stroke-width: 16; fill: none;" vector-effect="non-scaling-stroke;"></path>
        <path id="basemorphto1" d="
	M32.4,70.5h35.3l-0.5-3.9c0,0-6.4-1.1-9-1.1c-3.1,0-10.1,2.5-13.2,2.5c-2.4,0-7-1.4-9.7-1.4c-1.5,0-2.5,0.6-2.5,0.6L32.4,70.5z" />
        <g>
            <path id="basemorphto2" visibility="hidden" d="M 32.4 70.5 L 67.7 70.5 L 67.2 66.6 C 67.2 66.6 62.772 68.726 60.172 68.726 C 57.072 68.726 55.257 66.715 52.707 64.953 C 48.812 62.261 43.416 66.493 41.572 68.034 C 40.421 68.996 32.8 67.2 32.8 67.2 L 32.4 70.5 Z" />
        </g>
    </g>

    <path class="blobpath" id="blobpath2" d="M59.982,70.794 C63.128,67.58 68.872,34.3 59.781,30.4 54.903,28.307 61.226,13.978 48.424,14.485 39.672,14.831 50.482,28.772 48.903,32.616 46.982,36.995 34.869,40.94 38.247,47.718 44.225,59.712 37.494,67.449 41.837,66.239 51.858,63.446 55.642,64.634 59.706,70.934 " style="stroke: transparent; stroke-width: 16; fill: none;" vector-effect="non-scaling-stroke;"></path>
    <path id="blobgrouppath" class="blobpath" d="M51.299,75.068 C57.699,74.66 62.014,68.63 62.852,58.936 63.318,53.504 60.174,30.549 58.601,21.735 57.631,16.337 47.313,7.168 43.149,22.038 41.28,28.711 36.199,44.741 38.4,55.241 40,62.634 45.299,75.469 51.299,75.069" />


</svg>