<?xml version="1.0" encoding="UTF-8" standalone="no"?>
<svg
   version="1.1"
   id="lavalamp"
   x="0px"
   y="0px"
   viewBox="0 0 36 100"
   style="enable-background:new 0 0 100 100;"
   xml:space="preserve"
   sodipodi:docname="base_rearr.svg"
   inkscape:version="1.1.1 (1:1.1+202109281949+c3084ef5ed)"
   xmlns:inkscape="http://www.inkscape.org/namespaces/inkscape"
   xmlns:sodipodi="http://sodipodi.sourceforge.net/DTD/sodipodi-0.dtd"
   xmlns="http://www.w3.org/2000/svg"
   xmlns:svg="http://www.w3.org/2000/svg"><sodipodi:namedview
     id="namedview61"
     pagecolor="#505050"
     bordercolor="#ffffff"
     borderopacity="1"
     inkscape:pageshadow="0"
     inkscape:pageopacity="0"
     inkscape:pagecheckerboard="1"
     showgrid="false"
     inkscape:zoom="4.06"
     inkscape:cx="37.561576"
     inkscape:cy="44.08867"
     inkscape:window-width="1360"
     inkscape:window-height="679"
     inkscape:window-x="0"
     inkscape:window-y="21"
     inkscape:window-maximized="1"
     inkscape:current-layer="basemorphgroup" /><defs
     id="defs34"><clipPath
       id="blobclippath"><polygon
         points="32.4,70.5 39.8,11.8 60.2,11.8 67.6,70.5 "
         id="polygon31" /></clipPath></defs><polygon
     class="lamp body"
     points="67.6,70.5 32.4,70.5 39.8,11.8 60.2,11.8 "
     id="body"
     transform="translate(-31.539654,0.55060927)" /><path
     class=" lamp top"
     d="m 8.2603461,12.350609 1.4,-9.1999997 c 0.2,-1.5 1.4999999,-2.60000003 2.8999999,-2.60000003 h 11.8 c 1.5,0 2.7,1.10000003 2.9,2.50000003 l 1.4,9.1999997 z"
     id="head" /><polygon
     class="lamp bottom"
     points="58.8,85.3 41.2,85.3 32.4,70.5 67.6,70.5 "
     id="base"
     transform="translate(-31.539654,0.55060927)" /><path
     class="lamp base"
     d="m 3.7603461,100.55061 c -2.3,0 -3.70000001,-2.500001 -2.5,-4.500001 l 8.4,-10.3 H 27.260346 l 8.4,10.3 c 1.2,2 -0.2,4.500001 -2.5,4.500001 z"
     id="leg" /><g
     clip-path="url(#blobclippath)"
     class="blobs"
     id="blobmotionarea"
     transform="translate(-31.539654,0.55062339)"><path
       id="blob1"
       class="blob one"
       d="m 51.299,75.069 c -1.795862,2.821778 -8.548302,2.975693 -10.200494,0.153916 -1.580358,-2.821778 1.939531,-8.516638 5.31575,-8.567943 3.37622,-0.10261 6.608771,5.540945 4.884744,8.414027"
       fill="#000000"
       style="stroke-width:0.60708" /><path
       class="blob"
       id="blob2 two"
       d="m 52.521,68.523936 c 2.214558,2.80644 10.580665,3.104996 12.549161,0.477692 1.906981,-2.687016 -2.522135,-8.299892 -6.705189,-8.419315 -4.183054,-0.179135 -8.05853,5.135185 -5.843972,7.941623"
       fill="#000000"
       style="stroke-width:0.606068" /><g
       id="blobgroup"
       transform="matrix(0.67353155,0,0,0.5847093,51.182797,53.993416)"><path
         id="groupblob1"
         class="blob"
         d="m 7.4934125,48.407101 c -2.6,5.7 -12.3,6.1 -14.5,0.6 -2.3,-5.4 2.9,-16.8 7.8,-17 4.8,-0.2 9.3000005,10.8 6.7,16.4"
         fill="#000000" /><path
         id="groupblob2"
         class="blob"
         d="m 13.064277,28.733224 c 1.8,0.7 0.7,5.4 -1.6,7.7 -2.4000002,2.4 -6.0000002,2.4 -7.9000002,6.2 -1.8,3.9 -1.8,11.5 -3.19999999,12.9 -1.40000001,1.5 -4.30000001,-3.4 -8.40000001,-7.2 -4.1999998,-3.8 -9.6999998,-6.7 -8.2999998,-8.1 1.4,-1.4 9.7999998,-1.4 13.8999998,-2.1 4.2,-0.6 4.2,-2 6.6,-4.3 2.3,-2.4 7.0000002,-5.8 8.9000002,-5.1"
         fill="#000000" /></g><g
       id="basemorphgroup"><path
         class="blobbase base1"
         d="M 32.299997,70.5 H 67.6 l -0.5,-3.9 c 0,0 -7.8,1 -10.5,1 -3.1,0 -9.1,-1 -12.2,-1 -2.4,0 -7.100003,0.5 -9.500003,0.6 -0.5,0 -2.2,0 -2.2,0 z"
         id="basemorphto0" /><path
         id="basemorphto1"
         d="M 32.299996,70.5 H 67.6 l -0.5,-3.9 c 0,0 -6.4,-1.1 -9.000004,-1.1 -3.1,0 -10.1,2.5 -13.2,2.5 -2.4,0 -7,-1.4 -9.7,-1.4 -1.5,0 -2.5,0.6 -2.5,0.6 z"
         class="base2" /><path
         id="basemorphto2"
         visibility="hidden"
         d="m 32.3,70.5 h 35.3 l -0.5,-3.9 c 0,0 -4.428,2.126 -7.028,2.126 -3.1,0 -4.915,-2.011 -7.465,-3.773 -3.895,-2.692 -9.291,1.54 -11.135,3.081 C 40.321,68.996 32.7,67.2 32.7,67.2 Z"
         class="base3" /></g></g><path
     class="blobpath"
     id="blobpath1"
     d="M 5.7987434,72.280073 C 12.871739,65.052994 22.214739,44.491169 26.700739,35.832768 c 2.718,-5.247025 7.343,-21.988524 -1.987,-25.599753 -8.29,-3.2207635 -14.8049996,4.028264 -16.4019996,12.879588 -0.978996,5.400669 -0.918996,11.448264 3.6849996,18.379606 5.896,9.010744 20.445,25.234704 20.753,30.45747 0.296,4.940891 -23.5429996,3.039393 -26.9509956,0.331549"
     style="fill:none;stroke-width:17.197"
     vector-effect="non-scaling-stroke;" /><path
     class="blobpath path2"
     id="blobpath2"
     d="m 26.520671,77.72744 c 3.146,-3.866848 8.89,-43.906895 -0.201,-48.599088 -4.878,-2.518143 1.445,-19.7577413 -11.357,-19.1477562 -8.7520002,0.4162822 2.058,17.1890672 0.479,21.8138852 -1.921,5.26849 -14.0340002,10.014824 -10.6560002,18.169614 5.9780002,14.430299 -0.753,23.738887 3.59,22.283105 10.0210002,-3.360332 13.8050002,-1.931018 17.8690002,5.648678"
     style="fill:none;stroke-width:17.5499"
     vector-effect="non-scaling-stroke;" /><path
     id="blobgrouppath path3"
     class="blobpath"
     d="m 19.759346,75.618515 c 6.4,-0.452033 10.715,-7.13282 11.553,-17.873043 0.466,-6.018248 -2.678,-31.450664 -4.251,-41.215913 -0.97,-5.980579 -11.288,-16.13914132 -15.452,0.335701 -1.869,7.393182 -6.95,25.153218 -4.749,36.786429 1.6,8.190889 6.899,22.411104 12.899,21.967934"
     style="stroke-width:1.05258" /></svg>
