<?xml version="1.0" encoding="UTF-8" standalone="no"?>
<svg
   version="1.1"
   id="lavalamp"
   x="0px"
   y="0px"
   viewBox="0 0 36 100"
   style="enable-background:new 0 0 100 100;"
   xml:space="preserve"
   sodipodi:docname="base_separated.svg"
   inkscape:version="1.1.1 (1:1.1+202109281949+c3084ef5ed)"
   xmlns:inkscape="http://www.inkscape.org/namespaces/inkscape"
   xmlns:sodipodi="http://sodipodi.sourceforge.net/DTD/sodipodi-0.dtd"
   xmlns="http://www.w3.org/2000/svg"
   xmlns:svg="http://www.w3.org/2000/svg"><sodipodi:namedview
     id="namedview61"
     pagecolor="#505050"
     bordercolor="#ffffff"
     borderopacity="1"
     inkscape:pageshadow="0"
     inkscape:pageopacity="0"
     inkscape:pagecheckerboard="1"
     showgrid="false"
     inkscape:zoom="4.06"
     inkscape:cx="37.315271"
     inkscape:cy="44.08867"
     inkscape:window-width="1360"
     inkscape:window-height="679"
     inkscape:window-x="0"
     inkscape:window-y="21"
     inkscape:window-maximized="1"
     inkscape:current-layer="lavalamp" /><defs
     id="defs34"><clipPath
       id="blobclippath">
                                        <polygon
   points="32.4,70.5 39.8,11.8 60.2,11.8 67.6,70.5 "
   id="polygon31" />
                                    </clipPath></defs><polygon
     class="lamp body"
     points="60.2,11.8 67.6,70.5 32.4,70.5 39.8,11.8 "
     id="body"
     transform="translate(-106.30285,4.3948094)" /><path
     class=" lamp top"
     d="m 8.2603461,12.350609 1.4,-9.1999997 c 0.2,-1.5 1.4999999,-2.60000003 2.8999999,-2.60000003 h 11.8 c 1.5,0 2.7,1.10000003 2.9,2.50000003 l 1.4,9.1999997 z"
     id="head" /><polygon
     class="lamp bottom"
     points="58.8,85.3 41.2,85.3 32.4,70.5 67.6,70.5 "
     id="base"
     transform="translate(-31.539654,0.55060927)" /><path
     class="lamp base"
     d="m 3.7603461,100.55061 c -2.3,0 -3.70000001,-2.500001 -2.5,-4.500001 l 8.4,-10.3 H 27.260346 l 8.4,10.3 c 1.2,2 -0.2,4.500001 -2.5,4.500001 z"
     id="leg" /><g
     clip-path="url(#blobclippath)"
     class="blobs"
     id="blobmotionarea"
     transform="translate(-31.539654,0.55060927)"><path
       id="blob1"
       class="blob"
       d="m 51.299,75.069 c -1.795862,2.821778 -8.548302,2.975693 -10.200494,0.153916 -1.580358,-2.821778 1.939531,-8.516638 5.31575,-8.567943 3.37622,-0.10261 6.608771,5.540945 4.884744,8.414027"
       fill="#000000"
       style="stroke-width:0.60708" /><path
       class="blob"
       id="blob2"
       d="m 52.521,68.523936 c 2.214558,2.80644 10.580665,3.104996 12.549161,0.477692 1.906981,-2.687016 -2.522135,-8.299892 -6.705189,-8.419315 -4.183054,-0.179135 -8.05853,5.135185 -5.843972,7.941623"
       fill="#000000"
       style="stroke-width:0.606068" /><g
       id="blobgroup"
       transform="matrix(0.67353155,0,0,0.5847093,51.182797,53.993416)"><path
         id="groupblob1"
         class="blob"
         d="m 7.4934125,48.407101 c -2.6,5.7 -12.3,6.1 -14.5,0.6 -2.3,-5.4 2.9,-16.8 7.8,-17 4.8,-0.2 9.3000005,10.8 6.7,16.4"
         fill="#000000" /><path
         id="groupblob2"
         class="blob"
         d="m 13.064277,28.733224 c 1.8,0.7 0.7,5.4 -1.6,7.7 -2.4000002,2.4 -6.0000002,2.4 -7.9000002,6.2 -1.8,3.9 -1.8,11.5 -3.19999999,12.9 -1.40000001,1.5 -4.30000001,-3.4 -8.40000001,-7.2 -4.1999998,-3.8 -9.6999998,-6.7 -8.2999998,-8.1 1.4,-1.4 9.7999998,-1.4 13.8999998,-2.1 4.2,-0.6 4.2,-2 6.6,-4.3 2.3,-2.4 7.0000002,-5.8 8.9000002,-5.1"
         fill="#000000" /></g><path
       class="blobpath"
       id="blobpath1"
       d="m 98.064304,48.967113 c 7.072996,-6.256 16.415996,-24.055 20.901996,-31.55 2.718,-4.542 7.343,-19.0339997 -1.987,-22.1599997 -8.29,-2.788 -14.805,3.487 -16.402,11.149 -0.978996,4.6749997 -0.918996,9.9099997 3.685,15.9099997 5.896,7.8 20.445,21.844 20.753,26.365 0.296,4.277 -23.543,2.631 -26.950996,0.287"
       style="fill:none;stroke-width:16"
       vector-effect="non-scaling-stroke;" /><g
       id="basemorphgroup"><path
         class="blobbase"
         d="m 93.337847,78.180575 h 35.300003 l -0.5,-3.9 c 0,0 -7.8,1 -10.5,1 -3.1,0 -9.1,-1 -12.2,-1 -2.4,0 -7.100003,0.5 -9.500003,0.6 -0.5,0 -2.2,0 -2.2,0 z"
         id="basemorphto0" /><path
         id="basemorphto1"
         d="m 71.627686,87.227902 h 35.300004 l -0.5,-3.9 c 0,0 -6.4,-1.1 -9.000004,-1.1 -3.1,0 -10.1,2.5 -13.2,2.5 -2.4,0 -7,-1.4 -9.7,-1.4 -1.5,0 -2.5,0.6 -2.5,0.6 z" /><path
         id="basemorphto2"
         visibility="hidden"
         d="M -2.7760939,86.208848 H 32.523906 l -0.5,-3.9 c 0,0 -4.428,2.126 -7.028,2.126 -3.1,0 -4.915,-2.011 -7.465,-3.773 -3.895,-2.692 -9.2909999,1.54 -11.1349999,3.081 -1.151,0.962 -8.772,-0.834 -8.772,-0.834 z" /></g></g><path
     class="blobpath"
     id="blobpath2"
     d="m -7.7331911,73.382311 c 3.146,-3.214 8.89,-36.494 -0.201,-40.394 -4.8779999,-2.093 1.445,-16.422 -11.3569999,-15.915 -8.752,0.346 2.058,14.287 0.479,18.131 -1.921,4.379 -14.034,8.324 -10.656,15.102 5.978,11.994 -0.753,19.731 3.59,18.521 10.021,-2.793 13.805,-1.605 17.8689999,4.695"
     style="fill:none;stroke-width:16"
     vector-effect="non-scaling-stroke;" /><path
     id="blobgrouppath"
     class="blobpath"
     d="m 54.758468,76.447447 c 6.4,-0.408 10.715,-6.438 11.553,-16.132 0.466,-5.432 -2.678,-28.387 -4.251,-37.201 -0.97,-5.398 -11.288,-14.5669998 -15.452,0.303 -1.869,6.673 -6.95,22.703 -4.749,33.203 1.6,7.393 6.899,20.228 12.899,19.828" /></svg>
