<?xml version="1.0" encoding="UTF-8" standalone="no"?>
<svg
   version="1.1"
   id="lavalamp"
   x="0px"
   y="0px"
   viewBox="0 0 36 100"
   style="enable-background:new 0 0 100 100;"
   xml:space="preserve"
   sodipodi:docname="base.svg"
   inkscape:version="1.1.1 (1:1.1+202109281949+c3084ef5ed)"
   xmlns:inkscape="http://www.inkscape.org/namespaces/inkscape"
   xmlns:sodipodi="http://sodipodi.sourceforge.net/DTD/sodipodi-0.dtd"
   xmlns="http://www.w3.org/2000/svg"
   xmlns:svg="http://www.w3.org/2000/svg"><sodipodi:namedview
     id="namedview61"
     pagecolor="#505050"
     bordercolor="#ffffff"
     borderopacity="1"
     inkscape:pageshadow="0"
     inkscape:pageopacity="0"
     inkscape:pagecheckerboard="1"
     showgrid="false"
     inkscape:zoom="4.06"
     inkscape:cx="50.123153"
     inkscape:cy="44.08867"
     inkscape:window-width="1360"
     inkscape:window-height="679"
     inkscape:window-x="0"
     inkscape:window-y="21"
     inkscape:window-maximized="1"
     inkscape:current-layer="lavalamp" /><defs
     id="defs34"><clipPath
       id="blobclippath">
                                        <polygon
   points="32.4,70.5 39.8,11.8 60.2,11.8 67.6,70.5 "
   id="polygon31" />
                                    </clipPath></defs><polygon
     class="lamp body"
     points="39.8,11.8 60.2,11.8 67.6,70.5 32.4,70.5 "
     id="polygon36"
     transform="translate(-31.539654,0.55060927)" /><path
     class=" lamp top"
     d="m 8.2603461,12.350609 1.4,-9.1999997 c 0.2,-1.5 1.4999999,-2.60000003 2.8999999,-2.60000003 h 11.8 c 1.5,0 2.7,1.10000003 2.9,2.50000003 l 1.4,9.1999997 z"
     id="path38" /><polygon
     class="lamp bottom"
     points="58.8,85.3 41.2,85.3 32.4,70.5 67.6,70.5 "
     id="polygon40"
     transform="translate(-31.539654,0.55060927)" /><path
     class="lamp base"
     d="m 3.7603461,100.55061 c -2.3,0 -3.70000001,-2.500001 -2.5,-4.500001 l 8.4,-10.3 H 27.260346 l 8.4,10.3 c 1.2,2 -0.2,4.500001 -2.5,4.500001 z"
     id="path42" /><g
     clip-path="url(#blobclippath)"
     class="blobs"
     id="g56"
     transform="translate(-31.539654,0.55060927)">
                                    <path
   id="blob1"
   class="blob"
   d="M 6.6,2.5 C 4.1,8 -5.3,8.3 -7.6,2.8 -9.8,-2.7 -4.9,-13.8 -0.2,-13.9 4.5,-14.1 9,-3.1 6.6,2.5"
   fill="#000000" />
                                    <path
   class="blob"
   id="blob2"
   d="M 9.1,6.8 C 5.5,11.5 -8.1,12 -11.3,7.6 -14.4,3.1 -7.2,-6.3 -0.4,-6.5 6.4,-6.8 12.7,2.1 9.1,6.8"
   fill="#000000" />

                                    <!--<circle id="blob1" class="blob" cx="37.6" cy="71.5" r="4.4" />
                                    <circle class="blob" id="blob2" cx="63.1" cy="70.6" r="2.9" />
                                    -->
                                    <g
   id="blobgroup">
                                        <!-- 
                                            <circle id="groupblob1" class="blob" cx="51" cy="74.5" r="6.8" />
                                        <circle id="groupblob2" class="blob" cx="44.5" cy="68.5" r="4" />
                                    -->
                                        <path
   id="groupblob1"
   class="blob"
   d="M 6.4,2.5 C 3.8,8.2 -5.9,8.6 -8.1,3.1 c -2.3,-5.4 2.9,-16.8 7.8,-17 4.8,-0.2 9.3,10.8 6.7,16.4"
   fill="#000000" />
                                        <path
   id="groupblob2"
   class="blob"
   d="M 11.3,-10.1 C 13.1,-9.4 12,-4.7 9.7,-2.4 7.3,0 3.7,0 1.8,3.8 0,7.7 0,15.3 -1.4,16.7 -2.8,18.2 -5.7,13.3 -9.8,9.5 -14,5.7 -19.5,2.8 -18.1,1.4 -16.7,0 -8.3,0 -4.2,-0.7 0,-1.3 0,-2.7 2.4,-5 c 2.3,-2.4 7,-5.8 8.9,-5.1"
   fill="#000000" />

                                    </g>
                                    <path
   class="blobbase"
   d="m 32.4,70.5 h 35.3 l -0.5,-3.9 c 0,0 -7.8,1 -10.5,1 -3.1,0 -9.1,-1 -12.2,-1 -2.4,0 -7.1,0.5 -9.5,0.6 -0.5,0 -2.2,0 -2.2,0 z"
   id="path49" />
                                    <path
   class="blobpath"
   id="blobpath1"
   d="M 37.098,70.45 C 44.171,64.194 53.514,46.395 58,38.9 c 2.718,-4.542 7.343,-19.034 -1.987,-22.16 -8.29,-2.788 -14.805,3.487 -16.402,11.149 -0.979,4.675 -0.919,9.91 3.685,15.91 5.896,7.8 20.445,21.844 20.753,26.365 0.296,4.277 -23.543,2.631 -26.951,0.287"
   style="fill:none;stroke-width:16"
   vector-effect="non-scaling-stroke;" />
                                    <path
   id="basemorphto1"
   d="m 32.4,70.5 h 35.3 l -0.5,-3.9 c 0,0 -6.4,-1.1 -9,-1.1 -3.1,0 -10.1,2.5 -13.2,2.5 -2.4,0 -7,-1.4 -9.7,-1.4 -1.5,0 -2.5,0.6 -2.5,0.6 z" />
                                    <g
   id="g54">
                                        <path
   id="basemorphto2"
   visibility="hidden"
   d="m 32.4,70.5 h 35.3 l -0.5,-3.9 c 0,0 -4.428,2.126 -7.028,2.126 -3.1,0 -4.915,-2.011 -7.465,-3.773 -3.895,-2.692 -9.291,1.54 -11.135,3.081 C 40.421,68.996 32.8,67.2 32.8,67.2 Z" />
                                    </g>
                                </g><path
     class="blobpath"
     id="blobpath2"
     d="m 28.442346,71.344609 c 3.146,-3.214 8.89,-36.494 -0.201,-40.394 -4.878,-2.093 1.445,-16.422 -11.357,-15.915 -8.7519999,0.346 2.058,14.287 0.479,18.131 -1.921,4.379 -14.0339999,8.324 -10.6559999,15.102 5.9779999,11.994 -0.753,19.731 3.5899999,18.521 10.021,-2.793 13.805,-1.605 17.869,4.695"
     style="fill:none;stroke-width:16"
     vector-effect="non-scaling-stroke;" /><path
     id="blobgrouppath"
     class="blobpath"
     d="m 19.759346,75.618609 c 6.4,-0.408 10.715,-6.438 11.553,-16.132 0.466,-5.432 -2.678,-28.387 -4.251,-37.201 -0.97,-5.398 -11.288,-14.5669997 -15.452,0.303 -1.8689999,6.673 -6.9499999,22.703 -4.7489999,33.203 1.6,7.393 6.8989999,20.228 12.8989999,19.828" /></svg>
