<svg width="100%" height="100%" version="1.1" id="lavalamp" x="0px" y="0px" viewBox="0 0 36 100" style="enable-background:new 0 0 100 100;" xml:space="preserve" sodipodi:docname="base_rearr.svg" inkscape:version="1.1.1 (1:1.1+202109281949+c3084ef5ed)"
xmlns:inkscape="http://www.inkscape.org/namespaces/inkscape" xmlns:sodipodi="http://sodipodi.sourceforge.net/DTD/sodipodi-0.dtd" xmlns="http://www.w3.org/2000/svg" xmlns:svg="http://www.w3.org/2000/svg">

<defs id="defs34">
    <linearGradient id="bodyfill" gradientUnits="objectBoundingBox" x1="0" y1="0" x2="100%"
        y2="0">
        <stop offset="0%" style="stop-color:#c9c6c4" />
        <stop offset="25%" style="stop-color:#CCC7C2" />
        <stop offset="50%" style="stop-color:#E0E1E2" />
        <stop offset="75%" style="stop-color:#CCC7C2" />
        <stop offset="100%" style="stop-color:#9c9a98" />
    </linearGradient>
    <radialGradient id="liquidfill" cx="50" cy="41.1552" r="24.2406" fx="49.988"
        fy="51.2048" gradientTransform="matrix(1 0 0 1.5 0 -20.5776)"
        gradientUnits="userSpaceOnUse">
        <!--
    <stop offset="0.18" style="stop-color:#3b3d3d" />
    <stop offset="0.66" style="stop-color:#292a2b" />
    <stop offset="1" style="stop-color:#0b0c0c" />
    -->
        <stop offset="0.18" style="stop-color:#c9e5e5" />
        <stop offset="0.66" style="stop-color:#c6d3e0" />
        <stop offset="1" style="stop-color:#dae9e9" />
    </radialGradient>
    <radialGradient id="blobfill" cx="50" cy="41.1552" r="29.695" fx="49.2236" fy="68.4283"
        gradientTransform="matrix(1 0 0 1.5 0 -20.5776)" gradientUnits="objectBoundingBox">
        <stop offset="0.2" style="stop-color:#f1f7a1" />
        <stop offset="0.4" style="stop-color:#fff8b5" />
        <stop offset="0.6" style="stop-color:#f0ed68" />
        <stop offset="0.8" style="stop-color:#e7e09e" />
        <stop offset="0.8978" style="stop-color:#fda67e" />
        <stop offset="0.9785" style="stop-color:#fd867e" />
    </radialGradient>
    <radialGradient id="blobfill-darker" cx="50" cy="41.1552" r="29.695" fx="49.2236"
        fy="68.4283" gradientTransform="matrix(1 0 0 1.5 0 -20.5776)"
        gradientUnits="objectBoundingBox">
        <stop offset="0.2" style="stop-color:#f7bca1" />
        <stop offset="0.4" style="stop-color:#ffd3b5" />
        <stop offset="0.6" style="stop-color:#f0c568" />
        <stop offset="0.8" style="stop-color:#e7bf9e" />
        <stop offset="0.8978" style="stop-color:#fd7e7e" />
        <stop offset="0.9785" style="stop-color:#f85656" />
    </radialGradient>
    <clipPath id="blobclippath">
        <polygon points="32.4,70.5 39.8,11.8 60.2,11.8 67.6,70.5 " id="polygon31" />
    </clipPath>
</defs>
<polygon class="lamp body" points="67.6,70.5 32.4,70.5 39.8,11.8 60.2,11.8 " id="body"
    transform="translate(-31.539654,0.55060927)" />
<path class=" lamp top"
    d="m 8.2603461,12.350609 1.4,-9.1999997 c 0.2,-1.5 1.4999999,-2.60000003 2.8999999,-2.60000003 h 11.8 c 1.5,0 2.7,1.10000003 2.9,2.50000003 l 1.4,9.1999997 z"
    id="head" />
<polygon class="lamp bottom" points="58.8,85.3 41.2,85.3 32.4,70.5 67.6,70.5 " id="base"
    transform="translate(-31.539654,0.55060927)" />
<path class="lamp base"
    d="m 3.7603461,100.55061 c -2.3,0 -3.70000001,-2.500001 -2.5,-4.500001 l 8.4,-10.3 H 27.260346 l 8.4,10.3 c 1.2,2 -0.2,4.500001 -2.5,4.500001 z"
    id="leg" />
<!--clip-path="url(#blobclippath)"-->
<g class="blobs" id="blobmotionarea" clip-path="url(#blobclippath)"
    transform="translate(-31.539654,0.55060927)">
    <path class="blob one"
        d="m 51.299,75.069 c -1.795862,2.821778 -8.548302,2.975693 -10.200494,0.153916 -1.580358,-2.821778 1.939531,-8.516638 5.31575,-8.567943 3.37622,-0.10261 6.608771,5.540945 4.884744,8.414027"
        fill="#000000" style="stroke-width:0.60708" />
    <path id="blob2" class="blob two blob-dark"
        d="m 52.521,68.523936 c 2.214558,2.80644 10.580665,3.104996 12.549161,0.477692 1.906981,-2.687016 -2.522135,-8.299892 -6.705189,-8.419315 -4.183054,-0.179135 -8.05853,5.135185 -5.843972,7.941623"
        fill="#000000" style="stroke-width:0.606068" />
    <g id="blobgroup" transform="matrix(0.67353155,0,0,0.5847093,51.182797,53.993416)">
        <path id="groupblob1" class="blob three"
            d="m 7.4934125,48.407101 c -2.6,5.7 -12.3,6.1 -14.5,0.6 -2.3,-5.4 2.9,-16.8 7.8,-17 4.8,-0.2 9.3000005,10.8 6.7,16.4"
            fill="#000000" />
        <path id="groupblob2" class="blob four blob-dark"
            d="m 3.5642768,42.633224 c -1.8,3.9 -5.6147526,5.260022 -7.0147526,6.660022 -1.4,1.5 -5.9014568,2.09994 -10.0014572,-1.70006 -4.199999,-3.8 -3.182624,-5.402745 -2.88379,-7.359962 0.320034,-2.096063 8.2310421,-9.729967 13.8538453,-9.448486 4.8341255,1.86024 5.8049947,5.140336 5.8049947,5.140336 l 0.8489497,3.404293 z"
            fill="#000000" />
    </g>
    <path class="blobpath" id="blobpath1"
        d="m 37.392908,74.064363 c 7.072996,-6.256 16.415996,-24.055 20.901996,-31.55 2.718,-4.542 7.343,-19.033999 -1.987,-22.159999 -8.29,-2.788 -14.805,3.487 -16.402,11.149 -0.978996,4.674999 -0.918996,9.909999 3.685,15.909999 5.896,7.8 20.445,21.844 20.753,26.365 0.296,4.277 -23.543,2.631 -26.950996,0.287"
        style="fill:none;stroke-width:16" vector-effect="non-scaling-stroke;" />
    <g id="basemorphgroup">
        <path class="blobbase base0"
            d="M 32.299997,70.5 H 67.6 l -0.5,-3.9 c 0,0 -2.639247,1.79196 -4.921842,1.872901 -2.373521,0.08417 -4.419295,-1.542563 -5.795659,-1.542563 -3.1,0 -4.753247,1.935827 -7.849343,2.091354 -1.261517,0.06337 -6.120195,-5.029925 -10.133409,-3.23635 -1.082241,0.483673 -2.599742,1.938186 -3.424799,1.972564 L 32.699997,67.2 Z" />
        <path class="blobbase base1"
            d="M 32.299997,70.5 H 67.6 l -0.5,-3.9 c 0,0 -7.8,1 -10.5,1 -3.1,0 -9.1,-1 -12.2,-1 -2.4,0 -7.100003,0.5 -9.500003,0.6 -0.5,0 -2.2,0 -2.2,0 z"
            id="basemorphto0" />

        <path class="blobbase-hidden base2"
            d="M 32.299996,70.5 H 67.6 l -0.5,-3.9 c 0,0 -6.4,-1.1 -9.000004,-1.1 -3.1,0 -10.1,2.5 -13.2,2.5 -2.4,0 -7,-1.4 -9.7,-1.4 -1.5,0 -2.5,0.6 -2.5,0.6 z" />
        <path class="blobbase-hidden base3"
            d="M 32.299997,70.5 H 67.6 l -0.5,-3.9 c -1.164596,1.771928 -4.018746,2.766016 -5.012063,0.885327 -1.109197,-2.100088 -3.671656,2.998928 -4.321184,1.785466 -6.686308,-12.4915 -6.135345,-0.353186 -9.233597,-0.249101 -1.257567,0.04225 -2.077656,-6.862886 -7.011221,-0.147946 -0.701863,0.955288 -4.738028,-4.759569 -6.546987,-1.11584 L 32.699997,67.2 Z" />
    </g>
</g>
<!--<path class="blobpath path1" id="blobpath2"
d="m 26.520671,77.755878 c 3.146,-3.214 8.89,-36.494 -0.201,-40.394 -4.878,-2.093 1.445,-16.422 -11.357,-15.915 -8.7520002,0.346 2.058,14.287 0.479,18.131 -1.921,4.379 -14.0340002,8.324 -10.6560002,15.102 5.9780002,11.994 -0.753,19.731 3.59,18.521 10.0210002,-2.793 13.8050002,-1.605 17.8690002,4.695"
style="fill:none;stroke-width:16" vector-effect="non-scaling-stroke;" />-->
<path class="blobpath path2" id="blobgrouppath"
    d="m 19.759346,75.619609 c 6.4,-0.408 10.715,-6.438 11.553,-16.132 0.466,-5.432 -2.678,-28.387 -4.251,-37.201 -0.97,-5.398 -11.288,-14.5669995 -15.452,0.303 -1.869,6.673 -6.95,22.703 -4.749,33.203 1.6,7.393 6.899,20.228 12.899,19.828" />
</svg>