<?xml version="1.0" encoding="UTF-8" standalone="no"?>
<svg
   width="100%"
   height="100%"
   version="1.1"
   id="lavalamp"
   x="0px"
   y="0px"
   viewBox="0 0 36 100"
   style="enable-background:new 0 0 100 100;"
   xml:space="preserve"
   sodipodi:docname="blobs_many.svg"
   inkscape:version="1.1.1 (1:1.1+202109281949+c3084ef5ed)"
   xmlns:inkscape="http://www.inkscape.org/namespaces/inkscape"
   xmlns:sodipodi="http://sodipodi.sourceforge.net/DTD/sodipodi-0.dtd"
   xmlns="http://www.w3.org/2000/svg"
   xmlns:svg="http://www.w3.org/2000/svg"><sodipodi:namedview
     id="namedview71"
     pagecolor="#505050"
     bordercolor="#ffffff"
     borderopacity="1"
     inkscape:pageshadow="0"
     inkscape:pageopacity="0"
     inkscape:pagecheckerboard="1"
     showgrid="false"
     inkscape:zoom="15.133441"
     inkscape:cx="19.65845"
     inkscape:cy="76.717514"
     inkscape:window-width="1360"
     inkscape:window-height="679"
     inkscape:window-x="0"
     inkscape:window-y="21"
     inkscape:window-maximized="1"
     inkscape:current-layer="lavalamp" /><defs
     id="defs34" /><g
     class="blobs"
     id="blobmotionarea"
     clip-path="url(#blobclippath)"
     transform="translate(-31.539654,0.55060927)"><path
       class="blob one"
       d="m 48.907543,70.744282 c -0.931318,1.673367 -4.43307,1.764642 -5.289882,0.09127 -0.819559,-1.673368 1.005823,-5.050527 2.756699,-5.080952 1.750876,-0.06085 3.427247,3.285885 2.533183,4.989677"
       fill="#000000"
       style="stroke-width:0.336661"
       id="blob1" /><rect
       style="fill:#0000ff;fill-rule:evenodd"
       id="rect1104"
       width="35.362427"
       height="15.258368"
       x="32.242279"
       y="65.001541" /></g><path
     style="fill:none;stroke:#000000;stroke-width:1px;stroke-linecap:butt;stroke-linejoin:miter;stroke-opacity:1"
     d="m 22.554019,65.142831 c 0.609214,0.302664 0.913821,1.210655 0.974742,1.997581 0.06092,0.786926 -0.121843,1.452786 -0.121843,2.179179 0,0.726393 0.182765,1.392254 -0.06092,1.876516 -0.243685,0.423729 -0.974742,0.605327 -1.583956,1.029056 -0.609214,0.484262 -1.157507,1.210656 -1.583956,1.029057 -0.42645,-0.121065 -0.731057,-1.150122 -1.035664,-1.815982 -0.243686,-0.605328 -0.42645,-0.907992 -0.974742,-1.210655 -0.548293,-0.302664 -1.401193,-0.605328 -1.401193,-0.907992 0,-0.302664 0.8529,-0.605327 1.218428,-1.210655 0.365529,-0.605327 0.182765,-1.513319 0.42645,-2.118646 0.304607,-0.544795 0.974742,-0.726393 1.827642,-0.907992 0.791978,-0.181598 1.705799,-0.302663 2.315013,0.06053"
     id="path2898" /><path
     style="fill:none;stroke:#000000;stroke-width:1px;stroke-linecap:butt;stroke-linejoin:miter;stroke-opacity:1"
     d="M 0.30082824,67.381445 C 36.753349,67.135065 36.776407,67.112007 36.776407,67.112007"
     id="path2226" /></svg>
