<?xml version="1.0" encoding="UTF-8" standalone="no"?>
<svg
   width="100%"
   height="100%"
   version="1.1"
   id="lavalamp"
   x="0px"
   y="0px"
   viewBox="0 0 36 100"
   style="enable-background:new 0 0 100 100;"
   xml:space="preserve"
   sodipodi:docname="edit.svg"
   inkscape:version="1.1.1 (1:1.1+202109281949+c3084ef5ed)"
   xmlns:inkscape="http://www.inkscape.org/namespaces/inkscape"
   xmlns:sodipodi="http://sodipodi.sourceforge.net/DTD/sodipodi-0.dtd"
   xmlns="http://www.w3.org/2000/svg"
   xmlns:svg="http://www.w3.org/2000/svg"><sodipodi:namedview
   id="namedview104"
   pagecolor="#505050"
   bordercolor="#ffffff"
   borderopacity="1"
   inkscape:pageshadow="0"
   inkscape:pageopacity="0"
   inkscape:pagecheckerboard="1"
   showgrid="false"
   inkscape:zoom="5"
   inkscape:cx="17.9"
   inkscape:cy="68.2"
   inkscape:window-width="1360"
   inkscape:window-height="679"
   inkscape:window-x="0"
   inkscape:window-y="21"
   inkscape:window-maximized="1"
   inkscape:current-layer="lavalamp" />
<defs
   id="defs34">
    <linearGradient
   id="bodyfill"
   gradientUnits="objectBoundingBox"
   x1="0"
   y1="0"
   x2="100%"
   y2="0">
        <stop
   offset="0%"
   style="stop-color:#c9c6c4"
   id="stop2" />
        <stop
   offset="25%"
   style="stop-color:#CCC7C2"
   id="stop4" />
        <stop
   offset="50%"
   style="stop-color:#E0E1E2"
   id="stop6" />
        <stop
   offset="75%"
   style="stop-color:#CCC7C2"
   id="stop8" />
        <stop
   offset="100%"
   style="stop-color:#9c9a98"
   id="stop10" />
    </linearGradient>
    <radialGradient
   id="liquidfill"
   cx="50"
   cy="41.1552"
   r="24.2406"
   fx="49.988"
   fy="51.2048"
   gradientTransform="matrix(1 0 0 1.5 0 -20.5776)"
   gradientUnits="userSpaceOnUse">
        <stop
   offset="0.18"
   style="stop-color:#c9e5e5"
   id="stop13" />
        <stop
   offset="0.66"
   style="stop-color:#c6d3e0"
   id="stop15" />
        <stop
   offset="1"
   style="stop-color:#dae9e9"
   id="stop17" />
    </radialGradient>
    <radialGradient
   id="blobfill"
   cx="50"
   cy="41.1552"
   r="29.695"
   fx="49.2236"
   fy="68.4283"
   gradientTransform="matrix(1 0 0 1.5 0 -20.5776)"
   gradientUnits="objectBoundingBox">
        <stop
   offset="0.2"
   style="stop-color:#f1f7a1"
   id="stop20" />
        <stop
   offset="0.4"
   style="stop-color:#fff8b5"
   id="stop22" />
        <stop
   offset="0.6"
   style="stop-color:#f0ed68"
   id="stop24" />
        <stop
   offset="0.8"
   style="stop-color:#e7e09e"
   id="stop26" />
        <stop
   offset="0.8978"
   style="stop-color:#fda67e"
   id="stop28" />
        <stop
   offset="0.9785"
   style="stop-color:#fd867e"
   id="stop30" />
    </radialGradient>
    <radialGradient
   id="blobfill-darker"
   cx="50"
   cy="41.1552"
   r="29.695"
   fx="49.2236"
   fy="68.4283"
   gradientTransform="matrix(1 0 0 1.5 0 -20.5776)"
   gradientUnits="objectBoundingBox">
        <stop
   offset="0.2"
   style="stop-color:#f7bca1"
   id="stop33" />
        <stop
   offset="0.4"
   style="stop-color:#ffd3b5"
   id="stop35" />
        <stop
   offset="0.6"
   style="stop-color:#f0c568"
   id="stop37" />
        <stop
   offset="0.8"
   style="stop-color:#e7bf9e"
   id="stop39" />
        <stop
   offset="0.8978"
   style="stop-color:#fd7e7e"
   id="stop41" />
        <stop
   offset="0.9785"
   style="stop-color:#f85656"
   id="stop43" />
    </radialGradient>
    <clipPath
   id="blobclippath">
        <polygon
   points="32.4,70.5 39.8,11.8 60.2,11.8 67.6,70.5 "
   id="polygon31" />
    </clipPath>
</defs>
<polygon
   class="lamp body"
   points="67.6,70.5 32.4,70.5 39.8,11.8 60.2,11.8 "
   id="body"
   transform="translate(-31.539654,0.55060927)" />
<path
   class=" lamp top"
   d="m 8.2603461,12.350609 1.4,-9.1999997 c 0.2,-1.5 1.4999999,-2.60000003 2.8999999,-2.60000003 h 11.8 c 1.5,0 2.7,1.10000003 2.9,2.50000003 l 1.4,9.1999997 z"
   id="head" />
<polygon
   class="lamp bottom"
   points="58.8,85.3 41.2,85.3 32.4,70.5 67.6,70.5 "
   id="base"
   transform="translate(-31.539654,0.55060927)" />
<path
   class="lamp base"
   d="m 3.7603461,100.55061 c -2.3,0 -3.70000001,-2.500001 -2.5,-4.500001 l 8.4,-10.3 H 27.260346 l 8.4,10.3 c 1.2,2 -0.2,4.500001 -2.5,4.500001 z"
   id="leg" />
<g
   class="blobs"
   id="blobmotionarea"
   clip-path="url(#blobclippath)"
   transform="translate(-31.539654,0.55060927)">
    <g
   id="basemorphgroup">
        <path
   class="blobbase base0"
   d="M 32.299997,70.5 H 67.6 l -0.5,-3.9 c 0,0 -2.639247,1.79196 -4.921842,1.872901 -2.373521,0.08417 -4.419295,-1.542563 -5.795659,-1.542563 -3.1,0 -4.753247,1.935827 -7.849343,2.091354 -1.261517,0.06337 -6.120195,-5.029925 -10.133409,-3.23635 -1.082241,0.483673 -2.599742,1.938186 -3.424799,1.972564 L 32.699997,67.2 Z"
   id="path60" />
        <path
   class="blobbase base1"
   d="M 32.299997,70.5 H 67.6 l -0.5,-3.9 c 0,0 -7.8,1 -10.5,1 -3.1,0 -9.1,-1 -12.2,-1 -2.4,0 -7.100003,0.5 -9.500003,0.6 -0.5,0 -2.2,0 -2.2,0 z"
   id="basemorphto0" />
        <path
   class="blobbase-hidden base2"
   d="M 32.299996,70.5 H 67.6 l -0.5,-3.9 c 0,0 -6.4,-1.1 -9.000004,-1.1 -3.1,0 -10.1,2.5 -13.2,2.5 -2.4,0 -7,-1.4 -9.7,-1.4 -1.5,0 -2.5,0.6 -2.5,0.6 z"
   id="path63" />
        <path
   class="blobbase-hidden base3"
   d="M 32.299997,70.5 H 67.6 l -0.5,-3.9 c -1.164596,1.771928 -4.018746,2.766016 -5.012063,0.885327 -1.109197,-2.100088 -3.671656,2.998928 -4.321184,1.785466 -6.686308,-12.4915 -6.135345,-0.353186 -9.233597,-0.249101 -1.257567,0.04225 -2.077656,-6.862886 -7.011221,-0.147946 -0.701863,0.955288 -4.738028,-4.759569 -6.546987,-1.11584 L 32.699997,67.2 Z"
   id="path65" />
    </g>
</g>
<path
   style="fill:none;stroke:#000000;stroke-width:0.594723px;stroke-linecap:butt;stroke-linejoin:miter;stroke-opacity:1"
   d="m 22.917058,67.969808 c 0.902394,0.646722 0.782075,2.469301 0.421117,4.350673 -0.421117,1.881372 -1.022714,3.821536 -2.105588,4.056708 -1.143033,0.235171 -2.707184,-1.175858 -4.99325,-1.940165 -2.346226,-0.764307 -5.414368,-0.8231 -6.256603,-2.057751 -0.782076,-1.23465 0.721916,-3.645158 2.466545,-4.468258 1.74463,-0.8231 3.790058,-0.117586 5.775326,-0.05879 1.925109,0.05879 3.850218,-0.529136 4.692453,0.117586"
   id="path544"
   class="blob one" /></svg>
