<?xml version="1.0" encoding="UTF-8" standalone="no"?>
<svg
   width="100%"
   height="100%"
   version="1.1"
   id="lavalamp"
   x="0px"
   y="0px"
   viewBox="0 0 36 100"
   style="enable-background:new 0 0 100 100;"
   xml:space="preserve"
   sodipodi:docname="new.svg"
   inkscape:version="1.1.1 (1:1.1+202109281949+c3084ef5ed)"
   xmlns:inkscape="http://www.inkscape.org/namespaces/inkscape"
   xmlns:sodipodi="http://sodipodi.sourceforge.net/DTD/sodipodi-0.dtd"
   xmlns="http://www.w3.org/2000/svg"
   xmlns:svg="http://www.w3.org/2000/svg"><sodipodi:namedview
   id="namedview54"
   pagecolor="#505050"
   bordercolor="#ffffff"
   borderopacity="1"
   inkscape:pageshadow="0"
   inkscape:pageopacity="0"
   inkscape:pagecheckerboard="1"
   showgrid="false"
   inkscape:zoom="30.26759"
   inkscape:cx="16.915783"
   inkscape:cy="69.348104"
   inkscape:window-width="1360"
   inkscape:window-height="679"
   inkscape:window-x="0"
   inkscape:window-y="21"
   inkscape:window-maximized="1"
   inkscape:current-layer="lavalamp" /><defs
   id="defs34">
        <linearGradient
   id="bodyfill"
   gradientUnits="objectBoundingBox"
   x1="0"
   y1="0"
   x2="100%"
   y2="0">
            <stop
   offset="0%"
   style="stop-color:#c9c6c4"
   id="stop2" />
            <stop
   offset="25%"
   style="stop-color:#CCC7C2"
   id="stop4" />
            <stop
   offset="50%"
   style="stop-color:#E0E1E2"
   id="stop6" />
            <stop
   offset="75%"
   style="stop-color:#CCC7C2"
   id="stop8" />
            <stop
   offset="100%"
   style="stop-color:#9c9a98"
   id="stop10" />
        </linearGradient>
        <radialGradient
   id="liquidfill"
   cx="50"
   cy="41.1552"
   r="24.2406"
   fx="49.988"
   fy="51.2048"
   gradientTransform="matrix(1 0 0 1.5 0 -20.5776)"
   gradientUnits="userSpaceOnUse">
            <stop
   offset="0.18"
   style="stop-color:#c9e5e5"
   id="stop13" />
            <stop
   offset="0.66"
   style="stop-color:#c6d3e0"
   id="stop15" />
            <stop
   offset="1"
   style="stop-color:#dae9e9"
   id="stop17" />
        </radialGradient>
        <radialGradient
   id="blobfill"
   cx="50"
   cy="41.1552"
   r="29.695"
   fx="49.2236"
   fy="68.4283"
   gradientTransform="matrix(1 0 0 1.5 0 -20.5776)"
   gradientUnits="objectBoundingBox">
            <stop
   offset="0.2"
   style="stop-color:#f1f7a1"
   id="stop20" />
            <stop
   offset="0.4"
   style="stop-color:#fff8b5"
   id="stop22" />
            <stop
   offset="0.6"
   style="stop-color:#f0ed68"
   id="stop24" />
            <stop
   offset="0.8"
   style="stop-color:#e7e09e"
   id="stop26" />
            <stop
   offset="0.8978"
   style="stop-color:#fda67e"
   id="stop28" />
            <stop
   offset="0.9785"
   style="stop-color:#fd867e"
   id="stop30" />
        </radialGradient>
        <radialGradient
   id="blobfill-darker"
   cx="50"
   cy="41.1552"
   r="29.695"
   fx="49.2236"
   fy="68.4283"
   gradientTransform="matrix(1 0 0 1.5 0 -20.5776)"
   gradientUnits="objectBoundingBox">
            <stop
   offset="0.2"
   style="stop-color:#f7bca1"
   id="stop33" />
            <stop
   offset="0.4"
   style="stop-color:#ffd3b5"
   id="stop35" />
            <stop
   offset="0.6"
   style="stop-color:#f0c568"
   id="stop37" />
            <stop
   offset="0.8"
   style="stop-color:#e7bf9e"
   id="stop39" />
            <stop
   offset="0.8978"
   style="stop-color:#fd7e7e"
   id="stop41" />
            <stop
   offset="0.9785"
   style="stop-color:#f85656"
   id="stop43" />
        </radialGradient>
        <clipPath
   id="blobclippath">
            <polygon
   points="32.4,70.5 39.8,11.8 60.2,11.8 67.6,70.5 "
   id="polygon31" />
        </clipPath>
    </defs><g
   class="blobs"
   id="blobmotionarea"
   clip-path="url(#blobclippath)"
   transform="translate(-31.539654,0.55060927)"><path
     class="blob one"
     d="m 55.870488,67.969808 c 0.902394,0.646722 0.782075,2.469301 0.421117,4.350673 -0.421117,1.881372 -1.022714,3.821536 -2.105588,4.056708 -1.143033,0.235171 -2.707184,-1.175858 -4.99325,-1.940165 -2.346226,-0.764307 -5.414368,-0.8231 -6.256603,-2.057751 -0.782076,-1.23465 0.721916,-3.645158 2.466545,-4.468258 1.74463,-0.8231 3.790058,-0.117586 5.775326,-0.05879 1.925109,0.05879 3.850218,-0.529136 4.692453,0.117586"
     id="path33" /></g><path
   class="blob two"
   d="m 52.209183,67.278066 c 0.964833,0.638616 2.412083,0.928896 3.537722,2.148072 1.125638,1.16112 1.983268,3.309192 1.500851,4.818648 -0.536018,1.567512 -2.412083,2.554464 -4.234545,2.960856 -1.822463,0.406392 -3.591323,0.232224 -4.66336,-0.754728 -1.072037,-0.986952 -1.44725,-2.728632 -2.519287,-4.296144 -1.072037,-1.567512 -2.840898,-2.9028 -2.948101,-4.296144 -0.107203,-1.335288 1.340046,-2.670576 2.840897,-3.19308 1.500852,-0.464448 3.001704,-0.116112 4.020139,0.522504 1.018435,0.638616 1.500851,1.509456 2.465684,2.090016"
   id="path35" /><path
   class="blob-dark three"
   d="m 50.281335,66.772804 c 1.257484,0.107496 3.061699,0.483731 4.045816,1.666185 0.984118,1.182454 1.148137,3.171126 0.437386,4.891058 -0.656078,1.719933 -2.241601,3.224874 -4.045816,3.708605 -1.804215,0.537479 -3.881796,0 -4.756567,-1.289949 -0.929444,-1.343698 -0.710752,-3.439866 -1.53085,-4.944807 -0.765424,-1.451193 -2.56964,-2.311159 -2.788332,-3.171126 -0.218693,-0.913714 1.093464,-1.827428 2.350947,-1.988672 1.257483,-0.107496 2.460293,0.537479 3.389738,0.806219 0.929444,0.268739 1.640195,0.161243 2.897678,0.322487"
   id="path37" /><path
   class="blob four"
   d="m 53.275949,70.523514 c 1.298642,1.930744 2.597283,4.278947 1.947962,5.792233 -0.64932,1.513286 -3.246603,2.243838 -5.194566,1.82638 -1.947962,-0.365276 -3.246603,-1.878562 -4.395402,-3.704942 -1.148798,-1.82638 -2.147753,-3.965854 -1.498433,-5.47914 0.649321,-1.565468 2.946918,-2.400385 4.745037,-2.139473 1.798119,0.313093 3.096761,1.826379 4.395402,3.704942"
   id="path39" /><path
   class="blob five"
   d="m 54.87756,64.815591 c 0.392961,1.144329 -0.561375,3.233972 -0.842062,4.477808 -0.336824,1.243835 0,1.691616 0,2.139396 -0.05614,0.447781 -0.449099,0.845809 -0.898198,1.094576 -0.4491,0.248767 -0.954336,0.348274 -1.684123,1.144328 -0.729786,0.845808 -1.684122,2.437918 -3.03142,3.134466 -1.403435,0.646794 -3.199833,0.348274 -4.041894,-0.597041 -0.842061,-0.945315 -0.673649,-2.587178 0,-3.831014 0.673649,-1.194082 1.908672,-1.990136 2.919146,-2.437917 0.954336,-0.447781 1.740259,-0.497534 2.357771,-1.592109 0.617512,-1.094575 1.010473,-3.184219 2.077084,-4.07978 1.066611,-0.895562 2.750734,-0.646795 3.143696,0.547287"
   id="path41" /><path
   class="blob-dark six"
   d="m 55.714525,70.039222 c 0.847654,1.985637 0,4.964092 -1.751816,6.067223 -1.751816,1.047975 -4.407796,0.16547 -6.837735,-1.434071 -2.429939,-1.654697 -4.690347,-4.02643 -4.181755,-5.515657 0.508592,-1.489228 3.729673,-2.151107 6.611694,-1.985637 2.82551,0.110313 5.36847,0.937662 6.159612,2.868142"
   id="path43" /><path
   class="blob seven"
   d="m 56.444831,68.616707 c 0.80464,1.398592 0.172423,4.088192 -1.954125,5.755744 -2.069074,1.61376 -5.689953,2.205472 -7.644078,0.80688 -2.0116,-1.3448 -2.356446,-4.679904 -1.321909,-6.401248 1.034537,-1.721344 3.390983,-1.775136 5.632479,-1.775136 2.298971,0.05379 4.482993,0.161376 5.287633,1.61376"
   id="path45" /><path
   style="fill:none;stroke:#000000;stroke-width:1px;stroke-linecap:butt;stroke-linejoin:miter;stroke-opacity:1"
   d="m 44.81134,67.611161 c -0.411806,-0.0095 -0.909881,0.03031 -1.119582,0.434356 -0.06589,0.126956 -0.104943,0.09464 -0.160807,0.255777 -0.01829,0.05275 -0.107007,0.08186 -0.132154,0.132155 -0.03163,0.06325 -0.0381,0.161732 -0.06524,0.229605 -0.03931,0.09828 -0.09296,0.152838 -0.125476,0.250538 -0.02186,0.06567 -0.0013,0.17169 -0.03146,0.231242 -0.08509,0.168042 -0.111121,0.312992 -0.161894,0.498914 -0.02505,0.09171 -0.06681,0.151604 -0.0968,0.239616 -0.01745,0.05121 0,0.12932 0,0.184013 0,0.397105 0.05664,0.598578 0.227964,0.93907 0.05206,0.10346 0.03222,0.227097 0.06566,0.326466 0.03335,0.0991 0.06592,0.03305 0.09912,0.09912 0.01256,0.025 -0.01282,0.06935 0,0.09419 0.04246,0.08225 0.07946,0.152434 0.131741,0.230856 0.03598,0.05397 0.03596,0.167872 0.06451,0.224977 0.02531,0.05062 0.06975,0.07545 0.09665,0.129263 0.05178,0.103564 0.04038,0.279173 0.09871,0.39302 0.01936,0.03778 -0.01603,0.08805 0,0.127351 0.01176,0.02884 0.05215,0.03822 0.06608,0.06608 0.02044,0.04089 0.01093,0.08822 0.03304,0.132154 0.03607,0.07168 -0.0094,0.175272 0.03263,0.259341 0.06844,0.136876 0.21361,0.242132 0.280332,0.375564 0.05432,0.108621 0.04449,0.250833 0.09912,0.359747 0.0101,0.02014 0.123421,0.188832 0.130823,0.196233 0.08075,0.08075 0.04819,-0.01015 0.09912,0.06608 0.04517,0.06761 0.05948,0.149217 0.131742,0.197405 0.333428,0.222337 0.760768,0.317115 1.150874,0.395137 0.09511,0.01902 0.201723,-0.01594 0.297348,0 0.04622,0.0077 0.118977,0.05837 0.165193,0.06608 0.332184,0.05536 0.692049,-0.05536 1.024233,0 0.419293,0.06988 0.886745,0.03304 1.319891,0.03304 0.517606,0 1.035211,0 1.552816,0 0.207335,0 0.456874,0.04072 0.65993,0 0.06875,-0.01378 0.214312,-0.08483 0.264309,-0.09911 0.0805,-0.023 0.181608,0.01381 0.264309,0 0.312824,-0.05223 -0.127412,-0.0063 0.197446,-0.0984 0.04238,-0.01201 0.08855,0.0062 0.132154,0 0.132067,-0.01887 0.267411,-0.04027 0.396464,-0.06608 0.111455,-0.02229 0.214882,-0.108938 0.330386,-0.132154 0.14534,-0.02921 0.290222,-0.01604 0.42868,-0.09912 0.194999,-0.117 0.376866,-0.257871 0.561657,-0.396464 0.13156,-0.09867 0.299678,-0.16045 0.429502,-0.264309 0.10265,-0.08212 0.178803,-0.205037 0.297348,-0.264309 0.183925,-0.09196 0.207009,-0.192664 0.362205,-0.296128 0.08398,-0.05599 0.17751,-0.113114 0.264309,-0.165193 0.133705,-0.08022 -0.0014,3.54e-4 0.132155,-0.03304 0.136961,-0.03424 0.212984,-0.139131 0.330168,-0.198087 0.0097,-0.0049 0.02171,0 0.03256,0 0.02171,-0.01085 0.04572,-0.01798 0.06512,-0.03256 0.03439,-0.02586 0.274267,-0.223577 0.297348,-0.231271 0.0209,-0.007 0.04518,0.007 0.06608,0 0.04297,-0.01432 0.06696,-0.08596 0.107511,-0.10751 0.03863,-0.02053 0.105965,-0.0012 0.145897,-0.02096 0.120954,-0.05971 0.262414,-0.140663 0.349759,-0.271939 0.04526,-0.06803 0.01408,-0.15338 0.03262,-0.227424 -0.05928,-0.08757 0.05308,-0.08169 0.06483,-0.128073 0.05885,-0.232276 -0.01593,-0.406739 -0.06416,-0.644515 -0.0167,-0.08233 0.02316,-0.17756 0,-0.258338 -0.0177,-0.06173 -0.07527,-0.105571 -0.09912,-0.165194 -0.13303,-0.332576 0.0258,0.07015 -0.03304,-0.165193 -0.01803,-0.07214 -0.110328,-0.206107 -0.132154,-0.264309 -0.03268,-0.08715 -0.04898,-0.220377 -0.09752,-0.292596 -0.198343,-0.295119 -0.422713,-0.623325 -0.725289,-0.824406 -5e-6,-3e-6 -0.06483,-0.06484 -0.06484,-0.06484 -0.03125,-0.01029 -0.07135,0.01828 -0.0987,0 -0.127874,-0.08543 -0.223271,-0.226846 -0.363012,-0.296935 -0.05064,-0.0254 -0.149155,-0.009 -0.196412,-0.03279 -0.02783,-0.01399 -0.04116,-0.04739 -0.06608,-0.06608 -0.08151,-0.06113 -0.139686,-0.04776 -0.23127,-0.06608 -0.08707,-0.01741 -0.149661,-0.09718 -0.231271,-0.132154 -0.02025,-0.0087 -0.04563,0.0082 -0.06608,0 -0.12092,-0.04837 -0.23623,-0.122795 -0.363425,-0.165193 -0.09998,-0.03333 -0.203266,-0.01904 -0.297348,-0.06608 -0.205315,-0.102657 -0.346178,-0.136666 -0.561657,-0.198232 -0.07566,-0.02162 -0.174509,-0.08619 -0.264309,-0.09911 -0.04306,-0.0062 -0.08761,0.0072 -0.130509,0 -0.0843,-0.01417 -0.192757,-0.08481 -0.264308,-0.09912 -0.309648,-0.06193 -0.639453,-0.06608 -0.957311,-0.06608 -0.175681,0 -0.592262,-0.05001 -0.74228,0 -0.03967,0.01322 -0.05948,0.08578 -0.09912,0.09912 -0.03103,0.01044 -0.09804,-0.01553 -0.129115,0 -0.12926,0.06463 -0.270554,0.02879 -0.410958,0.06411 -0.06572,0.01653 -0.102401,0.074 -0.165193,0.09912 -0.0859,0.03436 -0.153304,0.007 -0.231271,0.03304 -0.158261,0.05275 -0.324487,0.130975 -0.49558,0.165193 -0.141747,0.02835 -0.324897,-0.01262 -0.461281,0.03304 -0.03765,0.0126 -0.0636,0.04832 -0.09912,0.06608 -0.07637,0.03818 -0.212628,-0.02554 -0.293926,0 -0.205278,0.06449 -0.60933,0.06384 -0.810487,-0.0032 -0.06446,-0.02149 -0.150568,0.02164 -0.214971,0 -0.124519,-0.04184 -0.365722,-0.05276 -0.45761,-0.09871 -0.04153,-0.02076 -0.05445,-0.08381 -0.09849,-0.09849 -0.07441,-0.0248 -0.153208,-0.02114 -0.225336,-0.06451 -0.04647,-0.02795 -0.07869,-0.08054 -0.130169,-0.09759 -0.04113,-0.01362 -0.346886,-0.04968 -0.375354,-0.06391 -0.06865,-0.03433 -0.05232,-0.06682 -0.143652,-0.09072 -0.187755,-0.04913 -0.404224,-0.02901 -0.595199,-0.11056 z"
   id="path3085" />
</svg>
