<?xml version="1.0" encoding="UTF-8" standalone="no"?>
<svg
   fill="#000000"
   viewBox="0 0 64 64"
   width="64px"
   height="64px"
   version="1.1"
   id="svg12"
   sodipodi:docname="icons8-discord-scaled.svg"
   inkscape:version="1.1.2 (1:1.1+202202050950+0a00cf5339)"
   xmlns:inkscape="http://www.inkscape.org/namespaces/inkscape"
   xmlns:sodipodi="http://sodipodi.sourceforge.net/DTD/sodipodi-0.dtd"
   xmlns="http://www.w3.org/2000/svg"
   xmlns:svg="http://www.w3.org/2000/svg">
  <defs
     id="defs16" />
  <sodipodi:namedview
     id="namedview14"
     pagecolor="#505050"
     bordercolor="#ffffff"
     borderopacity="1"
     inkscape:pageshadow="0"
     inkscape:pageopacity="0"
     inkscape:pagecheckerboard="1"
     showgrid="false"
     inkscape:zoom="5.6568542"
     inkscape:cx="31.731417"
     inkscape:cy="31.996582"
     inkscape:window-width="1366"
     inkscape:window-height="679"
     inkscape:window-x="0"
     inkscape:window-y="21"
     inkscape:window-maximized="1"
     inkscape:current-layer="svg12" />
  <path
     d="m 49.662553,18.0427 c -4.28276,-3.442771 -11.055371,-4.025708 -11.342537,-4.04937 -0.451722,-0.03872 -0.880859,0.217257 -1.066925,0.631336 -0.01291,0.02689 -0.16133,0.365681 -0.325886,0.895917 2.83187,0.476459 6.310133,1.440134 9.458209,3.393296 0.504423,0.312979 0.659299,0.975506 0.34632,1.481004 -0.203275,0.328037 -0.554973,0.508726 -0.915276,0.508726 -0.193595,0 -0.389341,-0.05163 -0.565728,-0.161329 -5.409915,-3.355653 -12.169619,-3.525587 -13.469935,-3.525587 -1.300315,0 -8.061095,0.169934 -13.468859,3.525587 -0.505499,0.314054 -1.168025,0.158102 -1.481004,-0.346321 -0.314055,-0.505499 -0.158103,-1.168025 0.34632,-1.481004 3.148076,-1.952087 6.625264,-2.916837 9.458209,-3.393297 -0.165632,-0.530236 -0.314055,-0.869028 -0.325886,-0.895916 -0.186066,-0.415155 -0.614127,-0.676508 -1.068001,-0.631336 -0.28609,0.02259 -7.058701,0.605523 -11.398464,4.096693 -2.268292,2.094056 -6.7994988,14.346491 -6.7994988,24.938308 0,0.187142 0.048399,0.369982 0.1408944,0.532387 3.1287164,5.494881 11.6608934,6.93394 13.6043754,6.995245 0.01183,0.0011 0.02259,0.0011 0.03442,0.0011 0.343094,0 0.666829,-0.163481 0.870104,-0.442043 l 1.967144,-2.702806 c -5.305588,-1.372376 -8.015923,-3.698747 -8.171875,-3.83749 -0.44527,-0.392568 -0.487215,-1.072303 -0.09357,-1.517573 0.392568,-0.445269 1.070152,-0.487214 1.516497,-0.09572 0.06561,0.05808 5.054989,4.293515 14.869198,4.293515 9.831418,0 14.822951,-4.251569 14.872425,-4.29459 0.44527,-0.386115 1.123929,-0.347396 1.515422,0.1011 0.391493,0.445269 0.349547,1.121777 -0.09465,1.51327 -0.157027,0.138743 -2.867362,2.465114 -8.17295,3.83749 l 1.967144,2.702806 c 0.203275,0.278562 0.527009,0.442043 0.870103,0.442043 0.01183,0 0.02259,0 0.03334,-0.0011 1.945633,-0.06131 10.476732,-1.500364 13.604372,-6.995245 0.09357,-0.162405 0.14197,-0.345245 0.14197,-0.532387 0,-10.591817 -4.531207,-22.844252 -6.855423,-24.986707 z M 24.789852,38.727288 c -2.078999,0 -3.764354,-1.926274 -3.764354,-4.302119 0,-2.375845 1.685355,-4.302119 3.764354,-4.302119 2.078999,0 3.764354,1.926274 3.764354,4.302119 0,2.375845 -1.685355,4.302119 -3.764354,4.302119 z m 13.981887,0 c -2.078999,0 -3.764355,-1.926274 -3.764355,-4.302119 0,-2.375845 1.685356,-4.302119 3.764355,-4.302119 2.078999,0 3.764354,1.926274 3.764354,4.302119 0,2.375845 -1.685355,4.302119 -3.764354,4.302119 z"
     id="path2-3"
     style="stroke-width:1.07553" />
  <path
     d="M33.813,57.93C33.214,57.972,32.61,58,32,58C32.61,58,33.213,57.971,33.813,57.93z"
     id="path4" />
  <path
     d="M37.786,57.346c-1.164,0.265-2.357,0.451-3.575,0.554C35.429,57.797,36.622,57.61,37.786,57.346z"
     id="path6" />
  <path
     d="M32,58c-0.61,0-1.214-0.028-1.813-0.07C30.787,57.971,31.39,58,32,58z"
     id="path8" />
  <path
     d="M29.788,57.9c-1.217-0.103-2.411-0.289-3.574-0.554C27.378,57.61,28.571,57.797,29.788,57.9z"
     id="path10" />
</svg>
