<?xml version="1.0" encoding="UTF-8" standalone="no"?>
<svg
   fill="#000000"
   viewBox="0 0 64 64"
   width="64px"
   height="64px"
   version="1.1"
   id="svg12"
   sodipodi:docname="icons8-github-scaled.svg"
   inkscape:version="1.1.2 (1:1.1+202202050950+0a00cf5339)"
   xmlns:inkscape="http://www.inkscape.org/namespaces/inkscape"
   xmlns:sodipodi="http://sodipodi.sourceforge.net/DTD/sodipodi-0.dtd"
   xmlns="http://www.w3.org/2000/svg"
   xmlns:svg="http://www.w3.org/2000/svg">
  <defs
     id="defs16" />
  <sodipodi:namedview
     id="namedview14"
     pagecolor="#505050"
     bordercolor="#ffffff"
     borderopacity="1"
     inkscape:pageshadow="0"
     inkscape:pageopacity="0"
     inkscape:pagecheckerboard="1"
     showgrid="false"
     inkscape:zoom="5.6568542"
     inkscape:cx="31.731417"
     inkscape:cy="31.996582"
     inkscape:window-width="1366"
     inkscape:window-height="679"
     inkscape:window-x="0"
     inkscape:window-y="21"
     inkscape:window-maximized="1"
     inkscape:current-layer="svg12" />
  <path
     d="m 31.848942,8.5205353 c -12.656619,0 -22.9174797,10.2608607 -22.9174797,22.9174797 0,10.821458 7.5028297,19.885321 17.5891657,22.288131 -0.521813,-0.124283 -1.03922,-0.263551 -1.54693,-0.42221 v -5.250748 c 0,0 -0.859405,0.286469 -2.005279,0.286469 -3.205803,0 -4.537661,-2.860278 -4.869965,-4.297028 -0.20185,-0.875271 -0.728952,-1.704708 -1.294838,-2.211537 -0.676065,-0.602906 -0.992503,-0.604668 -0.99691,-0.810926 -0.0088,-0.432788 0.579989,-0.415159 0.859406,-0.415159 1.432342,0 2.518278,1.524013 3.022463,2.312021 1.249002,1.945342 2.589675,2.271475 3.279844,2.271475 0.859405,0 1.601579,-0.12869 2.112815,-0.375494 0.236226,-1.664161 0.976637,-3.146746 2.184212,-4.208002 -5.374149,-1.074477 -9.166992,-4.156878 -9.166992,-9.166992 0,-2.580861 1.035694,-4.95282 2.761556,-6.868192 -0.176288,-0.499778 -0.469808,-1.510791 -0.469808,-3.158205 0,-1.088581 0.0758,-2.424846 0.572937,-3.724091 0,0 3.268385,0.02292 6.350786,2.942252 1.422647,-0.414278 2.944897,-0.650504 4.535017,-0.650504 1.590121,0 3.11237,0.236226 4.535017,0.650504 3.082401,-2.919334 6.350786,-2.942252 6.350786,-2.942252 0.499778,1.299245 0.572937,2.63551 0.572937,3.724091 0,1.776104 -0.236226,2.811798 -0.380783,3.258689 1.672977,1.897744 2.672531,4.232682 2.672531,6.767708 0,5.010114 -3.792843,8.092515 -9.166992,9.166992 1.434987,1.260462 2.291748,3.096504 2.291748,5.156433 v 7.542496 c -0.50771,0.15954 -1.024235,0.297927 -1.54693,0.42221 10.086336,-2.40281 17.589166,-11.466673 17.589166,-22.288131 0,-12.656619 -10.260861,-22.9174797 -22.91748,-22.9174797 z"
     id="path2"
     style="stroke-width:0.881442" />
  <path
     d="M33.813,57.93C33.214,57.972,32.61,58,32,58C32.61,58,33.213,57.971,33.813,57.93z"
     id="path4" />
  <path
     d="M37.786,57.346c-1.164,0.265-2.357,0.451-3.575,0.554C35.429,57.797,36.622,57.61,37.786,57.346z"
     id="path6" />
  <path
     d="M32,58c-0.61,0-1.214-0.028-1.813-0.07C30.787,57.971,31.39,58,32,58z"
     id="path8" />
  <path
     d="M29.788,57.9c-1.217-0.103-2.411-0.289-3.574-0.554C27.378,57.61,28.571,57.797,29.788,57.9z"
     id="path10" />
</svg>
