<?xml version="1.0" encoding="UTF-8" standalone="no"?>
<svg
   fill="#000000"
   viewBox="0 0 64 64"
   width="64px"
   height="64px"
   version="1.1"
   id="svg12"
   sodipodi:docname="iconmonstr-code-thin-scaled.svg"
   inkscape:version="1.1.2 (1:1.1+202202050950+0a00cf5339)"
   xmlns:inkscape="http://www.inkscape.org/namespaces/inkscape"
   xmlns:sodipodi="http://sodipodi.sourceforge.net/DTD/sodipodi-0.dtd"
   xmlns="http://www.w3.org/2000/svg"
   xmlns:svg="http://www.w3.org/2000/svg">
  <defs
     id="defs16" />
  <sodipodi:namedview
     id="namedview14"
     pagecolor="#505050"
     bordercolor="#ffffff"
     borderopacity="1"
     inkscape:pageshadow="0"
     inkscape:pageopacity="0"
     inkscape:pagecheckerboard="1"
     showgrid="false"
     inkscape:zoom="5.6568542"
     inkscape:cx="50.558135"
     inkscape:cy="31.996582"
     inkscape:window-width="1366"
     inkscape:window-height="679"
     inkscape:window-x="0"
     inkscape:window-y="21"
     inkscape:window-maximized="1"
     inkscape:current-layer="svg12" />
  <path
     d="M33.813,57.93C33.214,57.972,32.61,58,32,58C32.61,58,33.213,57.971,33.813,57.93z"
     id="path4" />
  <path
     d="M37.786,57.346c-1.164,0.265-2.357,0.451-3.575,0.554C35.429,57.797,36.622,57.61,37.786,57.346z"
     id="path6" />
  <path
     d="M32,58c-0.61,0-1.214-0.028-1.813-0.07C30.787,57.971,31.39,58,32,58z"
     id="path8" />
  <path
     d="M29.788,57.9c-1.217-0.103-2.411-0.289-3.574-0.554C27.378,57.61,28.571,57.797,29.788,57.9z"
     id="path10" />
  <path
     d="m 39.942647,14.987115 -1.827202,-0.75738 -14.429756,34.837466 1.827202,0.75738 z m 0.56754,7.152586 12.167509,9.541396 -12.207059,10.233518 1.340738,1.457412 13.951201,-11.69093 -13.937359,-11.030448 z m -16.765174,0 -12.357344,9.541396 11.870882,10.233518 -1.342716,1.457412 L 8.302783,31.681097 22.429981,20.650649 Z"
     id="path2"
     style="stroke-width:1.9775" />
</svg>
