<?xml version="1.0" encoding="UTF-8" standalone="no"?>
<svg
   width="64"
   height="64"
   fill-rule="evenodd"
   clip-rule="evenodd"
   version="1.1"
   id="svg4"
   sodipodi:docname="iconmonstr-idea-11.svg"
   inkscape:version="1.1.2 (1:1.1+202202050950+0a00cf5339)"
   xmlns:inkscape="http://www.inkscape.org/namespaces/inkscape"
   xmlns:sodipodi="http://sodipodi.sourceforge.net/DTD/sodipodi-0.dtd"
   xmlns="http://www.w3.org/2000/svg"
   xmlns:svg="http://www.w3.org/2000/svg">
  <defs
     id="defs8" />
  <sodipodi:namedview
     id="namedview6"
     pagecolor="#505050"
     bordercolor="#ffffff"
     borderopacity="1"
     inkscape:pageshadow="0"
     inkscape:pageopacity="0"
     inkscape:pagecheckerboard="1"
     showgrid="false"
     inkscape:zoom="5.2083333"
     inkscape:cx="22.944"
     inkscape:cy="20.16"
     inkscape:window-width="1366"
     inkscape:window-height="679"
     inkscape:window-x="0"
     inkscape:window-y="21"
     inkscape:window-maximized="1"
     inkscape:current-layer="svg4" />
  <path
     d="m 27.842956,39.267965 c -3.923441,1.379803 -8.865023,-0.917013 -9.864307,-4.723898 -4.93301,-0.0086 -8.7176138,-2.41337 -8.7587508,-6.660765 -0.06514,-6.909301 7.7406088,-16.194263 20.5684928,-16.206262 12.829599,-0.01203 20.561638,9.104987 20.568496,17.704335 0.0069,8.599343 -7.168123,11.821743 -13.038713,10.735041 -0.623911,2.58306 -0.293101,6.13284 0.397658,8.136552 l -3.614914,1.132984 C 32.707404,44.607204 30.330028,40.872308 27.842956,39.267965 Z M 26.656838,23.368517 c -1.1844,-0.538209 -2.010569,-1.734609 -2.010569,-3.121271 0,-1.892302 1.53578,-3.428081 3.42808,-3.428081 1.892302,0 3.428085,1.535779 3.428085,3.428081 0,0.445652 -0.0857,0.872448 -0.239964,1.264966 2.080846,1.56149 4.122267,3.179545 6.168832,4.789029 0.728469,-0.570775 1.64548,-0.91187 2.641338,-0.91187 2.365376,0 4.285103,1.919727 4.285103,4.285104 0,2.365379 -1.919727,4.285103 -4.285103,4.285103 -2.007142,0 -3.693759,-1.383231 -4.158263,-3.248108 -2.058564,0.167967 -4.120556,0.296529 -6.180832,0.435366 -0.289674,1.599202 -1.691761,2.812742 -3.373234,2.812742 -1.892299,0 -3.428082,-1.53578 -3.428082,-3.428082 0,-1.770606 1.345524,-3.229253 3.068134,-3.409228 0.207393,-1.252964 0.431938,-2.5025 0.656475,-3.753751 z m 3.530924,-0.421655 c -0.50907,0.397659 -1.132981,0.656478 -1.813455,0.714756 l -0.622196,3.736611 c 0.863877,0.383944 1.539209,1.115839 1.851165,2.017427 l 6.251106,-0.495359 c 0.08057,-0.457648 0.23483,-0.889588 0.449078,-1.283817 z"
     id="path867"
     style="stroke-width:1.71404" />
</svg>
