<?xml version="1.0" encoding="UTF-8" standalone="no"?>
<svg
   fill="#000000"
   viewBox="0 0 64 64"
   width="64px"
   height="64px"
   version="1.1"
   id="svg12"
   sodipodi:docname="idea.svg"
   inkscape:version="1.1.2 (1:1.1+202202050950+0a00cf5339)"
   xmlns:inkscape="http://www.inkscape.org/namespaces/inkscape"
   xmlns:sodipodi="http://sodipodi.sourceforge.net/DTD/sodipodi-0.dtd"
   xmlns="http://www.w3.org/2000/svg"
   xmlns:svg="http://www.w3.org/2000/svg">
  <defs
     id="defs16" />
  <sodipodi:namedview
     id="namedview14"
     pagecolor="#505050"
     bordercolor="#ffffff"
     borderopacity="1"
     inkscape:pageshadow="0"
     inkscape:pageopacity="0"
     inkscape:pagecheckerboard="1"
     showgrid="false"
     inkscape:zoom="5.6568542"
     inkscape:cx="27.223611"
     inkscape:cy="31.996582"
     inkscape:window-width="1366"
     inkscape:window-height="679"
     inkscape:window-x="0"
     inkscape:window-y="21"
     inkscape:window-maximized="1"
     inkscape:current-layer="svg12" />
  <path
     d="M33.813,57.93C33.214,57.972,32.61,58,32,58C32.61,58,33.213,57.971,33.813,57.93z"
     id="path4" />
  <path
     d="M37.786,57.346c-1.164,0.265-2.357,0.451-3.575,0.554C35.429,57.797,36.622,57.61,37.786,57.346z"
     id="path6" />
  <path
     d="M32,58c-0.61,0-1.214-0.028-1.813-0.07C30.787,57.971,31.39,58,32,58z"
     id="path8" />
  <path
     d="M29.788,57.9c-1.217-0.103-2.411-0.289-3.574-0.554C27.378,57.61,28.571,57.797,29.788,57.9z"
     id="path10" />
  <path
     d="m 54.191383,32.166764 c 0,8.309521 -6.908774,12.710828 -13.050513,12.411319 -0.275767,2.644436 0.111406,4.825001 0.701287,6.649444 l -6.793719,2.171432 c -0.617278,-2.061857 -1.813484,-6.979998 -5.025891,-9.640869 -4.982059,1.464667 -9.074726,-1.17977 -10.563134,-4.797609 -5.173819,0.08401 -9.09847,-3.353027 -9.09847,-8.314999 0,-7.6685 8.40814,-17.424425 21.896957,-17.424425 13.755453,0 21.933483,9.819844 21.933483,18.945707 z M 14.02809,30.214484 c -0.264808,4.295382 3.97944,5.606642 8.108632,5.161034 0.613625,4.436005 5.124509,5.988333 8.495799,4.375738 2.832543,1.351438 5.01676,4.328255 6.810155,9.071074 l 0.0037,0.01091 0.202715,-0.06574 c -0.39992,-2.883674 -0.16433,-6.070513 0.657489,-8.269339 7.135231,1.252821 12.508111,-2.105687 12.217735,-8.817223 C 50.221103,24.688196 43.8456,17.050741 32.548305,16.871768 21.039162,16.796895 14.364151,24.64254 14.028117,30.214485 Z m 14.91148,-4.536451 c -1.263776,-0.573449 -2.142212,-1.848183 -2.142212,-3.325636 0,-2.0162 1.636337,-3.652536 3.652537,-3.652536 2.016201,0 3.652536,1.636336 3.652536,3.652536 0,0.474831 -0.09132,0.929571 -0.257503,1.347787 2.218916,1.66373 4.392176,3.387728 6.574566,5.102594 0.774337,-0.608148 1.753218,-0.971575 2.814279,-0.971575 2.520251,0 4.56567,2.045421 4.56567,4.565671 0,2.52025 -2.045419,4.56567 -4.56567,4.56567 -2.13856,0 -3.935609,-1.473798 -4.430526,-3.460779 -2.193349,0.178975 -4.39035,0.315945 -6.585524,0.463873 -0.310466,1.703909 -1.802527,2.996906 -3.594096,2.996906 -2.0162,0 -3.652536,-1.636336 -3.652536,-3.652537 0,-1.886535 1.431793,-3.440689 3.269019,-3.632447 0.219152,-1.335003 0.46022,-2.666351 0.69946,-3.999527 z m 3.760289,-0.449262 c -0.540577,0.423693 -1.205339,0.69946 -1.930366,0.761552 l -0.662936,3.981266 c 0.920439,0.409084 1.639988,1.188902 1.970543,2.149517 l 6.662226,-0.527791 c 0.08584,-0.487615 0.2502,-0.947833 0.478482,-1.367875 z"
     id="path2"
     style="stroke-width:1.82627;fill:#000000" />
</svg>
